<?xml version="1.0" encoding="UTF-8" standalone="no"?>
<!-- Created with Inkscape (http://www.inkscape.org/) -->

<svg
   xmlns:dc="http://purl.org/dc/elements/1.1/"
   xmlns:cc="http://creativecommons.org/ns#"
   xmlns:rdf="http://www.w3.org/1999/02/22-rdf-syntax-ns#"
   xmlns:svg="http://www.w3.org/2000/svg"
   xmlns="http://www.w3.org/2000/svg"
   xmlns:sodipodi="http://sodipodi.sourceforge.net/DTD/sodipodi-0.dtd"
   xmlns:inkscape="http://www.inkscape.org/namespaces/inkscape"
   width="744.09448819"
   height="1052.3622047"
   id="svg2891"
   version="1.1"
   inkscape:version="0.47pre4 r22446"
   sodipodi:docname="Cartoon head6.svg">
  <title
     id="title2862">Cartoon head6</title>
  <defs
     id="defs2893">
    <inkscape:perspective
       sodipodi:type="inkscape:persp3d"
       inkscape:vp_x="0 : 526.18109 : 1"
       inkscape:vp_y="0 : 1000 : 0"
       inkscape:vp_z="744.09448 : 526.18109 : 1"
       inkscape:persp3d-origin="372.04724 : 350.78739 : 1"
       id="perspective2899" />
    <inkscape:perspective
       id="perspective2886"
       inkscape:persp3d-origin="0.5 : 0.33333333 : 1"
       inkscape:vp_z="1 : 0.5 : 1"
       inkscape:vp_y="0 : 1000 : 0"
       inkscape:vp_x="0 : 0.5 : 1"
       sodipodi:type="inkscape:persp3d" />
  </defs>
  <sodipodi:namedview
     id="base"
     pagecolor="#ffffff"
     bordercolor="#666666"
     borderopacity="1.0"
     inkscape:pageopacity="0.0"
     inkscape:pageshadow="2"
     inkscape:zoom="0.35"
     inkscape:cx="375"
     inkscape:cy="520"
     inkscape:document-units="px"
     inkscape:current-layer="layer1"
     showgrid="false"
     inkscape:window-width="1680"
     inkscape:window-height="1001"
     inkscape:window-x="0"
     inkscape:window-y="0"
     inkscape:window-maximized="1" />
  <metadata
     id="metadata2896">
    <rdf:RDF>
      <cc:Work
         rdf:about="">
        <dc:format>image/svg+xml</dc:format>
        <dc:type
           rdf:resource="http://purl.org/dc/dcmitype/StillImage" />
        <dc:title>Cartoon head6</dc:title>
        <cc:license
           rdf:resource="http://creativecommons.org/licenses/publicdomain/" />
        <dc:creator>
          <cc:Agent>
            <dc:title>Doodleguy</dc:title>
          </cc:Agent>
        </dc:creator>
      </cc:Work>
      <cc:License
         rdf:about="http://creativecommons.org/licenses/publicdomain/">
        <cc:permits
           rdf:resource="http://creativecommons.org/ns#Reproduction" />
        <cc:permits
           rdf:resource="http://creativecommons.org/ns#Distribution" />
        <cc:permits
           rdf:resource="http://creativecommons.org/ns#DerivativeWorks" />
      </cc:License>
    </rdf:RDF>
  </metadata>
  <g
     inkscape:label="Layer 1"
     inkscape:groupmode="layer"
     id="layer1">
    <path
       style="fill:#000000"
       d="m 586.12125,1019.2193 c -0.74047,-0.7404 -8.72932,-3.178 -17.75296,-5.4167 -9.02364,-2.2387 -17.84519,-4.4373 -19.60342,-4.8856 -1.75824,-0.4483 -11.20679,-5.5821 -20.99677,-11.4084 -21.96548,-13.0723 -43.12148,-35.26601 -49.16272,-51.57418 -2.32648,-6.28026 -5.17846,-12.03675 -6.33771,-12.79221 -1.26046,-0.82142 -0.93858,-3.24571 0.80073,-6.03076 4.57255,-7.32182 0.84508,-8.12362 -11.90657,-2.56118 -8.44019,3.68176 -15.50987,5.03983 -24.96408,4.79557 -7.25416,-0.18754 -14.48094,0.73113 -16.05952,2.04123 -1.5786,1.31012 -4.67441,1.99024 -6.87959,1.51137 -2.20517,-0.47885 -10.52747,1.44519 -18.49399,4.27564 -17.17362,6.10167 -20.55314,6.2185 -47.1453,1.62944 -11.20846,-1.93426 -26.51147,-3.86021 -34.00668,-4.2799 -15.56734,-0.87166 -36.2829,-6.19722 -48.65204,-12.5075 -4.65207,-2.3733 -8.45832,-3.84204 -8.45832,-3.26387 0,0.57818 -4.22023,-0.83822 -9.3783,-3.14755 -10.83164,-4.84946 -12.92052,-4.22982 -12.92052,3.83266 0,3.21323 -0.93771,8.92383 -2.08381,12.69021 -1.14609,3.76638 -3.12321,12.06368 -4.39362,18.43845 -1.27041,6.37476 -4.41318,16.06516 -6.98392,21.53417 -5.94545,12.64838 -20.64501,28.19711 -26.6572,28.19711 -2.5405,0 -5.182,1.467 -5.87003,3.2599 -0.68803,1.793 -3.416,3.9152 -6.06217,4.7161 -2.64618,0.8008 -7.01796,3.4746 -9.71502,5.9417 -5.59139,5.1145 -11.82034,3.8747 -11.82034,-2.3527 0,-5.6692 5.47909,-10.098 20.06894,-16.22199 6.74539,-2.83132 14.09156,-7.20642 16.32483,-9.72244 2.23327,-2.51602 6.3035,-7.10717 9.04494,-10.20253 5.53048,-6.24447 8.66755,-12.44047 9.28886,-18.34624 0.22596,-2.14789 1.9848,-9.17202 3.90852,-15.60918 1.92372,-6.43715 3.31496,-14.21253 3.09166,-17.27862 -0.2497,-3.42871 0.667,-5.3601 2.38136,-5.01723 3.35512,0.67102 3.39448,0.21474 0.61266,-7.10195 -1.26932,-3.33851 -3.91884,-5.71987 -6.36404,-5.71987 -2.30414,0 -6.89618,-2.50862 -10.20454,-5.57471 -3.30837,-3.06608 -6.89529,-5.5747 -7.97094,-5.5747 -1.07563,0 -3.28169,-1.29719 -4.90233,-2.88264 -1.62065,-1.58544 -9.55473,-7.57636 -17.63129,-13.31311 -20.36908,-14.46809 -33.03361,-28.87561 -42.60692,-48.47083 -8.16094,-16.70429 -8.16812,-16.74512 -6.06565,-34.45395 2.60733,-21.96108 5.62936,-33.48794 9.89898,-37.75759 1.80725,-1.80723 3.28591,-4.16417 3.28591,-5.23761 0,-2.72161 12.79006,-14.62365 23.16744,-21.55892 9.35991,-6.25529 18.78716,-7.4642 23.46472,-3.00903 2.39331,2.27952 2.61857,1.77325 1.23642,-2.77879 -0.92952,-3.06138 -2.91844,-6.57344 -4.41982,-7.80458 -4.51114,-3.6992 -17.5896,-34.54061 -20.08756,-47.37016 -1.69803,-8.72121 -2.65847,-22.7252 -4.45729,-64.99114 -1.3534,-31.79999 -0.36677,-41.2678 6.76553,-64.92288 1.66405,-5.51896 4.16094,-14.3847 5.54864,-19.70165 2.17732,-8.34226 3.84554,-10.25215 12.17199,-13.93534 9.99629,-4.42183 14.14617,-10.06339 10.26066,-13.94889 -1.50338,-1.50341 -4.13433,-1.38052 -7.98259,0.37288 -3.15707,1.43845 -7.36992,2.61536 -9.36192,2.61536 -1.99197,0 -5.30857,1.52651 -7.37018,3.39226 -2.06162,1.86574 -13.36315,5.46272 -25.11452,7.99325 -18.95618,4.08205 -22.82888,4.28097 -34.33516,1.76382 -19.989509,-4.37302 -21.545788,-5.08373 -34.420859,-15.719 -14.052404,-11.60781 -20.110213,-26.05612 -20.305416,-48.42978 -0.163005,-18.67305 7.140394,-46.05321 14.347528,-53.78917 2.19775,-2.35901 3.995926,-4.82134 3.995926,-5.47181 0,-5.84323 29.979381,-33.55371 47.478361,-43.88508 14.28924,-8.43636 16.18555,-8.94932 33.55789,-9.07759 13.19751,-0.0974 20.49317,0.93986 25.7575,3.66214 8.83473,4.56863 10.57047,3.42164 7.29613,-4.82134 -6.66039,-16.76711 -3.50698,-77.21124 5.16884,-99.07568 0.8024,-2.02222 0.3655,-4.35251 -0.97089,-5.17846 -1.57487,-0.97332 -0.85598,-2.81808 2.04306,-5.24278 2.46012,-2.05761 6.96707,-8.25659 10.01548,-13.77555 3.04838,-5.51895 7.48085,-13.54653 9.84992,-17.83905 4.72679,-8.56451 25.94555,-31.21835 29.24069,-31.21835 3.28388,0 17.81417,-10.46506 16.43927,-11.83996 -3.07512,-3.07511 1.81903,-5.79635 5.87224,-3.26506 3.4538,2.15692 5.07436,1.88006 8.81615,-1.50621 6.27087,-5.67505 5.88568,-13.66503 -0.8327,-17.2728 -34.94904,-18.76754 -40.8203,-20.84115 -67.40267,-23.80535 -1.41823,-0.1581 -2.08189,-2.187027 -1.47478,-4.508624 0.92627,-3.542012 2.59663,-4.034771 10.38318,-3.063078 5.10364,0.636877 10.23263,2.034634 11.39775,3.106114 1.16511,1.071481 6.31034,1.948159 11.43385,1.948159 5.56006,0 10.43454,1.348409 12.09141,3.344819 1.52678,1.83966 4.1782,3.34483 5.89206,3.34483 1.71384,0 7.09,2.50861 11.94699,5.5747 4.857,3.06609 9.68842,5.57471 10.73651,5.57471 1.04809,0 4.60109,3.02523 7.89561,6.72276 5.94578,6.67312 6.04307,6.69531 13.18105,3.00412 3.95508,-2.04525 10.56315,-3.59188 14.68462,-3.43694 7.46027,0.28047 7.48672,0.24522 5.9531,-7.92975 -1.35559,-7.22589 -10.12073,-25.750948 -14.19086,-29.992273 -0.80684,-0.840777 -9.49455,-2.893874 -19.30603,-4.562427 -14.56927,-2.477689 -18.86085,-2.510067 -23.41376,-0.176607 -3.06609,1.57142 -8.3027,2.871932 -11.63691,2.890016 -10.086,0.05463 -4.9114,-6.287643 7.97625,-9.776204 19.86443,-5.377115 37.32809,-3.904032 50.72116,4.278408 5.02401,3.06941 14.50924,18.805932 16.32882,27.090477 1.4488,6.59637 1.85022,6.82498 7.94451,4.52466 3.53024,-1.33252 6.96515,-4.48543 7.63316,-7.00649 1.45691,-5.498514 -2.8357,-32.691991 -5.63396,-35.690603 -1.08724,-1.165113 -1.97681,-3.780296 -1.97681,-5.811518 0,-2.031222 -3.56598,-8.363351 -7.92442,-14.071402 -9.35366,-12.250147 -27.55679,-22.573943 -36.04597,-20.443313 -3.95635,0.992989 -5.25068,0.567884 -4.56196,-1.498302 0.52884,-1.586539 1.47627,-2.382874 2.10541,-1.769657 0.62911,0.613218 2.69111,-0.169248 4.58218,-1.738616 6.40418,-5.315013 21.60125,-0.871304 31.96248,9.345992 9.17075,9.043376 21.03169,29.233641 21.03169,35.801179 0,5.395444 3.22218,3.995591 6.2453,-2.713209 5.82162,-12.919156 9.83781,-18.531055 17.37738,-24.281764 12.47795,-9.517404 14.15605,-3.491839 2.32298,8.341207 -11.56482,11.564837 -15.80242,23.639358 -15.15776,43.190405 0.38374,11.638361 1.33064,14.233051 7.5273,20.626411 6.27906,6.47834 17.43672,10.6149 14.10916,5.23079 -0.70788,-1.14538 -1.63954,-8.42037 -2.07038,-16.16665 -0.64537,-11.603812 0.27927,-16.440292 5.25055,-27.463401 7.19578,-15.955742 15.60121,-26.393797 25.04966,-31.107299 9.05406,-4.51676 10.70203,-4.362184 10.70203,1.003893 0,2.499631 -1.48659,4.459764 -3.38233,4.459764 -1.8603,0 -7.76775,4.576855 -13.12767,10.170781 -13.95814,14.567529 -19.1415,36.619545 -12.54725,53.380852 2.40822,6.12125 2.87541,6.35809 5.49844,2.78735 1.57662,-2.14626 3.6488,-3.90229 4.60482,-3.90229 0.95601,0 2.85228,-1.36293 4.21394,-3.02874 2.19744,-2.6883 17.96531,-7.855358 38.48482,-12.611294 3.86135,-0.894963 8.25457,-0.864615 9.76269,0.06734 3.5369,2.185953 0.7968,6.648974 -4.09313,6.666794 -2.07388,0.007 -6.64487,1.51273 -10.15776,3.34482 -3.51289,1.83209 -9.28271,3.33109 -12.82182,3.33109 -3.53911,0 -6.43475,0.88169 -6.43475,1.95935 0,1.07764 -2.97698,3.19246 -6.6155,4.69957 -11.22349,4.64892 -11.96827,16.01635 -0.91088,13.9026 3.91498,-0.7484 5.45068,-0.31618 4.4766,1.2599 -3.04839,4.93239 3.78417,5.41623 7.47059,0.52904 3.55838,-4.71747 4.34481,-4.85575 11.95839,-2.10264 4.48222,1.62081 8.1495,3.74876 8.1495,4.72884 0,0.98005 1.39783,1.78192 3.10625,1.78192 1.70845,0 3.68383,1.50517 4.38979,3.34482 0.70594,1.83966 2.30726,3.34483 3.55849,3.34483 9.15064,0 51.66684,42.31152 65.8764,65.55924 2.45287,4.01305 7.0652,11.22373 10.24961,16.02371 3.1844,4.79999 7.06855,12.74105 8.63143,17.64679 1.56288,4.90574 3.72381,9.8728 4.80209,11.03792 5.00841,5.41172 0.50101,41.36431 -5.18583,41.36431 -1.23768,0 -1.62394,1.63236 -0.85835,3.62746 0.7656,1.99509 0.48874,4.75457 -0.61523,6.13217 -1.10399,1.3776 -1.51629,5.71713 -0.91623,9.64339 1.09097,7.1387 1.09097,7.1387 15.72972,1.62869 8.05132,-3.03052 15.72131,-6.35541 17.04441,-7.38869 2.69321,-2.10323 14.87412,-5.65427 17.45737,-5.08929 0.91983,0.20114 1.67241,-0.47659 1.67241,-1.50615 0,-3.20713 10.95599,-7.04758 20.1052,-7.04758 16.86997,0 38.52845,16.92748 42.79654,33.44822 1.10896,4.29253 2.93923,11.31666 4.06726,15.60918 1.12803,4.29252 2.08505,17.83905 2.12672,30.1034 0.12421,36.56971 -8.72109,55.27797 -32.87907,69.54068 -7.29704,4.30813 -12.58971,5.60635 -22.85629,5.60635 -7.3482,0 -13.36036,0.84472 -13.36036,1.87715 0,1.03244 -7.02413,1.28827 -15.60917,0.56854 -12.48188,-1.04644 -15.61689,-0.68538 -15.64771,1.80214 -0.0573,4.62527 -10.54683,13.75706 -13.62047,11.85742 -1.65832,-1.0249 -2.04788,-0.67432 -1.04816,0.94329 0.87509,1.41593 4.09168,2.57442 7.14795,2.57442 4.35871,0 6.25554,1.80306 8.79695,8.36205 1.78204,4.59913 4.86721,11.3724 6.85595,15.05171 3.73416,6.90842 8.99488,25.3536 11.12968,39.02293 0.67037,4.29252 1.98665,11.36714 2.92502,15.72134 1.75824,8.15853 0.83434,31.87255 -1.47256,37.79583 -0.71649,1.83965 -1.53726,6.35516 -1.82394,10.03447 -0.52174,6.69609 -6.68222,34.95605 -8.99284,41.25281 -0.67508,1.83965 -1.1023,3.34482 -0.9494,3.34482 0.15297,0 -2.89331,9.03103 -6.76934,20.06894 -8.66505,24.67579 -25.14716,57.46397 -34.31906,68.27161 -13.85839,16.32991 -22.46528,26.99662 -22.9169,28.40135 -0.25494,0.79302 6.04235,4.45219 13.994,8.13149 18.67714,8.64211 34.36273,23.73025 34.54362,33.22792 0.0725,3.80048 0.47877,10.92374 0.90305,15.82948 2.09736,24.25026 -9.33584,44.89638 -43.95989,79.38289 -8.27844,8.24557 -15.0517,16.06516 -15.0517,17.37691 0,1.31173 -2.53513,3.02127 -5.6336,3.79892 -5.1772,1.29939 -5.56741,2.25338 -4.81645,11.77565 0.85121,10.79358 7.2815,27.03326 10.70412,27.03326 1.08669,0 1.97581,1.32642 1.97581,2.94759 0,11.22899 41.41007,41.06644 64.1789,46.24323 5.78717,1.3158 12.26455,3.3292 14.39418,4.4742 2.12962,1.1451 5.64169,2.0974 7.80458,2.1162 6.91199,0.06 9.80216,3.2399 7.81848,8.6023 -1.00554,2.7182 -2.43409,4.3364 -3.17457,3.5959 z M 368.72036,931.93359 c 0.80697,-0.80699 0.34963,-2.81389 -1.01633,-4.45976 -2.37289,-2.85913 -0.28469,-4.13991 5.30961,-3.25659 0.91983,0.14517 1.67241,-1.99369 1.67239,-4.75317 0,-4.91094 -0.54097,-5.01724 -25.53217,-5.01724 -17.45257,0 -26.4142,-0.88205 -28.31948,-2.78735 -1.53304,-1.53304 -4.59547,-2.78735 -6.80544,-2.78735 -3.80503,0 -3.7858,0.43344 0.36222,8.17276 3.69503,6.89413 5.70168,8.28437 12.82615,8.8861 21.76206,1.83807 31.89371,3.4912 33.07095,5.39603 1.48339,2.40013 6.29258,2.7461 8.4321,0.60657 z m 26.60091,-6.19555 c 5.75405,-0.76634 12.22805,-2.90466 17.79999,-5.87928 2.12963,-1.13691 5.35174,-2.0671 7.16026,-2.0671 1.8085,0 5.35326,-2.21657 7.87722,-4.92572 4.67916,-5.0225 4.76338,-6.84681 1.53324,-33.21534 -0.54155,-4.42072 -2.23289,-10.37009 -3.75858,-13.22086 -2.7091,-5.06199 -2.91051,-4.91517 -8.61412,6.27915 -6.91058,13.56321 -23.52033,32.31596 -30.14368,34.03286 -3.8667,1.00231 -4.74055,3.05995 -5.00327,11.78122 -0.28398,9.42752 0.1378,10.42209 3.9111,9.22446 2.32617,-0.73831 6.4832,-1.64253 9.23784,-2.00939 z m -89.43011,-6.56983 c -2.46167,-3.13972 -2.43373,-10.29608 0.0401,-10.29608 1.02202,0 1.85823,-1.11079 1.85823,-2.46846 0,-1.35764 -1.50517,-1.89087 -3.34482,-1.18491 -1.83966,0.70593 -3.35167,0.56242 -3.36006,-0.3189 -0.009,-0.88134 -3.75715,-4.11105 -8.33057,-7.17714 -20.60194,-13.81182 -25.39837,-22.25772 -24.29915,-42.78767 0.41446,-7.74087 1.51409,-15.83035 2.44361,-17.97661 0.95183,-2.1978 0.74414,-3.9023 -0.47548,-3.9023 -3.51485,0 -9.46205,18.29304 -9.44861,29.06301 0.0134,9.9919 2.61378,22.48772 7.06362,33.93116 1.83435,4.71729 3.86564,6.13217 8.80364,6.13217 7.70592,0 8.2193,2.68764 1.40188,7.33877 -5.01723,3.42296 -5.01723,3.42296 3.2732,6.96162 4.55976,1.94627 10.36106,3.53867 12.89182,3.53867 2.53074,0 5.18878,1.53079 5.90673,3.40173 1.01246,2.63842 2.00367,2.8222 4.41727,0.81908 1.89636,-1.57383 2.34887,-3.55586 1.15849,-5.07414 z m 151.30053,-3.91975 c 1.83965,-1.01752 6.85688,-3.43182 11.14941,-5.36508 6.69667,-3.01605 7.26326,-3.82079 3.99126,-5.66898 -3.46091,-1.9549 -3.2038,-3.02417 2.78196,-11.56992 3.87658,-5.5345 7.17145,-13.70472 7.99296,-19.81993 1.18541,-8.82404 0.32856,-12.59841 -5.64253,-24.8552 -3.8721,-7.94819 -11.52276,-19.26478 -17.00145,-25.14798 -11.10949,-11.92974 -11.58085,-13.16596 -6.17363,-16.19198 2.9599,-1.65645 5.8837,-0.12197 13.37929,7.02179 5.27542,5.02778 9.59166,10.11742 9.59166,11.31027 0,1.19285 1.3756,3.753 3.0569,5.68923 5.1257,5.90288 12.9157,29.72366 12.91994,39.50738 0.004,9.19494 -4.50378,20.69453 -11.029,28.1358 -1.88866,2.15378 -2.98563,4.36426 -2.43773,4.91216 1.16741,1.16739 37.62777,-33.40717 37.62777,-35.68159 0,-0.84711 -1.80027,-1.06943 -4.00063,-0.49403 -2.93914,0.76862 -4.11581,-0.34567 -4.43479,-4.19967 -0.27751,-3.35329 0.76358,-5.24588 2.88569,-5.24588 1.82591,0 3.31985,1.00344 3.31985,2.22988 0,4.27198 4.75544,2.1814 11.2751,-4.95672 7.29185,-7.98353 8.22533,-15.21881 3.20539,-24.84412 -1.83209,-3.51288 -3.33108,-7.56095 -3.33108,-8.9957 0,-4.09783 -22.64751,-24.88916 -30.42665,-27.9329 -3.8571,-1.50914 -9.12544,-4.71205 -11.70744,-7.11756 -5.19371,-4.83867 -6.55331,-4.26235 -17.71206,7.50801 -3.19745,3.3727 -6.85542,6.13218 -8.12882,6.13218 -1.27339,0 -4.72438,2.91655 -7.66885,6.48119 -2.94445,3.56467 -6.62168,5.99459 -8.17158,5.39984 -1.5499,-0.59475 -4.47361,1.44539 -6.49712,4.53364 -2.14847,3.27897 -5.00067,5.1079 -6.85564,4.39608 -3.59582,-1.37985 -4.14305,2.18031 -1.19385,7.76683 1.09048,2.06563 1.24956,8.52208 0.35352,14.34764 -1.23731,8.04439 -0.93124,10.59194 1.27262,10.59194 1.59599,0 4.12122,4.26465 5.61161,9.477 1.49038,5.21235 3.48205,10.51635 4.42587,11.78667 0.94384,1.27031 2.35312,9.35966 3.13175,17.9763 1.15332,12.76306 0.76291,16.20841 -2.10648,18.58979 -4.66121,3.86844 -4.47595,8.53536 0.38013,9.57567 3.60452,0.77219 7.55335,-0.518 16.16665,-5.28205 z m -191.76985,-4.98054 c 0,-0.45873 -2.4025,-5.2251 -5.33889,-10.59193 -11.12732,-20.33729 -11.85747,-43.78822 -1.97008,-63.27502 10.61881,-20.92834 12.1727,-23.11877 15.49583,-21.84357 3.12221,1.19809 7.30536,-2.53167 7.38817,-6.58743 0.0178,-0.91982 -3.04314,-1.67241 -6.80428,-1.67241 -7.07965,0 -19.12976,-7.75847 -37.32098,-24.02912 -3.8785,-3.46905 -6.39818,-4.35114 -7.96195,-2.78735 -1.25828,1.25828 -5.20464,2.28777 -8.76968,2.28777 -4.20857,0 -10.41085,3.12828 -17.68437,8.91953 -6.16137,4.90574 -11.95308,8.91953 -12.87052,8.91953 -2.64444,0 -6.70787,11.50545 -7.49274,21.21547 -0.39514,4.88837 0.40258,14.40689 1.77271,21.15228 1.37011,6.74539 2.13422,14.07767 1.69806,16.29395 -0.94162,4.78423 -8.10812,4.17719 -8.43545,-0.71454 -0.12197,-1.82329 -0.44381,-3.81678 -0.71512,-4.43 -1.44423,-3.26432 -2.71999,-16.28677 -2.94909,-30.1034 -0.20403,-12.30987 0.74505,-17.25882 4.49065,-23.41376 9.87144,-16.22115 35.96764,-32.08905 40.55812,-24.66152 1.17522,1.90153 2.20939,1.8182 3.95945,-0.31912 1.76664,-2.15754 0.46053,-5.09062 -5.13825,-11.53877 -7.50701,-8.64585 -7.50701,-8.64585 -17.53508,-6.12075 -17.5704,4.42426 -38.89461,22.45468 -39.09034,33.05235 -0.0499,2.69854 -1.76282,5.84223 -3.80659,6.98598 -4.18335,2.34113 -4.5928,13.66208 -0.85017,23.50597 1.83613,4.82936 1.60309,6.27575 -1.18342,7.34503 -5.50089,2.11089 -7.31285,-1.63944 -7.72308,-15.98482 -0.47035,-16.4477 1.90646,-25.81144 8.4554,-33.31121 2.75948,-3.1601 5.01723,-6.62761 5.01723,-7.70558 0,-3.7177 30.61133,-26.99461 35.50046,-26.99461 2.69535,0 4.29022,-0.98764 3.5442,-2.19474 -0.74603,-1.2071 -7.83438,-1.92528 -15.75189,-1.59597 -13.28577,0.55263 -15.00479,1.22612 -22.30007,8.73699 -17.70635,18.22957 -22.11363,30.80037 -21.85173,62.32731 0.1164,14.00493 0.66264,15.54844 9.37634,26.49241 5.08904,6.39155 9.25281,12.5526 9.25281,13.69123 0,1.1386 1.00345,1.45002 2.22988,0.69204 1.22644,-0.75798 2.22988,0.11506 2.22988,1.94031 0,2.96164 17.93639,16.95687 21.85314,17.05133 0.85835,0.0201 9.05867,6.04137 18.22295,13.37929 9.1643,7.33789 18.86429,13.34165 21.55553,13.34165 2.69125,0 5.24489,1.05509 5.67474,2.34463 0.89563,2.68692 35.26822,12.62847 35.26822,10.20057 z m -47.31326,-32.05667 c -4.15536,-5.82556 -8.75635,-13.39862 -10.22439,-16.82903 -4.79837,-11.21242 -2.53328,-28.90308 4.5866,-35.82196 12.74007,-12.38039 40.69236,-25.72369 44.95592,-21.46014 1.44334,1.44334 1.18545,2.19744 -0.75145,2.19744 -2.33141,0 -2.38359,0.68116 -0.24919,3.25295 2.23385,2.69165 1.60761,3.51579 -3.62926,4.77619 -9.63648,2.31927 -22.05992,9.07414 -30.79568,16.74425 -6.49514,5.70281 -7.86658,8.43419 -7.86658,15.6671 0,14.20239 8.70648,30.19312 18.39652,33.78789 5.93468,2.2016 4.8465,8.27725 -1.48249,8.27725 -3.877,0 -7.50034,-2.96585 -12.94,-10.59194 z m 144.59186,26.20112 c 6.64152,0 9.75573,-0.94877 9.75573,-2.97217 0,-1.70836 2.1334,-2.81043 5.01724,-2.59179 12.13408,0.91989 29.76179,-21.42448 38.41763,-48.69708 5.53597,-17.44256 5.53597,-17.44256 1.11949,-26.09956 -5.72226,-11.21655 -5.62488,-11.68431 2.08012,-9.99201 5.31044,1.16636 6.76504,0.58111 7.96688,-3.20555 0.80864,-2.54784 4.8885,-6.06064 9.06637,-7.80626 4.17784,-1.74561 10.36609,-5.74237 13.75168,-8.88164 3.38558,-3.13929 7.37029,-5.7078 8.85493,-5.7078 1.48463,0 3.50178,-1.41698 4.48255,-3.14887 0.98077,-1.73188 5.797,-7.44883 10.70274,-12.70432 4.90574,-5.2555 9.46239,-11.61521 10.12587,-14.13271 0.66397,-2.51929 3.42106,-4.89764 6.13218,-5.28983 2.70921,-0.3919 4.93598,-1.89708 4.94837,-3.34483 0.0134,-1.44775 6.52624,-9.65639 14.47517,-18.24143 7.94895,-8.58505 15.66624,-18.87038 17.14953,-22.85629 1.4833,-3.98592 3.43114,-7.24712 4.32856,-7.24712 0.89742,0 2.32273,-2.17741 3.16739,-4.83869 0.84468,-2.66129 4.93992,-12.10785 9.10057,-20.99235 4.16065,-8.88452 9.4861,-25.33246 11.83436,-36.551 2.34827,-11.21854 5.2324,-21.59005 6.40922,-23.04781 1.1768,-1.45777 2.77714,-7.66772 3.55631,-13.7999 0.77916,-6.13217 2.03969,-16.16664 2.80115,-22.29881 3.41444,-27.49672 -1.06593,-67.14833 -8.55414,-75.7045 -1.01968,-1.16511 -1.88244,-3.67373 -1.91725,-5.5747 -0.0348,-1.90098 -4.0486,-7.93546 -8.91953,-13.40998 -4.87093,-5.47453 -8.85624,-10.79481 -8.85624,-11.82287 0,-1.02807 -3.01034,-2.91863 -6.68965,-4.20124 -7.6051,-2.65115 -8.90481,-6.35552 -2.22988,-6.35552 2.45287,0 4.45976,-1.00344 4.45976,-2.22988 0,-1.22643 -1.00344,-2.22988 -2.22988,-2.22988 -1.22643,0 -2.22988,-1.50517 -2.22988,-3.34482 0,-3.7493 5.67538,-4.56009 7.80459,-1.11494 1.53618,2.4856 10.03447,3.09182 10.03447,0.71579 0,-1.69364 -4.03814,-14.80738 -6.89074,-22.37751 -2.9201,-7.74922 1.44423,-8.02829 7.78093,-0.49754 5.42129,6.44285 6.6341,6.82935 20.82966,6.63845 8.29025,-0.11149 18.58526,-0.1824 22.87778,-0.15743 13.65455,0.0792 28.69515,-4.41347 30.15305,-9.00689 0.73539,-2.317 2.02852,-4.11429 2.8736,-3.99399 4.93422,0.70255 7.60738,-1.18393 12.37132,-8.7305 2.92382,-4.63164 5.95514,-11.40491 6.73627,-15.0517 2.86141,-13.35905 3.57535,-45.88709 1.20996,-55.12828 -1.33447,-5.21355 -2.74956,-12.30518 -3.14465,-15.75913 -1.38032,-12.06694 -21.34449,-28.28325 -34.82003,-28.28325 -8.9257,0 -19.83928,3.87688 -19.83928,7.04759 0,1.02956 -0.75258,1.66586 -1.67241,1.41395 -0.91983,-0.25189 -6.68965,1.90592 -12.82182,4.79516 -6.13218,2.88923 -12.15286,5.40788 -13.37929,5.597 -4.35001,0.67077 -14.08037,5.43124 -15.37149,7.52032 -0.72077,1.16621 -4.06941,2.81284 -7.44139,3.65915 -3.372,0.84633 -6.87818,2.71352 -7.79152,4.14932 -2.82758,4.44511 -1.90173,12.15364 1.91855,15.97394 2.77288,2.77285 3.0255,4.2694 1.05357,6.24132 -3.4152,3.4152 -9.29406,-0.17772 -13.15376,-8.03885 -2.41257,-4.91382 -2.32449,-6.93233 0.54474,-12.48079 1.88253,-3.64039 5.52195,-8.08923 8.08763,-9.88629 3.86347,-2.70609 4.23945,-4.06222 2.18865,-7.89421 -1.36193,-2.54474 -1.86983,-7.04281 -1.1287,-9.99573 0.96924,-3.86173 0.10302,-6.24057 -3.08556,-8.47395 -2.49842,-1.74997 -4.36573,-5.50902 -4.27878,-8.61359 0.0847,-3.02972 -0.61663,-7.2646 -1.55883,-9.41086 -2.66045,-6.06033 2.09587,-4.60179 5.45372,1.67241 3.87352,7.23775 4.84557,6.98573 9.24092,-2.39587 3.29124,-7.02496 3.33867,-9.12727 0.46386,-20.55381 -4.39737,-17.47819 -7.44058,-24.93527 -13.47032,-33.00785 -2.83469,-3.79508 -5.15399,-7.86923 -5.15399,-9.05367 0,-1.18447 -2.77701,-5.10353 -6.17111,-8.70905 -3.3941,-3.60552 -7.65875,-9.56584 -9.477,-13.24514 -4.21222,-8.52366 -32.96606,-36.52567 -44.80421,-43.63273 -4.96972,-2.98358 -11.73819,-7.58097 -15.04105,-10.21645 -7.7132,-6.15463 -14.22883,-7.20211 -19.18963,-3.08502 -3.52167,2.92276 -4.3505,2.76909 -7.75722,-1.43802 -3.64579,-4.50236 -3.92669,-4.53034 -6.36018,-0.63369 -2.2184,3.5522 -1.55135,4.40493 5.18476,6.62805 8.48591,2.8006 8.3021,2.58163 6.3772,7.59784 -3.16572,8.24976 -18.80482,0.1552 -25.31804,-13.10422 -7.18742,-14.63195 -13.46632,-21.00013 -13.46632,-13.65782 0,5.18189 -5.13979,5.34237 -12.25469,0.38262 -6.41136,-4.46928 -7.91423,-6.02298 -15.16073,-15.67315 -3.12794,-4.16551 -3.38868,-4.05724 -6.98682,2.90081 -2.93849,5.68241 -4.70877,6.91955 -8.27966,5.78619 -3.12578,-0.99208 -5.49724,-0.0778 -7.60539,2.93198 -1.97853,2.82473 -6.57425,4.76927 -12.97743,5.491 -5.45273,0.61462 -12.82637,3.19123 -16.3859,5.72584 -3.55952,2.5346 -9.17013,5.28558 -12.46801,6.11331 -3.29791,0.82771 -5.99617,2.48962 -5.99617,3.69311 0,2.74213 -8.00577,9.69131 -16.51478,14.33518 -8.8884,4.85093 -11.44638,6.93856 -24.51603,20.00824 -13.55676,13.55672 -16.94613,17.74448 -16.94613,20.93774 0,1.31668 -1.50517,2.97156 -3.34482,3.6775 -1.83966,0.70596 -3.34483,3.18306 -3.34483,5.50473 0,2.32164 -1.00344,4.22119 -2.22988,4.22119 -1.22643,0 -2.22988,1.06773 -2.22988,2.37277 0,1.30502 -2.41035,7.6423 -5.35631,14.08282 -8.86392,19.37852 -10.59564,27.99064 -11.4878,57.13051 -0.74061,24.19023 2.42654,55.73171 5.90781,58.83557 0.49599,0.44223 4.28577,2.5261 8.42171,4.6308 7.49198,3.81251 7.54161,3.80319 13.37929,-2.51275 3.22267,-3.48671 10.71139,-10.28939 16.64164,-15.11708 5.93021,-4.82767 15.19218,-14.95762 20.58214,-22.51099 10.78193,-15.1095 27.72751,-47.92817 27.72751,-53.70011 0,-2.01421 2.08873,-7.04185 4.64163,-11.17253 2.55291,-4.13066 4.04548,-7.51031 3.31684,-7.51031 -0.72861,0 0.96964,-3.76293 3.77394,-8.36206 5.583,-9.15636 10.33515,-21.71075 11.82389,-31.23681 0.52549,-3.36255 2.09869,-9.80202 3.496,-14.30997 1.39732,-4.50793 1.83118,-10.02689 0.96416,-12.26435 -1.52009,-3.92281 -1.68251,-3.92397 -4.54789,-0.0323 -1.63432,2.21965 -3.52114,3.14639 -4.19293,2.05939 -2.13826,-3.45975 0.91735,-10.67451 5.81673,-13.73425 4.17621,-2.60807 5.21389,-2.36947 8.7644,2.01519 2.21503,2.73546 3.42773,5.94371 2.69488,7.12947 -0.73283,1.18576 -0.67158,6.56279 0.13602,11.94896 1.22084,8.14123 3.65159,11.8899 14.41135,22.22505 7.11852,6.8376 17.29657,18.85231 22.61787,26.69936 9.82711,14.49151 13.2484,16.25171 13.2484,6.81608 0,-2.88358 4.16401,-10.60106 9.25338,-17.14998 17.88191,-23.0102 30.79846,-32.60444 39.97409,-29.69219 3.60349,1.1437 4.02052,-0.14584 3.85364,-11.91631 -0.22366,-15.77283 1.93331,-20.8496 6.31335,-14.85956 1.91661,2.62112 2.2186,4.9585 0.85322,6.60369 -3.05516,3.68126 2.28536,19.44597 7.00578,20.68039 4.96632,1.29873 6.35645,7.3884 2.68785,11.7746 -2.36706,2.83008 -1.90844,5.40175 2.66913,14.96661 3.04002,6.35213 6.83262,12.34021 8.42799,13.30684 1.59539,0.96663 5.08422,6.33369 7.75299,11.92682 2.66874,5.59312 7.9458,13.11897 11.72679,16.72411 3.78099,3.60514 9.44576,12.07376 12.5884,18.81916 3.14264,6.74539 7.03084,13.79886 8.64043,15.67439 3.58068,4.1722 10.01273,28.04579 8.56946,31.80691 -0.5745,1.49714 1.22695,3.71855 4.00327,4.93644 2.77631,1.2179 5.04785,3.71953 5.04785,5.55919 0,2.71934 -2.82888,3.20237 -15.12743,2.58311 -23.4372,-1.18014 -38.65915,3.30875 -68.51409,20.20445 -17.97777,10.1741 -24.07487,15.74201 -25.78196,23.54421 -2.26828,10.36719 -2.94948,11.64516 -6.20732,11.64516 -5.96003,0 -5.99622,-13.69708 -0.0604,-22.89079 5.42107,-8.39653 5.42107,-8.39653 0.0847,-10.42541 -5.98985,-2.27736 -14.8415,-12.50991 -14.8415,-17.15689 0,-5.6206 -3.57789,-3.11488 -8.0079,5.6082 -5.31903,10.47364 -13.61696,17.69277 -29.90009,26.01282 -6.74539,3.44661 -15.26187,8.34573 -18.9255,10.88691 -12.45516,8.63916 -33.49621,16.33196 -40.87293,14.9435 -2.26039,-0.42546 -2.38874,0.47073 -0.55747,3.89246 3.48963,6.52045 2.92424,9.19811 -1.94221,9.19811 -2.73941,0 -4.21492,-1.42844 -4.03091,-3.90229 0.34229,-4.60159 -17.08199,-35.44001 -23.53765,-41.65823 -2.45972,-2.36923 -9.0847,-5.05793 -14.72222,-5.97488 -9.05364,-1.47259 -10.7706,-1.06825 -14.7098,3.46401 -4.08483,4.69979 -12.39714,10.1634 -15.46258,10.1634 -0.69385,0 -1.26153,-1.50517 -1.26153,-3.34482 0,-1.83966 1.50517,-3.34483 3.34482,-3.34483 4.43775,0 4.22855,-2.18232 -0.55747,-5.81542 -5.5993,-4.25047 -7.7599,-3.77282 -6.13218,1.35566 2.51482,7.92353 -5.10507,5.07383 -11.24603,-4.2058 -12.35769,-18.67375 -44.79777,-22.73873 -70.72579,-8.86249 -9.43273,5.04825 -30.125656,22.4401 -32.926811,27.67408 -1.60808,3.00472 -3.709454,5.46315 -4.66973,5.46315 -3.288652,0 -15.550126,20.05999 -18.740418,30.65967 -3.415154,11.34669 -4.718654,42.41597 -2.191796,52.24207 0.844479,3.28397 2.950045,6.51367 4.679006,7.17715 1.728983,0.66345 3.143598,2.56804 3.143598,4.2324 0,4.22404 8.234419,11.31554 20.004918,17.22823 8.907463,4.4745 12.252083,4.88275 31.371163,3.82922 16.00399,-0.88188 25.29839,-2.71408 36.85707,-7.26565 8.50098,-3.34752 16.40963,-6.96432 17.57475,-8.03734 4.73578,-4.36147 15.66249,-1.77778 20.99159,4.96363 4.88104,6.17458 5.00475,6.96195 1.67241,10.64414 -1.97919,2.18697 -3.59851,5.67843 -3.59851,7.75878 0,2.42462 -2.41815,4.26608 -6.73605,5.12967 -8.36014,1.67203 -9.02315,2.711 -14.01037,21.95506 -11.43977,44.14232 -12.02199,55.70069 -5.78478,114.83892 3.55032,33.66243 12.21453,54.1135 34.53534,81.51741 5.4092,6.64104 9.83491,13.41856 9.83491,15.06116 0,3.47215 20.46711,24.13816 33.54352,33.86952 4.94403,3.6793 12.18602,9.44912 16.0933,12.82182 3.90727,3.3727 8.30206,6.13218 9.7662,6.13218 1.46411,0 3.01743,1.06615 3.45179,2.36924 0.43436,1.3031 3.77918,-0.67594 7.43293,-4.39781 6.59831,-6.72134 13.03627,-8.74899 15.43836,-4.8623 2.03301,3.28945 -0.61272,7.71797 -7.29225,12.20599 -13.29906,8.93574 -22.47952,42.3503 -17.22545,62.69627 1.92706,7.46242 20.52254,26.34334 27.09547,27.5114 2.32994,0.41404 7.54338,2.30621 11.58542,4.20479 10.58973,4.97411 20.69422,7.15086 28.0502,6.04267 3.526,-0.53118 10.80099,-0.9658 16.16664,-0.9658 z m -20.92015,-44.83336 c -5.29229,-1.95775 -7.3525,-6.62686 -5.70457,-12.9285 1.51451,-5.79152 3.14698,-5.87077 7.84749,-0.38098 3.56972,4.16915 10.65691,4.22248 16.26861,0.12242 2.69062,-1.96584 10.17903,-1.50853 14.00357,0.85516 1.87674,1.1599 2.10365,2.91649 0.70063,5.42359 -2.4338,4.34896 -26.4761,9.36443 -33.11573,6.90828 z m 4.42629,-22.5764 c -6.01323,-2.898 -7.36507,-7.40441 -7.90707,-26.35847 -0.40651,-14.21584 -0.40651,-14.21584 9.92855,-18.50695 6.0482,-2.51121 12.56886,-3.73046 15.72049,-2.93946 6.9457,1.74328 13.94778,15.56117 10.83386,21.37958 -1.19312,2.22937 -1.62891,4.5938 -0.96842,5.25431 2.57498,2.57498 -6.06142,14.698 -13.66813,19.18606 -4.40745,2.60047 -8.20705,4.66019 -8.44356,4.57719 -0.2365,-0.0829 -2.70957,-1.24953 -5.49572,-2.59226 z m 50.77829,-163.97666 c -3.06608,-0.407 -7.07987,-1.37241 -8.91952,-2.14537 -1.83966,-0.77297 -4.85,-1.66472 -6.68965,-1.98168 -30.88177,-5.32074 -55.97334,-22.20596 -70.8551,-47.68154 -3.22394,-5.51896 -6.62879,-10.57461 -7.56637,-11.23477 -3.68477,-2.59456 -9.26551,-30.86094 -9.06208,-45.89917 0.16947,-12.52523 1.60917,-18.95625 6.8132,-30.4335 3.73164,-8.22998 8.3993,-15.12993 10.74359,-15.88173 2.27988,-0.73114 6.15214,-4.34263 8.60501,-8.02555 2.45287,-3.68292 5.71407,-6.69908 7.24711,-6.7026 1.53305,-0.004 2.78736,-1.81263 2.78736,-4.02021 0,-5.09008 4.21534,-9.3655 9.23389,-9.3655 6.58235,0 6.2961,3.1054 -1.05669,11.46326 -3.88426,4.41517 -10.57433,12.30855 -14.86685,17.54083 -4.29252,5.23229 -8.90744,10.65817 -10.25536,12.05753 -10.46316,10.86245 -10.57341,45.67358 -0.22308,70.43247 1.28176,3.06609 2.09449,6.90911 1.80607,8.54007 -0.6303,3.56402 17.29055,23.18043 30.2298,33.08998 10.26533,7.86171 37.49562,17.24615 56.48844,19.46771 9.09045,1.06332 16.30385,0.26752 27.87352,-3.07505 8.58505,-2.48027 16.1109,-4.55652 16.72412,-4.61387 2.10273,-0.19667 14.45958,-9.66654 25.64364,-19.65246 13.06298,-11.66355 29.90211,-48.81814 38.03802,-83.92872 1.9761,-8.52785 2.54842,-45.86256 0.72034,-46.9916 -0.75872,-0.4686 -2.02474,-4.88705 -2.81336,-9.81877 -1.81994,-11.38138 -12.77675,-31.74355 -22.08185,-41.03703 -11.01091,-10.99715 -25.36983,-21.54492 -31.04575,-22.80556 -2.81391,-0.62497 -6.11967,-1.35675 -7.3461,-1.62614 -1.22644,-0.26939 -3.23333,-1.0825 -4.45977,-1.80685 -1.22643,-0.72438 -8.56459,-2.00745 -16.30701,-2.85126 -13.72459,-1.49581 -29.40557,1.34199 -29.40557,5.3215 0,3.05369 -9.77455,4.5416 -11.49954,1.7505 -1.77447,-2.87117 1.76582,-8.353 5.39457,-8.353 1.24767,0 3.40943,-1.56032 4.8039,-3.4674 1.39448,-1.90706 6.52234,-4.4025 11.39526,-5.54543 9.50822,-2.2301 33.86551,-0.51305 35.7397,2.51946 0.62506,1.01136 2.56764,1.28963 4.31687,0.61839 5.20229,-1.9963 22.33943,7.95374 33.86094,19.66013 5.91706,6.01199 13.05622,13.14649 15.86483,15.85446 12.93527,12.47175 21.56507,36.36188 23.44709,64.90928 1.54478,23.43164 -5.53599,66.43708 -12.13385,73.6957 -1.05906,1.16511 -1.92555,4.23136 -1.92555,6.8139 0,2.58253 -2.50862,8.09574 -5.57471,12.25159 -3.06608,4.15585 -5.5747,8.47059 -5.5747,9.58832 0,2.06177 -5.20524,9.0658 -18.36393,24.71014 -7.88709,9.37692 -21.86947,19.21871 -27.30434,19.21871 -1.86403,0 -3.38913,1.00344 -3.38913,2.22988 0,1.22643 -2.80965,2.22988 -6.24367,2.22988 -3.43402,0 -7.19695,0.90808 -8.36206,2.01793 -2.29047,2.18183 -25.37802,4.16756 -34.45168,2.96314 z m 145.17861,150.5532 c 0.81208,-17.24355 -3.04685,-31.81386 -10.03938,-37.9061 -2.58013,-2.24795 -12.03442,-7.66881 -21.00956,-12.04638 -16.31841,-7.95921 -16.31841,-7.95921 -21.74135,-2.86464 -5.37995,5.05423 -7.54666,10.35269 -3.11299,7.61253 1.27048,-0.78519 7.12816,1.6642 13.01705,5.44309 5.8889,3.77892 11.51406,6.87074 12.50034,6.87074 1.89946,0 14.54044,12.56101 14.54044,14.44845 0,0.61036 1.75603,3.16064 3.90229,5.66729 2.14626,2.50666 4.03727,5.2776 4.20226,6.15766 1.08517,5.78858 3.86623,11.63459 5.53481,11.63459 1.08339,0 2.07613,-2.25775 2.20609,-5.01723 z M 288.90031,389.10578 c 1.04136,-3.28107 2.78002,-4.32371 5.86477,-3.51701 5.10482,1.33492 17.20706,-3.33425 28.45793,-10.97943 4.34537,-2.95274 9.12833,-5.36864 10.62884,-5.36864 5.23909,0 26.67733,-16.50781 35.5583,-27.38052 1.39078,-1.70269 3.33613,-6.52394 4.32301,-10.71393 2.67983,-11.37769 0.45492,-19.58234 -3.56007,-13.12825 -1.6294,2.61921 -2.89535,2.75076 -6.28225,0.6527 -2.84604,-1.76301 -4.98008,-1.88908 -6.48604,-0.38313 -1.23441,1.23441 -5.12612,1.91509 -8.64821,1.51259 -6.29694,-0.71958 -6.42313,-1.01092 -7.56131,-17.45592 -1.28047,-18.50117 1.60694,-26.95338 10.60889,-31.05496 2.77357,-1.2637 5.04283,-3.3857 5.04283,-4.71551 0,-1.32981 1.75603,-2.23922 3.90229,-2.0209 7.55515,0.76851 9.477,-0.15943 9.477,-4.57638 0,-2.45287 1.02744,-4.45977 2.2832,-4.45977 1.25576,0 -3.51062,-6.01495 -10.59194,-13.36653 -7.08132,-7.35161 -16.38254,-17.8878 -20.66938,-23.41376 -4.28681,-5.52598 -9.05318,-10.04723 -10.59194,-10.04723 -1.53873,0 -2.7977,-1.44594 -2.7977,-3.21321 0,-8.57361 -4.35681,-4.10858 -8.59829,8.81187 -2.60258,7.92801 -6.63111,18.69176 -8.95228,23.91943 -2.32117,5.22767 -5.46428,12.76605 -6.98471,16.75196 -1.5204,3.98592 -3.64608,7.24712 -4.72371,7.24712 -1.07764,0 -2.02295,1.75603 -2.10068,3.90229 -0.0778,2.14626 -2.83722,9.05787 -6.13218,15.35912 -15.10861,28.89356 -24.68301,42.893 -38.21652,55.87921 -14.60185,14.01135 -14.60185,14.01135 -7.26444,14.033 4.08182,0.0111 10.34973,2.24779 14.12653,5.03889 8.24119,6.09037 21.36398,23.93078 23.31214,31.69287 1.72412,6.86942 4.57438,7.30027 6.57592,0.99403 z m 139.10171,-39.97442 c 6.63472,-3.65707 13.32437,-6.64924 14.86589,-6.64924 1.54149,0 3.16324,-1.08154 3.60384,-2.40339 1.21794,-3.65382 23.47033,-10.63687 39.3258,-12.34088 13.03703,-1.40112 13.99969,-1.87386 12.64178,-6.20799 -0.8084,-2.58026 -2.0498,-7.1703 -2.75863,-10.20008 -0.70886,-3.02981 -4.12183,-10.05394 -7.58439,-15.60918 -3.46256,-5.55526 -7.34757,-12.5037 -8.63337,-15.44101 -1.28577,-2.93729 -6.3412,-10.36864 -11.2343,-16.51409 -4.89307,-6.14546 -9.4869,-13.52584 -10.20846,-16.40082 -0.72159,-2.87499 -2.20663,-5.22725 -3.30012,-5.22725 -1.09346,0 -1.98814,-0.95314 -1.98814,-2.1181 0,-1.16495 -3.01034,-6.57857 -6.68964,-12.03025 -3.67931,-5.45171 -6.68965,-11.46347 -6.68965,-13.35949 0,-1.89601 -1.00345,-4.06746 -2.22988,-4.82545 -1.22644,-0.75798 -2.22988,-3.32582 -2.22988,-5.70631 0,-2.38049 -1.00345,-4.32815 -2.22988,-4.32815 -1.22644,0 -2.22989,1.07105 -2.22989,2.38015 0,1.37129 -1.90449,1.77568 -4.49321,0.95405 -8.11064,-2.57422 -29.58065,16.896 -38.12487,34.57379 -8.40331,17.38621 -8.99733,23.79656 -2.87887,31.06794 2.94748,3.5029 5.35908,8.02693 5.35908,10.0534 0,3.33914 0.51595,3.30897 5.50464,-0.32191 3.02753,-2.2035 5.53615,-5.36946 5.57471,-7.03547 0.19645,-8.49159 22.36888,6.65818 22.36888,15.28399 0,2.33618 1.35588,5.05005 3.01308,6.03082 3.52353,2.08532 6.02354,17.46352 3.97702,24.46382 -0.77848,2.66283 -4.00864,6.86955 -7.17815,9.34824 -5.15943,4.0349 -6.38509,4.18388 -11.70688,1.42289 -3.26927,-1.69612 -5.96645,-2.39077 -5.99372,-1.54368 -0.15029,4.67115 -8.77896,-10.59926 -8.82034,-15.6098 -0.0272,-3.30031 -1.05304,-6.62074 -2.27948,-7.37872 -1.29692,-0.80156 -2.22988,1.41503 -2.22988,5.29793 0,3.67185 -0.95234,9.18091 -2.11631,12.24238 -3.02132,7.9467 6.20058,25.6149 15.98805,30.6314 9.54412,4.89178 7.83757,5.08922 21.60517,-2.49954 z"
       id="path2876" />
  </g>
</svg>
