<?xml version="1.0" encoding="UTF-8" standalone="no"?>
<!-- Created with Inkscape (http://www.inkscape.org/) -->

<svg
   xmlns:svg="http://www.w3.org/2000/svg"
   xmlns="http://www.w3.org/2000/svg"
   version="1.1"
   width="100"
   height="100"
   id="svg2">
  <defs
     id="defs4" />
  <g
     transform="translate(0,-952.36218)"
     id="layer1">
    <path
       d="m 20.682873,73.483496 c 0,-0.117851 0,-0.235703 0,-0.353554 0,-0.05893 -0.02635,-0.124072 0,-0.176776 0.03727,-0.07454 0.139509,-0.102242 0.176777,-0.176777 0.05271,-0.105409 -0.0527,-0.248144 0,-0.353554 0.03727,-0.07454 0.139509,-0.102241 0.176777,-0.176776 0.02635,-0.05271 0,-0.117851 0,-0.176777 0,-0.117851 -0.03727,-0.24175 0,-0.353553 0.0527,-0.158114 0.300849,-0.19544 0.353553,-0.353554 0.03727,-0.111803 -0.03727,-0.24175 0,-0.353553 0.02635,-0.07906 0.130552,-0.107439 0.176777,-0.176777 0.389468,-0.08902 0.09344,-0.363663 0.176777,-0.53033 0.03727,-0.07453 0.139508,-0.102241 0.176776,-0.176777 0.02635,-0.0527 -0.02635,-0.124072 0,-0.176776 0.03727,-0.07454 0.139509,-0.102241 0.176777,-0.176777 0.02635,-0.05271 -0.04167,-0.13511 0,-0.176777 0.04167,-0.04167 0.13511,0.04167 0.176777,0 0.08333,-0.08333 -0.08333,-0.27022 0,-0.353553 0.04167,-0.04167 0.150424,0.05271 0.176776,0 0.0527,-0.105409 -0.03727,-0.24175 0,-0.353553 0.02635,-0.07906 0.139509,-0.102242 0.176777,-0.176777 0.02635,-0.05271 0,-0.117851 0,-0.176777 0.117851,-0.117851 0.261103,-0.214878 0.353553,-0.353553 0.03269,-0.04903 -0.02635,-0.124072 0,-0.176777 0.195432,-0.390863 0.109716,-0.05486 0.353554,-0.176777 0.07454,-0.03727 0.117851,-0.117851 0.176777,-0.176776 0.05893,-0.05893 0.117851,-0.117851 0.176776,-0.176777 0.05893,-0.05893 0.150425,-0.09772 0.176777,-0.176777 0.03727,-0.111803 -0.0527,-0.248144 0,-0.353553 0.02635,-0.05271 0.13511,0.04167 0.176777,0 0.04167,-0.04167 -0.02635,-0.124072 0,-0.176777 0.07454,-0.149071 0.279017,-0.204482 0.353553,-0.353553 0.02635,-0.05271 -0.04167,-0.13511 0,-0.176777 0.09317,-0.09317 0.243921,-0.103688 0.353553,-0.176777 0.06934,-0.04623 0.102241,-0.139508 0.176777,-0.176776 0.0527,-0.02635 0.13511,0.04167 0.176777,0 0.04167,-0.04167 -0.04167,-0.13511 0,-0.176777 0.09317,-0.09317 0.260384,-0.08361 0.353553,-0.176777 0.04167,-0.04167 -0.04167,-0.13511 0,-0.176776 0.04167,-0.04167 0.13511,0.04167 0.176777,0 0.04167,-0.04167 -0.04167,-0.13511 0,-0.176777 0.04167,-0.04167 0.150424,0.0527 0.176777,0 0.235702,-0.471405 -0.25,-0.245812 0.176776,-0.53033 0.642134,-0.428089 0.125011,0.05177 0.53033,-0.353554 0.05893,-0.05893 0.139509,-0.102241 0.176777,-0.176776 0.02635,-0.05271 -0.02635,-0.124072 0,-0.176777 0.07454,-0.149071 0.279018,-0.204482 0.353553,-0.353553 0.03687,-0.07374 -0.04115,-0.312399 0,-0.353554 0.09317,-0.09317 0.294628,-0.05892 0.353554,-0.176776 0.07906,-0.158114 -0.04287,-0.358832 0,-0.53033 0.04159,-0.166368 0.463301,-0.303282 0.53033,-0.353554 0.133333,-0.1 0.235702,-0.235702 0.353553,-0.353553 0.586295,-0.586295 -0.08333,0.166666 0.176777,-0.353554 0.03727,-0.07453 0.130552,-0.107439 0.176777,-0.176776 0.07309,-0.109633 0.08361,-0.260384 0.176776,-0.353554 0.04167,-0.04167 0.13511,0.04167 0.176777,0 0.04167,-0.04167 -0.02635,-0.124072 0,-0.176776 0.03727,-0.07454 0.117851,-0.117852 0.176777,-0.176777 0.05893,-0.05893 0.117851,-0.117851 0.176776,-0.176777 0.235703,-0.235702 0.471405,-0.471404 0.707107,-0.707107 0.05893,-0.05893 0.117851,-0.117851 0.176777,-0.176776 0.05893,-0.05893 0.130552,-0.107439 0.176777,-0.176777 0.07309,-0.109632 0.103688,-0.243921 0.176776,-0.353553 0.04622,-0.06934 0.130552,-0.10744 0.176777,-0.176777 0.07309,-0.109632 0.103689,-0.243921 0.176777,-0.353553 0.04622,-0.06934 0.130551,-0.10744 0.176776,-0.176777 0.07309,-0.109632 0.08361,-0.260384 0.176777,-0.353554 0.09317,-0.09317 0.260384,-0.08361 0.353554,-0.176776 0.04167,-0.04167 -0.04167,-0.13511 0,-0.176777 0.09317,-0.09317 0.260383,-0.08361 0.353553,-0.176777 0.04167,-0.04167 0,-0.117851 0,-0.176776 0.117851,-0.05893 0.248144,-0.09772 0.353553,-0.176777 0.133334,-0.1 0.253554,-0.22022 0.353554,-0.353553 0.07906,-0.10541 0.06714,-0.280466 0.176776,-0.353554 0.246411,-0.164274 0.404907,0.199493 0.53033,-0.176777 0.03727,-0.111803 0,-0.235702 0,-0.353553 0,-0.05893 -0.02635,-0.124072 0,-0.176777 0.367852,-0.735702 -0.0122,0.188981 0.353554,-0.176776 0.04167,-0.04167 0,-0.117851 0,-0.176777 0,-0.05893 0,-0.117851 0,-0.176777 0,-0.05893 -0.01863,-0.120875 0,-0.176776 0.04167,-0.125 0.117851,-0.235703 0.176777,-0.353554 0.05893,-0.117851 0.103688,-0.243921 0.176776,-0.353553 0.04622,-0.06934 0.117851,-0.117851 0.176777,-0.176777 0.05893,-0.05892 0.117851,-0.117851 0.176777,-0.176777 0.05892,-0.05893 0.139509,-0.102241 0.176776,-0.176776 0.02635,-0.0527 -0.04167,-0.13511 0,-0.176777 0.04167,-0.04167 0.13511,0.04167 0.176777,0 0.04167,-0.04167 -0.04167,-0.13511 0,-0.176777 0.04167,-0.04167 0.13511,0.04167 0.176777,0 0.04167,-0.04167 -0.02635,-0.124072 0,-0.176776 0.367851,-0.735703 -0.0122,0.18898 0.353553,-0.176777 0.04167,-0.04167 -0.04167,-0.13511 0,-0.176777 0.04167,-0.04167 0.124072,0.02635 0.176777,0 0.07453,-0.03727 0.117851,-0.117851 0.176777,-0.176776 0.05892,-0.05893 0.117851,-0.117852 0.176776,-0.176777 0.05893,-0.05893 0.102241,-0.139509 0.176777,-0.176777 0.0527,-0.02635 0.124072,0.02635 0.176777,0 0.218443,-0.109221 0.176776,-0.170675 0.176776,-0.353553 l -0.353553,-0.707107 c -0.586295,-0.586294 0.08333,0.166667 -0.176777,-0.353553 -0.03727,-0.07454 -0.117851,-0.117852 -0.176776,-0.176777 -0.05893,-0.05893 -0.117852,-0.117851 -0.176777,-0.176777 -0.05893,-0.05892 -0.139509,-0.102241 -0.176777,-0.176776 -0.02635,-0.05271 0.01863,-0.120875 0,-0.176777 -0.04167,-0.125 -0.13511,-0.228554 -0.176777,-0.353554 -0.01863,-0.0559 0,-0.117851 0,-0.176776 0,-0.117851 0,-0.235703 0,-0.353554 0,-0.05893 0.01863,-0.120875 0,-0.176776 -0.04167,-0.125 -0.144819,-0.225726 -0.176776,-0.353554 -0.02858,-0.114332 0,-0.235702 0,-0.353553 0,-0.412479 0,-0.824958 0,-1.237437 0,-0.117851 0,-0.235702 0,-0.353553 0,-0.117852 0.02311,-0.237991 0,-0.353554 -0.03654,-0.18272 -0.131583,-0.349554 -0.176777,-0.53033 -0.01429,-0.05717 0,-0.117851 0,-0.176777 0,-0.235702 0,-0.471404 0,-0.707106 0,-0.117851 0,-0.235703 0,-0.353554 0,-0.05893 -0.01863,-0.120875 0,-0.176776 0.04167,-0.125 0.14482,-0.225726 0.176777,-0.353554 0.02858,-0.114332 0,-0.235702 0,-0.353553 0,-0.117851 0,-0.235702 0,-0.353554 0,-0.117851 -0.02858,-0.239221 0,-0.353553 0.03196,-0.127827 0.14482,-0.225726 0.176776,-0.353553 0.02858,-0.114333 0,-0.235703 0,-0.353554 0,-0.176776 0,-0.353553 0,-0.53033 0,-0.176777 0.03467,-0.356986 0,-0.53033 -0.0058,-0.02914 -0.344883,-0.672427 -0.353553,-0.707107 -0.02858,-0.114332 0,-0.235702 0,-0.353553 0,-0.235702 0,-0.471405 0,-0.707107 0,-0.117851 0.0527,-0.248144 0,-0.353553 -0.02635,-0.05271 -0.150424,0.0527 -0.176777,0 -0.0527,-0.10541 0,-0.235703 0,-0.353554 0,-0.05892 0,-0.117851 0,-0.176776 0,-0.117852 -0.03727,-0.24175 0,-0.353554 0.02635,-0.07906 0.150425,-0.09772 0.176777,-0.176776 0.03727,-0.111804 0,-0.235703 0,-0.353554 0,-0.05893 0,-0.117851 0,-0.176777 0,-0.117851 -0.06537,-0.255495 0,-0.353553 0.07309,-0.109632 0.260384,-0.08361 0.353553,-0.176777 0.04167,-0.04167 0,-0.117851 0,-0.176776 0,-0.05893 0,-0.117851 0,-0.176777 0,-0.176777 0,-0.353553 0,-0.53033 0,-0.05893 0.01863,-0.120875 0,-0.176777 -0.04167,-0.125 -0.13511,-0.228553 -0.176776,-0.353553 -0.01863,-0.0559 0,-0.117851 0,-0.176777 0,-0.117851 0,-0.235702 0,-0.353553 0,-0.117851 -0.02858,-0.239221 0,-0.353554 0.03196,-0.127827 0.13511,-0.228553 0.176776,-0.353553 0.01863,-0.0559 0,-0.117851 0,-0.176777 0,-0.117851 0,-0.235702 0,-0.353553 0,-0.117851 -0.02858,-0.239221 0,-0.353554 0.03196,-0.127827 0.14482,-0.225725 0.176777,-0.353553 0.02858,-0.114332 0,-0.235702 0,-0.353553 0,-0.294628 0,-0.589256 0,-0.883884 0,-0.117851 -0.03727,-0.24175 0,-0.353553 0.02635,-0.07906 0.139509,-0.102241 0.176777,-0.176777 0.01316,-0.02632 -0.01269,-0.315493 0,-0.353553 0.04167,-0.125 0.117851,-0.235703 0.176777,-0.353554 0.05892,-0.117851 0.117851,-0.235702 0.176776,-0.353553 0.05893,-0.117851 0.150936,-0.224351 0.176777,-0.353553 0.03467,-0.173344 0,-0.353554 0,-0.530331 0,-0.117851 -0.03727,-0.24175 0,-0.353553 0.02635,-0.07906 0.130552,-0.107439 0.176777,-0.176777 0.07309,-0.109632 0.117851,-0.235702 0.176776,-0.353553 0.05893,-0.117851 0.13511,-0.228553 0.176777,-0.353553 0.01863,-0.0559 -0.02635,-0.124072 0,-0.176777 0.09501,-0.190029 0.226078,-0.360363 0.353553,-0.53033 0.05,-0.06667 0.117852,-0.117851 0.176777,-0.176777 0.05893,-0.05893 0.117851,-0.117851 0.176777,-0.176777 0.05893,-0.05892 0.139509,-0.102241 0.176776,-0.176776 0.02635,-0.0527 -0.01863,-0.120875 0,-0.176777 0.04167,-0.125 0.14482,-0.225726 0.176777,-0.353553 0.242658,-0.97063 -0.324004,0.294454 0.176777,-0.707107 0.05893,-0.117851 0.07137,-0.274497 0.176777,-0.353554 0.149071,-0.111803 0.381258,-0.06497 0.53033,-0.176776 0.105409,-0.07906 0.09772,-0.248144 0.176776,-0.353554 0.1,-0.133333 0.235703,-0.235702 0.353554,-0.353553 0.117851,-0.117851 0.235702,-0.235702 0.353553,-0.353553 0.176777,-0.176777 0.353554,-0.353554 0.53033,-0.530331 0.117851,-0.117851 0.22022,-0.253553 0.353554,-0.353553 0.0046,-0.0035 0.69565,-0.34668 0.707106,-0.353553 0.182183,-0.10931 0.360363,-0.226078 0.53033,-0.353554 0.06667,-0.05 0.117852,-0.117851 0.176777,-0.176776 0.117851,-0.117852 0.235702,-0.235703 0.353554,-0.353554 0.05893,-0.05893 0.09772,-0.150424 0.176776,-0.176776 0.111804,-0.03727 0.24175,0.03727 0.353554,0 0.07906,-0.02635 0.09772,-0.150425 0.176776,-0.176777 0.111804,-0.03727 0.239221,0.02858 0.353554,0 0.127827,-0.03196 0.228553,-0.13511 0.353553,-0.176777 0.03806,-0.01269 0.327236,0.01316 0.353554,0 0.07454,-0.03727 0.102241,-0.139509 0.176776,-0.176777 0.02632,-0.01316 0.315493,0.01269 0.353554,0 1.280467,-0.426822 -0.278708,0.05097 0.53033,-0.353553 0.0527,-0.02635 0.117851,0 0.176776,0 0.117852,0 0.239221,0.02858 0.353554,0 0.127827,-0.03196 0.231216,-0.127842 0.353553,-0.176777 0.173012,-0.0692 0.357319,-0.107572 0.53033,-0.176776 0.122338,-0.04894 0.235703,-0.117851 0.353554,-0.176777 0.117851,-0.05893 0.225726,-0.14482 0.353553,-0.176777 0.114332,-0.02858 0.239221,0.02858 0.353553,0 0.127828,-0.03196 0.225726,-0.14482 0.353554,-0.176776 0.114332,-0.02858 0.235702,0 0.353553,0 0.176777,0 0.356986,0.03467 0.53033,0 0.129203,-0.02584 0.223585,-0.155116 0.353554,-0.176777 0.232495,-0.03875 0.474611,0.03875 0.707106,0 0.129969,-0.02166 0.223585,-0.155115 0.353554,-0.176777 1.529221,0 -0.01913,0.07454 1.237437,-0.176777 0.115562,-0.02311 0.235702,0 0.353553,0 0.353554,0 0.707107,0 1.06066,0 0.117851,0 0.239221,0.02858 0.353554,0 0.127827,-0.03196 0.225726,-0.144819 0.353553,-0.176776 0.114332,-0.02858 0.235702,0 0.353553,0 0.117852,0 0.235703,0 0.353554,0 0.589256,0 1.178511,0 1.767767,0 0.235702,0 0.471404,0 0.707107,0 0.05893,0 0.117851,0 0.176776,0 0.05893,0 0.124072,-0.02635 0.176777,0 0.07454,0.03727 0.102241,0.139509 0.176777,0.176776 0.0527,0.02635 0.124072,-0.02635 0.176776,0 0.07454,0.03727 0.102241,0.139509 0.176777,0.176777 0.07374,0.03687 0.312399,-0.04115 0.353553,0 0.04167,0.04167 -0.04167,0.13511 0,0.176777 0.689913,0.689912 0.09494,-0.04092 0.530331,0.176777 0.07454,0.03727 0.09772,0.150424 0.176776,0.176776 0.111804,0.03727 0.24175,-0.03727 0.353554,0 0.03948,0.01316 0.302806,0.32818 0.353553,0.353554 0.0527,0.02635 0.117851,0 0.176777,0 0.117851,0 0.239221,-0.02858 0.353553,0 0.127828,0.03196 0.228554,0.13511 0.353554,0.176776 0.0559,0.01863 0.124072,-0.02635 0.176776,0 0.07454,0.03727 0.09772,0.150425 0.176777,0.176777 0.111803,0.03727 0.24175,-0.03727 0.353553,0 0.07906,0.02635 0.102241,0.139509 0.176777,0.176777 0.0527,0.02635 0.117851,0 0.176777,0 0.117851,0 0.235702,0 0.353553,0 0.05893,0 0.124072,-0.02635 0.176777,0 0.07453,0.03727 0.102241,0.139509 0.176776,0.176776 0.05271,0.02635 0.117852,0 0.176777,0 0.05893,0 0.235702,0 0.176777,0 -0.471405,0 -0.942809,0 -1.414214,0 -0.05893,0 -0.13511,-0.04167 -0.176776,0 -0.04167,0.04167 0.0527,0.150425 0,0.176777 -0.10541,0.0527 -0.235703,0 -0.353554,0 -0.05893,0 -0.117851,0 -0.176776,0 -0.353554,0 -0.707107,0 -1.060661,0 -0.05893,0 -0.117851,0 -0.176776,0 -0.117851,0 -0.239221,-0.02858 -0.353554,0 -0.127827,0.03196 -0.225726,0.14482 -0.353553,0.176777 -0.04263,0.01066 -0.674644,-0.01082 -0.707107,0 -0.07906,0.02635 -0.09772,0.150424 -0.176777,0.176777 -0.111803,0.03727 -0.235702,0 -0.353553,0 -0.117851,0 -0.235702,0 -0.353553,0 -1.691803,0 0.395284,-0.07906 -0.883884,0.176776 -0.173344,0.03467 -0.362625,-0.0559 -0.53033,0 -0.201556,0.06719 -0.328774,0.286368 -0.53033,0.353554 -0.167705,0.0559 -0.372216,-0.07906 -0.53033,0 -0.117851,0.05893 -0.08361,0.260384 -0.176777,0.353553 -0.138191,0.138191 -0.768824,0.30753 -0.883883,0.353553 -0.122338,0.04894 -0.225726,0.14482 -0.353554,0.176777 -0.114332,0.02858 -0.235702,0 -0.353553,0 -0.117851,0 -0.235702,0 -0.353553,0 -0.412479,0 -0.824958,0 -1.237437,0 -0.117851,0 -0.235703,0 -0.353554,0 -0.05893,0 -0.13511,-0.04167 -0.176776,0 -0.04167,0.04167 0.0527,0.150424 0,0.176777 -0.10541,0.0527 -0.248145,-0.05271 -0.353554,0 -0.0527,0.02635 0.04167,0.13511 0,0.176776 -0.04167,0.04167 -0.124072,-0.02635 -0.176777,0 -0.07453,0.03727 -0.117851,0.117852 -0.176776,0.176777 -0.117851,0 -0.24175,-0.03727 -0.353554,0 -0.07906,0.02635 -0.107439,0.130552 -0.176776,0.176777 -0.109633,0.07309 -0.243921,0.103688 -0.353554,0.176777 -0.06934,0.04622 -0.107439,0.130551 -0.176776,0.176776 -0.109633,0.07309 -0.243922,0.103689 -0.353554,0.176777 -0.06934,0.04622 -0.102241,0.139509 -0.176776,0.176777 -0.166667,0.08333 -0.381259,0.06497 -0.530331,0.176776 -0.105409,0.07906 -0.09772,0.248144 -0.176776,0.353554 -0.1,0.133333 -0.235703,0.235702 -0.353554,0.353553 -0.05893,0.05893 -0.117851,0.117851 -0.176776,0.176777 -0.05893,0.05892 -0.130552,0.107439 -0.176777,0.176777 -0.07309,0.109632 -0.103689,0.243921 -0.176777,0.353553 -0.04622,0.06934 -0.130551,0.107439 -0.176776,0.176777 -0.07309,0.109632 -0.08361,0.260384 -0.176777,0.353553 -0.09317,0.09317 -0.260384,0.08361 -0.353554,0.176777 -0.04167,0.04167 0.02635,0.124072 0,0.176776 -0.03179,0.06358 -0.321765,0.289978 -0.353553,0.353554 -0.02635,0.0527 0.02635,0.124072 0,0.176776 -0.03727,0.07454 -0.150424,0.09772 -0.176777,0.176777 -0.03727,0.111804 0.03727,0.24175 0,0.353554 -0.02635,0.07906 -0.117851,0.117851 -0.176776,0.176776 -0.05893,0.05893 -0.130552,0.107439 -0.176777,0.176777 -0.146176,0.219264 -0.207377,0.487842 -0.353553,0.707107 -0.04622,0.06934 -0.117852,0.117851 -0.176777,0.176776 -0.05893,0.117852 -0.103689,0.243922 -0.176777,0.353554 -0.04622,0.06934 -0.117851,0.117851 -0.176776,0.176777 -0.05893,0.05893 -0.150425,0.09772 -0.176777,0.176776 -0.03727,0.111804 0.03727,0.24175 0,0.353554 -0.02635,0.07906 -0.156566,0.09593 -0.176777,0.176776 -0.04288,0.171499 0,0.353554 0,0.53033 0,0.117852 0,0.235703 0,0.353554 0,0.05892 0.01863,0.120875 0,0.176776 -0.04167,0.125 -0.117851,0.235703 -0.176777,0.353554 -0.05893,0.117851 -0.09772,0.248144 -0.176776,0.353553 -0.1,0.133334 -0.300849,0.19544 -0.353554,0.353554 -0.02635,0.07906 0.139509,0.102241 0.176777,0.176776 0.02635,0.0527 0,0.117851 0,0.176777 0,0.117851 0.03727,0.24175 0,0.353553 -0.02635,0.07906 -0.130552,0.10744 -0.176777,0.176777 -0.07309,0.109632 -0.13511,0.228554 -0.176776,0.353554 -0.01863,0.0559 0.01863,0.120875 0,0.176776 -0.04167,0.125 -0.13511,0.228554 -0.176777,0.353554 -0.01863,0.0559 0.02635,0.124072 0,0.176776 -0.03727,0.07454 -0.139509,0.102241 -0.176777,0.176777 -0.02635,0.0527 0.01863,0.120875 0,0.176777 -0.04167,0.125 -0.14482,0.225726 -0.176776,0.353553 -0.02858,0.114332 0,0.235702 0,0.353553 -0.05893,0.117852 -0.13511,0.228554 -0.176777,0.353554 -0.01863,0.0559 0.02635,0.124072 0,0.176777 -0.03727,0.07453 -0.139509,0.102241 -0.176777,0.176776 -0.02635,0.05271 0,0.117851 0,0.176777 0,0.176777 0,0.353553 0,0.53033 0,0.176777 0,0.353553 0,0.53033 0,0.05893 -0.01863,0.120875 0,0.176777 0.04167,0.125 0.13511,0.228553 0.176777,0.353553 0.175411,0.526235 -0.418584,-0.362711 0.176777,0.53033 0.04622,0.06934 0.150424,0.09772 0.176776,0.176777 0.03727,0.111803 0,0.235702 0,0.353553 0,0.05893 0,0.117852 0,0.176777 0,0.05893 -0.01863,0.120875 0,0.176777 0.04167,0.125 0.13511,0.228553 0.176777,0.353553 0.01863,0.0559 -0.02635,0.124072 0,0.176777 -0.04605,0.373487 0.280465,0.06714 0.353553,0.176777 0.103363,0.155043 0.07341,0.375286 0.176777,0.53033 0.03269,0.04903 0.124072,-0.02635 0.176777,0 0.07454,0.03727 0.117851,0.117851 0.176776,0.176776 0.05893,0.05893 0.117852,0.117851 0.176777,0.176777 0.05893,0.05893 0.117851,0.117851 0.176777,0.176777 0.05893,0.05893 0.130551,0.107439 0.176777,0.176776 0.07309,0.109633 0.103688,0.243922 0.176776,0.353554 0.04622,0.06934 0.130552,0.107439 0.176777,0.176777 0.07309,0.109632 0.08361,0.260383 0.176777,0.353553 0.09317,0.09317 0.243921,0.103688 0.353553,0.176777 0.06934,0.04622 0.117851,0.117851 0.176777,0.176776 0.05893,0.05893 0.130551,0.107439 0.176776,0.176777 0.146177,0.219265 0.207377,0.487842 0.353554,0.707107 0.04623,0.06934 0.130551,0.107439 0.176776,0.176776 0.07309,0.109633 0.103689,0.243922 0.176777,0.353554 0.04622,0.06934 0.130552,0.107439 0.176777,0.176777 0.171742,0.257613 0.110361,0.368202 0.353553,0.53033 0.109633,0.07309 0.243921,0.103688 0.353554,0.176776 0.02389,0.01593 0.337258,0.345406 0.353553,0.353554 0.176777,0.08839 0.353553,-0.176777 0.53033,0 0.08333,0.08333 -0.03727,0.24175 0,0.353553 0.117259,0.351777 0.164992,0.0825 0.353554,0.176777 0.07453,0.03727 0.117851,0.117851 0.176776,0.176777 0.05893,0.05893 0.117851,0.117851 0.176777,0.176776 0.117851,0.117851 0.235702,0.235702 0.353553,0.353554 0.05893,0.05892 0.102241,0.139509 0.176777,0.176776 0.0527,0.02635 0.124072,-0.02635 0.176777,0 0.07453,0.03727 0.102241,0.139509 0.176776,0.176777 0.05271,0.02635 0.117852,0 0.176777,0 0.05893,0 0.117851,0 0.176777,0 0.176776,0 0.353553,0 0.53033,0 0.294628,0 0.589256,0 0.883883,0 0.176777,0 0.358832,0.04287 0.53033,0 0.08085,-0.02021 0.09772,-0.150424 0.176777,-0.176777 0.111804,-0.03727 0.235702,0 0.353554,0 0.294627,0 0.589255,0 0.883883,0 0.176777,0 0.353553,0 0.53033,0 0.117851,0 0.239221,0.02858 0.353553,0 0.127828,-0.03196 0.224351,-0.150936 0.353554,-0.176776 0.173344,-0.03467 0.353553,0 0.53033,0 0.294628,0 0.589256,0 0.883883,0 0.05893,0 0.13511,0.04167 0.176777,0 0.365757,-0.365758 -0.558925,0.0143 0.176777,-0.353554 0.0527,-0.02635 0.117851,0 0.176777,0 0.05893,0 0.117851,0 0.176776,0 0.05893,0 0.124072,0.02635 0.176777,0 0.270747,-0.135373 0.138242,-0.315019 0.353553,-0.53033 0.04167,-0.04167 0.117851,0 0.176777,0 0.117851,0 0.24175,0.03727 0.353553,0 0.07906,-0.02635 0.117852,-0.117851 0.176777,-0.176777 0.05893,-0.05893 0.117851,-0.117851 0.176777,-0.176776 0.117851,-0.117851 0.261103,-0.214879 0.353553,-0.353554 0.03269,-0.04903 -0.04167,-0.13511 0,-0.176776 0.04167,-0.04167 0.127748,0.03269 0.176777,0 0.138675,-0.09245 0.204482,-0.279018 0.353553,-0.353554 0.10541,-0.0527 0.248144,0.0527 0.353554,0 0.149071,-0.07454 0.214878,-0.261103 0.353553,-0.353553 0.02795,-0.01863 0.301742,0.01727 0.353553,0 0.125,-0.04167 0.235703,-0.117851 0.353554,-0.176777 0.117851,-0.05893 0.243921,-0.103688 0.353553,-0.176777 0.06934,-0.04622 0.117851,-0.117851 0.176777,-0.176776 0.117851,-0.117851 0.235702,-0.235702 0.353553,-0.353554 0.05893,-0.05893 0.107439,-0.130551 0.176777,-0.176776 0.109632,-0.07309 0.260384,-0.08361 0.353553,-0.176777 0.04167,-0.04167 -0.02635,-0.124072 0,-0.176777 0.03727,-0.07454 0.117852,-0.117851 0.176777,-0.176776 0.05893,-0.05893 0.107439,-0.130552 0.176777,-0.176777 0.117851,-0.05893 0.235702,-0.117851 0.353553,-0.176777 0,-0.05893 -0.04167,-0.13511 0,-0.176776 0.365757,-0.365758 -0.0143,0.558925 0.353554,-0.176777 0.02635,-0.0527 -0.01863,-0.120875 0,-0.176777 0.213622,-0.640867 0.08387,-0.125811 0.353553,-0.53033 0.07309,-0.109632 0.103688,-0.243921 0.176777,-0.353553 0.04622,-0.06934 0.117851,-0.117851 0.176776,-0.176777 0.05893,-0.05893 0.117851,-0.117851 0.176777,-0.176777 0.05893,-0.05892 0.139509,-0.102241 0.176777,-0.176776 0.02635,-0.05271 0,-0.117852 0,-0.176777 0.05893,-0.117851 0.108986,-0.240569 0.176776,-0.353554 0.08147,-0.135788 0.472604,-0.652976 0.530331,-0.883883 0.02858,-0.114332 -0.02858,-0.239221 0,-0.353553 0.03196,-0.127828 0.150936,-0.224351 0.176776,-0.353554 0.03467,-0.173344 0,-0.353553 0,-0.53033 0,-0.412479 0,-0.824958 0,-1.237437 0,-0.176776 0,-0.353553 0,-0.53033 0,-0.176777 -0.03467,-0.356986 0,-0.53033 0.02584,-0.129203 0.176777,-0.221792 0.176777,-0.353553 0,-0.08333 -0.176777,-0.09344 -0.176777,-0.176777 0,-0.131762 0.14482,-0.225726 0.176777,-0.353553 0.02858,-0.114333 0,-0.235703 0,-0.353554 0,-0.117851 0,-0.235702 0,-0.353553 0,-0.176777 -0.03467,-0.356986 0,-0.53033 0.02584,-0.129203 0.13511,-0.228554 0.176777,-0.353554 0.01863,-0.0559 -0.01863,-0.120875 0,-0.176776 0.04167,-0.125 0.144819,-0.225726 0.176776,-0.353554 0.02858,-0.114332 0,-0.235702 0,-0.353553 0,-0.294628 0,-0.589256 0,-0.883884 0,-1.119585 0,-2.239171 0,-3.358757 0,-0.412479 0,-0.824958 0,-1.237437 0,-0.117851 0,-0.235702 0,-0.353553 0,-0.05893 0.02635,-0.124072 0,-0.176777 -0.03727,-0.07454 -0.139509,-0.102241 -0.176776,-0.176776 -0.02635,-0.05271 0,-0.117852 0,-0.176777 0,-0.117851 0,-0.235702 0,-0.353554 0,-0.05893 -0.04167,-0.13511 0,-0.176776 0.04167,-0.04167 0.13511,0.04167 0.176776,0 0.04167,-0.04167 -0.05893,-0.176777 0,-0.176777 0.05893,0 0,0.117851 0,0.176777 0,0.117851 0,0.235702 0,0.353553 0,0.942809 0,1.885618 0,2.828427 0,0.294628 0,0.589256 0,0.883884 0,0.05893 -0.01863,0.120875 0,0.176776 0.04167,0.125 0.117851,0.235703 0.176777,0.353554 0,0.176777 -0.03467,0.356986 0,0.53033 0.02584,0.129203 0.14482,0.225726 0.176777,0.353553 0.02858,0.114333 -0.02858,0.239221 0,0.353554 0.03196,0.127827 0.150936,0.22435 0.176776,0.353553 0.03467,0.173344 0,0.353553 0,0.53033 0,0.53033 0,1.06066 0,1.59099 0,0.176777 -0.02906,0.355959 0,0.530331 0.03063,0.183803 0.146143,0.346526 0.176777,0.53033 0.02906,0.174371 0,0.353553 0,0.53033 0,0.471404 0,0.942809 0,1.414213 0,0.117851 -0.02311,0.237991 0,0.353554 0.183926,0.919627 0.117851,0.176776 0.353553,0.883883 0.148787,0.446359 -0.359048,-0.184103 0.176777,0.53033 0.1,0.133334 0.267804,0.210638 0.353554,0.353554 0.09587,0.159784 0.06497,0.381259 0.176776,0.53033 0.707107,0.942809 0.05893,-0.648182 0.53033,0.53033 0.438367,0.166828 0.09995,0.476618 0.176777,0.707107 0.04167,0.125 0.127842,0.231215 0.176777,0.353553 0.0692,0.173011 0.107572,0.357319 0.176776,0.53033 0.04894,0.122338 0.117852,0.235702 0.176777,0.353553 0.05893,0.117852 0.117851,0.235703 0.176777,0.353554 0.117851,0.235702 0.249746,0.464891 0.353553,0.707107 0.146805,0.342545 0.215144,0.714637 0.353554,1.06066 0.484746,1.211865 -0.222701,-0.956229 0.353553,1.06066 0.293147,1.026015 0.04062,0.101549 0.353553,0.883883 0.0692,0.173012 0.117852,0.353554 0.176777,0.530331 0.05893,0.176776 0.146143,0.346526 0.176777,0.53033 0.02906,0.174371 0,0.353553 0,0.53033 0,0.294628 0,0.589255 0,0.883883 0,0.294628 0,0.589256 0,0.883884 0,0.176776 0.03467,0.356986 0,0.53033 -0.02584,0.129203 -0.13511,0.228553 -0.176777,0.353553 -0.01863,0.0559 0.01863,0.120875 0,0.176777 -0.04167,0.125 -0.14482,0.225726 -0.176777,0.353553 -0.02858,0.114333 0,0.235702 0,0.353554 0,0.176776 0,0.353553 0,0.53033 0,0.176776 0.06565,0.366197 0,0.53033 -0.0619,0.154746 -0.279017,0.204482 -0.353553,0.353553 -0.108653,0.217307 -0.09995,0.476618 -0.176777,0.707107 -0.0017,0.0052 -0.350096,0.698465 -0.353553,0.707107 -0.06921,0.173011 -0.09344,0.363663 -0.176777,0.53033 -0.03727,0.07454 -0.117851,0.117851 -0.176776,0.176777 -0.117852,0.117851 -0.253554,0.22022 -0.353554,0.353553 -0.07906,0.105409 -0.117851,0.235702 -0.176777,0.353553 -0.05893,0.117851 -0.08361,0.260384 -0.176776,0.353554 -0.09317,0.09317 -0.248144,0.09772 -0.353554,0.176776 -0.133333,0.1 -0.235702,0.235703 -0.353553,0.353554 -0.05893,0.05893 -0.117851,0.117851 -0.176777,0.176776 -0.117851,0.117852 -0.223408,0.249438 -0.353553,0.353554 -0.165903,0.132722 -0.380099,0.203322 -0.53033,0.353553 -0.04167,0.04167 0.02635,0.124072 0,0.176777 -0.0081,0.01629 -0.337625,0.329661 -0.353554,0.353553 -0.07309,0.109633 -0.08361,0.260384 -0.176776,0.353554 -0.365758,0.365757 0.0143,-0.558926 -0.353554,0.176776 -0.02635,0.0527 0,0.117852 0,0.176777 -0.117851,0.05893 -0.260384,0.08361 -0.353553,0.176777 -0.09317,0.09317 -0.08361,0.260384 -0.176777,0.353553 -0.09317,0.09317 -0.248144,0.09772 -0.353553,0.176777 -0.764611,0.764611 0.04683,0.0277 -0.707107,0.53033 -0.02389,0.01593 -0.337258,0.345406 -0.353553,0.353553 -0.10541,0.05271 -0.248144,-0.0527 -0.353554,0 -0.07453,0.03727 -0.102241,0.139509 -0.176776,0.176777 -0.02632,0.01316 -0.315493,-0.01269 -0.353554,0 -0.640867,0.213622 -0.125811,0.08387 -0.53033,0.353553 -0.219264,0.146177 -0.487842,0.207378 -0.707107,0.353554 -0.06934,0.04622 -0.102241,0.139509 -0.176776,0.176777 -0.05271,0.02635 -0.120875,-0.01863 -0.176777,0 -1.001561,0.50078 0.263523,-0.06588 -0.707107,0.176776 -0.127827,0.03196 -0.231216,0.127842 -0.353553,0.176777 -0.173012,0.0692 -0.349555,0.131583 -0.53033,0.176777 -0.05717,0.01429 -0.117851,0 -0.176777,0 -0.117851,0 -0.235702,0 -0.353553,0 -0.353554,0 -0.707107,0 -1.060661,0 -0.471404,0 -0.942809,0 -1.414213,0 -0.117851,0 -0.235702,0 -0.353554,0 -0.117851,0 -0.24175,0.03727 -0.353553,0 -0.07906,-0.02635 -0.102241,-0.139509 -0.176777,-0.176777 -0.0527,-0.02635 -0.117851,0 -0.176776,0 -0.294628,0 -0.589256,0 -0.883884,0 -0.589255,0 -1.178511,0 -1.767767,0 -2.180246,0 -4.360492,0 -6.540738,0 -1.119585,0 -2.239171,0 -3.358757,0 -0.294628,0 -0.589255,0 -0.883883,0 -0.05893,0 -0.13511,0.04167 -0.176777,0 -0.04167,-0.04167 0.04167,-0.13511 0,-0.176777 -0.365757,-0.365757 0.0143,0.558926 -0.353553,-0.176776 -0.121919,-0.243839 0.214086,-0.158122 -0.176777,-0.353554 -0.07374,-0.03687 -0.312399,0.04115 -0.353553,0 -0.04167,-0.04167 0.04167,-0.13511 0,-0.176777 -0.04167,-0.04167 -0.117852,0 -0.176777,0 -0.05893,0 -0.124072,-0.02635 -0.176777,0 -0.149071,0.07454 -0.204482,0.279018 -0.353553,0.353554 -0.05271,0.02635 -0.13511,-0.04167 -0.176777,0 -0.09317,0.09317 -0.103688,0.243921 -0.176777,0.353553 -0.09245,0.138675 -0.261103,0.214879 -0.353553,0.353554 -0.07309,0.109632 -0.08361,0.260384 -0.176777,0.353553 -0.108288,0.108289 -0.462643,0.150493 -0.53033,0.353553 -0.03727,0.111804 0.03727,0.24175 0,0.353554 -0.02635,0.07906 -0.117851,0.117851 -0.176776,0.176777 -0.05893,0.05892 -0.130552,0.107439 -0.176777,0.176776 -0.07309,0.109632 -0.103689,0.243921 -0.176777,0.353554 -0.04622,0.06934 -0.130552,0.107439 -0.176777,0.176776 -0.07309,0.109633 -0.08361,0.260384 -0.176776,0.353554 -0.09317,0.09317 -0.260384,0.08361 -0.353554,0.176776 -0.05135,0.05135 0.04788,0.281743 0,0.353554 -0.09245,0.138675 -0.253553,0.22022 -0.353553,0.353553 -0.07906,0.105409 -0.103689,0.243921 -0.176777,0.353554 -0.04622,0.06934 -0.130551,0.107439 -0.176776,0.176776 -0.07309,0.109633 -0.103689,0.243921 -0.176777,0.353554 -0.04622,0.06934 -0.139509,0.102241 -0.176777,0.176776 -0.02635,0.05271 0,0.117851 0,0.176777 0,0.05893 0,0.117851 0,0.176777 0,0.117851 0.03727,0.24175 0,0.353553 -0.02635,0.07906 -0.117851,0.117851 -0.176776,0.176777 -0.117852,0.117851 -0.235703,0.235702 -0.353554,0.353553 -0.05893,0.05893 -0.130552,0.107439 -0.176777,0.176777 -0.07309,0.109632 -0.08361,0.260384 -0.176776,0.353553 -0.04167,0.04167 -0.13511,-0.04167 -0.176777,0 -0.09317,0.09317 -0.103688,0.243921 -0.176777,0.353554 -0.04622,0.06934 -0.126776,0.11011 -0.176776,0.176776 -0.0035,0.0047 -0.70476,1.057726 -0.707107,1.060661 -0.104116,0.130144 -0.261103,0.214878 -0.353554,0.353553 -0.146176,0.219264 -0.18485,0.504663 -0.353553,0.707107 -0.136013,0.163215 -0.380099,0.203322 -0.53033,0.353553 -0.288297,0.288297 -0.344336,0.558394 -0.53033,0.883884 -0.17047,0.298321 -0.33974,0.597997 -0.53033,0.883883 -0.196456,0.294684 -0.567433,0.8075 -0.883884,1.06066 -0.165902,0.132722 -0.397608,0.187651 -0.53033,0.353554 -0.116405,0.145506 -0.07341,0.375286 -0.176776,0.53033 -0.03269,0.04903 -0.124073,-0.02635 -0.176777,0 -0.07454,0.03727 -0.117851,0.117851 -0.176777,0.176776 -0.05892,0.05893 -0.130552,0.10744 -0.176777,0.176777 -0.07309,0.109632 -0.103688,0.243921 -0.176776,0.353554 -0.04622,0.06934 -0.117851,0.117851 -0.176777,0.176776 -0.117851,0.117851 -0.261103,0.214879 -0.353553,0.353554 -0.03269,0.04903 0.04167,0.13511 0,0.176776 -0.04167,0.04167 -0.13511,-0.04167 -0.176777,0 -0.09317,0.09317 -0.09772,0.248144 -0.176777,0.353554 -0.1,0.133333 -0.235702,0.235702 -0.353553,0.353553 -0.733881,0.733881 1.032955,-1.070222 -0.53033,0.883884 -0.08231,0.102888 -0.260384,0.08361 -0.353554,0.176776 -0.09317,0.09317 -0.103688,0.243921 -0.176776,0.353554 -0.09245,0.138675 -0.261104,0.214878 -0.353554,0.353553 -0.0087,0.01311 -0.346958,0.698313 -0.353553,0.707107 -0.1,0.133333 -0.253553,0.22022 -0.353553,0.353553 -0.07906,0.105409 -0.08361,0.260384 -0.176777,0.353554 -0.09317,0.09317 -0.248144,0.09772 -0.353554,0.176776 -1.093299,0.819975 -0.106745,0.03671 -0.353553,0.53033 -0.03727,0.07454 -0.117851,0.117852 -0.176777,0.176777 -0.05892,0.05893 -0.107439,0.130552 -0.176776,0.176777 -0.109633,0.07309 -0.260384,0.08361 -0.353554,0.176776 -0.09317,0.09317 -0.09772,0.248145 -0.176776,0.353554 -0.1,0.133333 -0.235703,0.235702 -0.353554,0.353553 -0.05892,0.05893 -0.139509,0.102241 -0.176776,0.176777 -0.02635,0.05271 0.02635,0.124072 0,0.176777 -0.07454,0.149071 -0.279018,0.204482 -0.353554,0.353553 -0.02635,0.05271 0.02635,0.124072 0,0.176777 -0.03727,0.07453 -0.139509,0.102241 -0.176777,0.176776 -0.03687,0.07374 0.04115,0.312399 0,0.353554 -0.08333,0.08333 -0.27022,-0.08333 -0.353553,0 -0.04167,0.04167 -0.04167,0.13511 0,0.176777 0.04167,0.04167 0.13511,0.04167 0.176777,0 0.04167,-0.04167 0,-0.117852 0,-0.176777 0,-0.176777 0,-0.353554 0,-0.53033 0,-0.05893 0,-0.117851 0,-0.176777 0,-0.117851 -0.03727,-0.24175 0,-0.353553 0.02635,-0.07906 0.176776,-0.09344 0.176776,-0.176777 0,-0.320433 -0.21898,-0.328471 -0.353553,-0.53033 -0.07309,-0.109632 -0.103688,-0.243921 -0.176777,-0.353554 -0.04622,-0.06934 -0.117851,-0.117851 -0.176776,-0.176776 -0.05893,-0.05893 -0.117851,-0.117851 -0.176777,-0.176777 -0.05893,-0.05893 -0.102241,-0.139509 -0.176777,-0.176777 -0.0527,-0.02635 -0.13511,0.04167 -0.176776,0 -0.09317,-0.09317 -0.08361,-0.260383 -0.176777,-0.353553 -0.04167,-0.04167 -0.13511,0.04167 -0.176777,0 -0.09317,-0.09317 -0.08361,-0.260384 -0.176777,-0.353553 -0.09317,-0.09317 -0.280465,-0.06714 -0.353553,-0.176777 -0.06537,-0.09806 0.08333,-0.27022 0,-0.353553 -0.08333,-0.08333 -0.235702,0 -0.353553,0 -0.117851,0 -0.248144,0.0527 -0.353554,0 -0.0527,-0.02635 0.04167,-0.135111 0,-0.176777 -0.09317,-0.09317 -0.260384,-0.08361 -0.353553,-0.176777 -0.04167,-0.04167 0.0527,-0.150424 0,-0.176777 -0.105409,-0.0527 -0.24175,0.03727 -0.353553,0 -0.07906,-0.02635 -0.10744,-0.130551 -0.176777,-0.176776 -0.109632,-0.07309 -0.243921,-0.103689 -0.353554,-0.176777 -0.06934,-0.04622 -0.107439,-0.130552 -0.176776,-0.176777 -0.109633,-0.07309 -0.243921,-0.103688 -0.353554,-0.176776 -0.06934,-0.04622 -0.107439,-0.130552 -0.176776,-0.176777 -0.600937,-0.400625 -0.09481,-0.0237 -0.707107,-0.176777 -0.127828,-0.03196 -0.228554,-0.13511 -0.353554,-0.176776 -0.0559,-0.01863 -0.13511,0.04167 -0.176776,0 -0.04167,-0.04167 0,-0.117852 0,-0.176777 0,-0.301322 -0.01863,-0.316286 0.176776,-0.707107 0.03727,-0.07454 0.126777,-0.11011 0.176777,-0.176777 0.127476,-0.169967 0.235702,-0.353553 0.353554,-0.53033 0.117851,-0.176776 0.244244,-0.348148 0.353553,-0.53033 0.06779,-0.112984 0.117851,-0.235702 0.176777,-0.353553 0.05893,-0.117851 0.117851,-0.235702 0.176776,-0.353554 0.05893,-0.117851 0.13511,-0.228553 0.176777,-0.353553 0.01863,-0.0559 -0.01863,-0.120875 0,-0.176777 0.04167,-0.125 0.103689,-0.243921 0.176777,-0.353553 0.04622,-0.06934 0.150424,-0.09772 0.176776,-0.176777 0.03727,-0.111803 -0.03727,-0.24175 0,-0.353553 0.02635,-0.07906 0.117852,-0.117851 0.176777,-0.176777 0.05893,-0.05892 0.130552,-0.107439 0.176777,-0.176777 0.07309,-0.109632 0.103688,-0.243921 0.176777,-0.353553 0.04623,-0.06934 0.117851,-0.117851 0.176776,-0.176777 0.05893,-0.05893 0.117851,-0.117851 0.176777,-0.176776 0.05892,-0.05893 0.139509,-0.102241 0.176777,-0.176777 0.02635,-0.0527 -0.04167,-0.13511 0,-0.176777 0.04167,-0.04167 0.13511,0.04167 0.176776,0 0.04167,-0.04167 -0.02635,-0.124072 0,-0.176776 0.07454,-0.149072 0.279018,-0.204483 0.353554,-0.353554 0.02635,-0.0527 0,-0.117851 0,-0.176776"
       transform="translate(0,952.36218)"
       id="path2985"
       style="fill:none;stroke:#000000;stroke-width:1px;stroke-linecap:butt;stroke-linejoin:miter;stroke-opacity:1" />
    <path
       d="m 33.587572,57.927146 c -0.05893,0.05893 -0.150424,0.09772 -0.176777,0.176777 -0.03727,0.111804 0,0.235702 0,0.353554 0,0.176776 0,0.353553 0,0.53033 0,0.117851 0.03727,0.24175 0,0.353553 -0.02635,0.07906 -0.150424,0.09772 -0.176776,0.176777 -0.03727,0.111803 0.02858,0.239221 0,0.353553 -0.03196,0.127828 -0.14482,0.225726 -0.176777,0.353553 -0.02858,0.114333 0,0.235703 0,0.353554 0,0.117851 0,0.235702 0,0.353553 0,0.471405 0,0.942809 0,1.414214 0,0.235702 0,0.471404 0,0.707107 0,0.117851 -0.03727,0.24175 0,0.353553 0.02635,0.07906 0.139509,0.102241 0.176777,0.176777 0.02635,0.0527 0,0.117851 0,0.176776 0,0.05893 0,0.117852 0,0.176777"
       transform="translate(0,952.36218)"
       id="path2987"
       style="fill:none;stroke:#000000;stroke-width:1px;stroke-linecap:butt;stroke-linejoin:miter;stroke-opacity:1" />
    <path
       d="m 27.577165,61.639457 c 0,0.824958 0,1.649916 0,2.474874 0,0.235702 0,0.471404 0,0.707107 0,0.176776 0.02193,0.354918 0,0.53033 -0.03727,0.298142 -0.14688,0.584912 -0.176777,0.883883 -0.02932,0.293166 0,0.589256 0,0.883884 0,0.589255 0,1.178511 0,1.767767 0,0.235702 0,0.471404 0,0.707106 0,0.294628 -0.07146,0.598053 0,0.883884 0.484297,1.93719 0.353553,-1.025329 0.353553,1.237437 0,0.707106 0,1.414213 0,2.12132 0,0.294628 0,0.589256 0,0.883884 0,0.05893 0.05893,0.176776 0,0.176776 -0.05893,0 0,-0.117851 0,-0.176776 0,-0.05893 0,-0.117852 0,-0.176777"
       transform="translate(0,952.36218)"
       id="path2989"
       style="fill:none;stroke:#000000;stroke-width:1px;stroke-linecap:butt;stroke-linejoin:miter;stroke-opacity:1" />
    <path
       d="m 24.041631,72.422835 c 0,0.235703 0,0.471405 0,0.707107 0,0.05893 0.02635,0.124072 0,0.176777 -0.03727,0.07454 -0.139509,0.102241 -0.176777,0.176777 -0.02635,0.0527 0,0.117851 0,0.176776 0,0.05893 0,0.117851 0,0.176777 0,0.235702 0,0.471405 0,0.707107 0,0.117851 0,0.235702 0,0.353553 0,0.05893 0.04167,0.13511 0,0.176777 -0.235702,0.235702 -0.176777,-0.294628 -0.176777,0.176777"
       transform="translate(0,952.36218)"
       id="path2991"
       style="fill:none;stroke:#000000;stroke-width:1px;stroke-linecap:butt;stroke-linejoin:miter;stroke-opacity:1" />
    <path
       d="m 43.133514,46.613438 c -0.229482,0.458963 -0.176777,0.221792 -0.176777,0.707107 0,0.117851 0.02858,0.239221 0,0.353553 -0.03196,0.127828 -0.150936,0.224351 -0.176777,0.353553 -0.03467,0.173344 0.03467,0.356987 0,0.530331 -0.02584,0.129202 -0.127841,0.231215 -0.176776,0.353553 -0.0692,0.173011 -0.09344,0.363663 -0.176777,0.53033 -0.03727,0.07454 -0.150424,0.09772 -0.176777,0.176777 -0.03727,0.111803 0,0.235702 0,0.353553 0,0.117851 0,0.235702 0,0.353554 0,0.117851 0.02858,0.239221 0,0.353553 -0.03196,0.127827 -0.14482,0.225726 -0.176776,0.353553 -0.02858,0.114333 0,0.235703 0,0.353554 0,0.176776 0,0.353553 0,0.53033 0,0.690569 0.0527,0.01866 -0.176777,0.707107 -0.01269,0.03806 0.01316,0.327235 0,0.353553 -0.03727,0.07454 -0.139509,0.102241 -0.176777,0.176777 -0.02635,0.0527 0,0.117851 0,0.176776 0,0.05893 0.05893,0.176777 0,0.176777 -0.05892,0 0,-0.117851 0,-0.176777"
       transform="translate(0,952.36218)"
       id="path2993"
       style="fill:none;stroke:#000000;stroke-width:1px;stroke-linecap:butt;stroke-linejoin:miter;stroke-opacity:1" />
    <path
       d="m 42.426407,51.209632 c 0.25,-0.07322 -0.125,-0.40533 0,-0.53033 0.09317,-0.09317 0.243921,-0.103689 0.353553,-0.176777 0.20246,-0.134973 0.246215,-0.315652 0.353554,-0.53033 0.05893,-0.117851 0.127841,-0.231216 0.176776,-0.353553 0.0692,-0.173012 0.06497,-0.381259 0.176777,-0.53033 0.07906,-0.10541 0.260384,-0.08361 0.353554,-0.176777 0.04167,-0.04167 -0.01863,-0.120875 0,-0.176777 0.04167,-0.125 0.13511,-0.228553 0.176776,-0.353553 0.01863,-0.0559 -0.02635,-0.124072 0,-0.176777 0.03727,-0.07453 0.117851,-0.117851 0.176777,-0.176777 0.05893,-0.05893 0.102241,-0.139508 0.176777,-0.176776 0.0527,-0.02635 0.13511,0.04167 0.176776,0 0.09317,-0.09317 0.103689,-0.243921 0.176777,-0.353554 0.09245,-0.138675 0.261103,-0.214878 0.353553,-0.353553 0.07309,-0.109632 0.08361,-0.260384 0.176777,-0.353553 0.04167,-0.04167 0.124072,0.02635 0.176777,0 0.07454,-0.03727 0.102241,-0.139509 0.176776,-0.176777 0.0527,-0.02635 0.124073,0.02635 0.176777,0 0.07454,-0.03727 0.117851,-0.117851 0.176777,-0.176777 0.05892,-0.05893 0.117851,-0.117851 0.176777,-0.176776 0.05893,-0.05893 0.102241,-0.139509 0.176776,-0.176777 0.0527,-0.02635 0.124072,0.02635 0.176777,0 0.07454,-0.03727 0.107439,-0.130552 0.176777,-0.176777 0.109632,-0.07309 0.260384,-0.08361 0.353553,-0.176777 0.04167,-0.04167 -0.04167,-0.13511 0,-0.176776 0.04167,-0.04167 0.117851,0 0.176777,0 0.05892,0 0.117851,0 0.176776,0 0.117852,0 0.24175,0.03727 0.353554,0 0.07906,-0.02635 0.117851,-0.117851 0.176777,-0.176777"
       transform="translate(0,952.36218)"
       id="path2995"
       style="fill:none;stroke:#000000;stroke-width:1px;stroke-linecap:butt;stroke-linejoin:miter;stroke-opacity:1" />
  </g>
</svg>
