<?xml version="1.0" encoding="UTF-8" standalone="no"?>
<!-- Created with Inkscape (http://www.inkscape.org/) -->

<svg
   xmlns:svg="http://www.w3.org/2000/svg"
   xmlns="http://www.w3.org/2000/svg"
   version="1.1"
   width="100"
   height="100"
   id="svg2">
  <defs
     id="defs4" />
  <g
     transform="translate(0,-952.36218)"
     id="layer1">
    <path
       d="m 38.00699,8.9600018 c -0.117852,0.058925 -0.228554,0.13511 -0.353554,0.1767766 -0.0559,0.018634 -0.117851,0 -0.176777,0 -0.117851,0 -0.235702,0 -0.353553,0 -0.117851,0 -0.239221,0.028583 -0.353553,0 -0.417145,-0.1042861 -0.259195,-0.2887546 -0.707107,-0.1767766 -0.127828,0.031957 -0.228553,0.13511 -0.353553,0.1767766 -0.0559,0.018634 -0.117852,0 -0.176777,0 -0.176777,0 -0.353554,0 -0.53033,0 -0.471405,0 -0.942809,0 -1.414214,0 -0.117851,0 -0.235702,0 -0.353553,0 -0.176777,0 -0.356986,-0.034669 -0.53033,0 -0.129203,0.025841 -0.225726,0.1448199 -0.353554,0.1767767 -0.114332,0.028583 -0.235702,0 -0.353553,0 -0.117851,0 -0.235702,0 -0.353553,0 -0.176777,0 -0.353554,0 -0.530331,0 -0.05893,0.058926 -0.09772,0.1504244 -0.176776,0.1767767 -0.111804,0.037268 -0.235703,0 -0.353554,0 -0.412479,0 -0.824958,0 -1.237437,0 -0.05892,0 -0.117851,0 -0.176776,0 -0.05893,0 -0.13511,-0.041667 -0.176777,0 -0.04167,0.041667 0.04167,0.1351101 0,0.1767767 -0.04167,0.041667 -0.124072,-0.026352 -0.176777,0 -0.390863,0.1954315 -0.05486,0.1097152 -0.176776,0.3535535 -0.367851,0.735702 0.0122,-0.1889807 -0.353554,0.176777 -0.04167,0.04167 0.04167,0.13511 0,0.176776 -0.04167,0.04167 -0.13511,-0.04167 -0.176776,0 -0.04167,0.04167 0,0.117851 0,0.176777 0,0.05893 0,0.117851 0,0.176777 0,0.05893 0.04167,0.13511 0,0.176776 -0.04167,0.04167 -0.13511,-0.04167 -0.176777,0 -0.138191,0.138191 0.153765,0.30753 0.176777,0.353554 0.02635,0.0527 0,0.117851 0,0.176776 0,0.05893 0,0.117852 0,0.176777 0,0.05893 -0.02635,0.124072 0,0.176777 0.03727,0.07453 0.139509,0.102241 0.176776,0.176777 0.0527,0.105409 -0.0527,0.248144 0,0.353553 0.160948,0.321895 0.134099,0.103625 0.353554,0.176777 0.125,0.04167 0.243921,0.103688 0.353553,0.176776 0.06934,0.04622 0.117851,0.117851 0.176777,0.176777 0.05893,0.05893 0.130551,0.107439 0.176776,0.176777 0.07309,0.109632 0.08361,0.260384 0.176777,0.353553 0.04167,0.04167 0.120875,-0.01863 0.176777,0 0.125,0.04167 0.225726,0.14482 0.353553,0.176777 0.114333,0.02858 0.235703,0 0.353554,0 0.05893,0 0.117851,0 0.176776,0 0.117851,0 0.239221,-0.02858 0.353554,0 0.127827,0.03196 0.225726,0.14482 0.353553,0.176777 0.114333,0.02858 0.239221,-0.02858 0.353554,0 0.03468,0.0087 0.677969,0.347725 0.707106,0.353553 0.173344,0.03467 0.353554,0 0.53033,0 0.235703,0 0.471405,0 0.707107,0 0.235702,0 0.473225,-0.02923 0.707107,0 0.24108,0.03014 0.465636,0.149947 0.707107,0.176777 0.292826,0.03254 0.591531,-0.03654 0.883883,0 0.1849,0.02311 0.345864,0.150424 0.53033,0.176776 0.233334,0.03333 0.471405,0 0.707107,0 0.353553,0 0.707107,0 1.06066,0 1.119586,0 2.239172,0 3.358757,0 0.235703,0 0.473774,-0.03333 0.707107,0 0.184466,0.02635 0.343991,0.176777 0.53033,0.176777 0.242957,0 0.466027,-0.146642 0.707107,-0.176777 0.233882,-0.02923 0.471405,0 0.707107,0 0.589256,0 1.178511,0 1.767767,0 0.176777,0 0.353553,0 0.53033,0 0.117851,0 0.237991,0.02311 0.353553,0 0.182721,-0.03654 0.349555,-0.131583 0.53033,-0.176776 0.353554,-0.08839 0,0.176776 0.530331,0 0.07906,-0.02635 0.09772,-0.150425 0.176776,-0.176777 0.223607,-0.07454 0.4835,0.07454 0.707107,0 0.07906,-0.02635 0.117851,-0.117851 0.176777,-0.176777 0.05892,-0.05893 0.176776,-0.09344 0.176776,-0.176776 0,-0.08333 -0.176776,-0.09344 -0.176776,-0.176777 0,-0.05893 0.13511,0.04167 0.176776,0 0.04167,-0.04167 0,-0.117851 0,-0.176777 0,-0.353553 0,-0.707107 0,-1.06066 0,-0.05893 0.02635,-0.124072 0,-0.176777 -0.03727,-0.07454 -0.139509,-0.102241 -0.176776,-0.176776 -0.02635,-0.0527 0.04167,-0.13511 0,-0.176777 -0.04167,-0.04167 -0.13511,0.04167 -0.176777,0 -0.04116,-0.04115 0.03687,-0.279811 0,-0.353554 -0.03727,-0.07453 -0.117851,-0.117851 -0.176777,-0.176776 -0.05893,-0.05893 -0.09772,-0.150425 -0.176776,-0.176777 -0.111804,-0.03727 -0.239221,0.02858 -0.353554,0 -0.127827,-0.03196 -0.235702,-0.117851 -0.353553,-0.176777 -0.117851,-0.05893 -0.248144,-0.09772 -0.353554,-0.176776 -0.133333,-0.1 -0.210637,-0.267804 -0.353553,-0.353554 -0.356741,-0.214044 -0.524489,-0.176776 -0.883883,-0.176776 -0.117852,0 -0.24175,0.03727 -0.353554,0 -0.07906,-0.02635 -0.09772,-0.150425 -0.176777,-0.176777 -0.804737,0 -0.01011,0.08333 -0.53033,-0.1767768 -0.0527,-0.026352 -0.117851,0 -0.176776,0 -0.117851,0 -0.235703,0 -0.353554,0 -0.05893,0 -0.120875,0.018634 -0.176776,0 -0.125,-0.041667 -0.225726,-0.1448198 -0.353554,-0.1767767 -0.114332,-0.028583 -0.24175,0.037268 -0.353553,0 -0.07906,-0.026352 -0.102241,-0.1395089 -0.176777,-0.1767767 -0.02632,-0.013159 -0.315493,0.012687 -0.353553,0 -0.125,-0.041667 -0.225726,-0.1448198 -0.353554,-0.1767767 -0.114332,-0.028583 -0.235702,0 -0.353553,0 -0.589256,0 -1.178511,0 -1.767767,0 -0.176777,0 -0.356986,0.034669 -0.53033,0 C 39.999107,9.2877146 39.898129,9.183043 39.774757,9.1367784 39.425807,9.0059225 39.06765,8.9010762 38.00699,8.9600018 z"
       transform="translate(0,952.36218)"
       id="path2816"
       style="fill:none;stroke:#000000;stroke-width:1px;stroke-linecap:butt;stroke-linejoin:miter;stroke-opacity:1" />
    <path
       d="m 34.294679,16.914953 c 0,0.05893 0.02635,0.124072 0,0.176777 -0.03727,0.07454 -0.117851,0.117851 -0.176777,0.176776 -0.176776,0.176777 -0.353553,0.353554 -0.53033,0.530331 -0.05893,0.05893 -0.130552,0.107439 -0.176777,0.176776 -0.07309,0.109632 -0.103688,0.243921 -0.176776,0.353554 -0.284518,0.426776 -0.05893,-0.05893 -0.53033,0.176776 -0.149072,0.07454 -0.253554,0.22022 -0.353554,0.353554 -0.07906,0.105409 -0.103688,0.243921 -0.176776,0.353553 -0.539893,0.809839 0.287313,-0.751404 -0.353554,0.53033 -0.05892,0.117851 -0.08361,0.260384 -0.176776,0.353554 -0.150232,0.150231 -0.380099,0.203322 -0.530331,0.353553 -0.154462,0.154463 -0.284517,0.745812 -0.353553,0.883883 -0.387947,0.775895 -0.397188,0.30768 -0.707107,1.237437 -0.03727,0.111804 0.03727,0.24175 0,0.353554 -0.08333,0.25 -0.249746,0.464891 -0.353553,0.707106 -0.0734,0.171273 -0.103374,0.359058 -0.176777,0.530331 -0.103807,0.242216 -0.235702,0.471404 -0.353553,0.707106 -0.144263,0.288526 -0.298943,0.556219 -0.353554,0.883884 -0.02906,0.174371 0.02906,0.355958 0,0.53033 -0.03063,0.183804 -0.125585,0.351161 -0.176776,0.53033 -0.06675,0.233608 -0.117851,0.471405 -0.176777,0.707107 -0.05893,0.235702 -0.117851,0.471404 -0.176777,0.707107 -0.05893,0.235702 -0.136835,0.467456 -0.176776,0.707106 -0.01938,0.116248 0.02311,0.237991 0,0.353554 -0.03654,0.18272 -0.146143,0.346526 -0.176777,0.53033 -0.02906,0.174371 0.02906,0.355958 0,0.53033 -0.03063,0.183804 -0.125586,0.351161 -0.176777,0.53033 -0.06675,0.233608 -0.09995,0.476618 -0.176776,0.707107 -0.04167,0.125 -0.14482,0.225726 -0.176777,0.353553 -0.02858,0.114333 0,0.235702 0,0.353554 0,0.117851 0,0.235702 0,0.353553 0,0.471404 0,0.942809 0,1.414214 0,0.117851 0,0.235702 0,0.353553 0,0.176777 0.03467,0.356986 0,0.53033 -0.02584,0.129203 -0.127842,0.231216 -0.176777,0.353553 -0.0692,0.173012 -0.140232,0.34761 -0.176777,0.53033 -0.0053,0.0266 0.0054,0.685664 0,0.707107 -0.03196,0.127828 -0.176776,0.221792 -0.176776,0.353554 0,0.731514 0.544628,-0.573224 0.176776,0.53033 -0.02635,0.07906 -0.139508,0.102241 -0.176776,0.176776 -0.02635,0.05271 0,0.117852 0,0.176777 0,0.117851 0.03727,0.24175 0,0.353554 -0.02635,0.07906 -0.150425,0.09772 -0.176777,0.176776 -0.03727,0.111804 0,0.235702 0,0.353554 0,0.294627 0,0.589255 0,0.883883 0,0.05893 0,0.117851 0,0.176777 0,0.05893 0.02635,0.124072 0,0.176776 -0.03727,0.07454 -0.139509,0.102242 -0.176777,0.176777 -0.02635,0.05271 0,0.117851 0,0.176777 0,0.117851 0,0.235702 0,0.353553 0,0.05893 0.02635,0.124072 0,0.176777 -0.03727,0.07454 -0.150424,0.09772 -0.176776,0.176777 -0.03727,0.111803 0.03727,0.24175 0,0.353553 -0.02635,0.07906 -0.150425,0.09772 -0.176777,0.176777 -0.03727,0.111803 0.02858,0.239221 0,0.353553 -0.03196,0.127828 -0.14482,0.225726 -0.176777,0.353554 -0.02858,0.114332 0,0.235702 0,0.353553 0,0.353553 0,0.707107 0,1.06066 0,0.824958 0,1.649916 0,2.474874 0,0.766032 0,1.532065 0,2.298097 0,0.176777 0,0.353553 0,0.53033 0,0.05893 0,0.117851 0,0.176777 0,0.05892 -0.02635,0.124072 0,0.176776 0.03727,0.07454 0.139509,0.102241 0.176777,0.176777 0.02635,0.05271 0,0.117851 0,0.176777 0,0.117851 0.03727,0.24175 0,0.353553 -0.02635,0.07906 -0.139509,0.102241 -0.176777,0.176777 -0.02635,0.0527 0,0.117851 0,0.176777 0,0.05892 0,0.117851 0,0.176776 0,0.117851 -0.03727,0.24175 0,0.353554 0.02635,0.07906 0.150425,0.09772 0.176777,0.176776 0.03727,0.111804 0,0.235703 0,0.353554 0,0.05893 0,0.117851 0,0.176776 0,0.05893 -0.04167,0.13511 0,0.176777 0.04167,0.04167 0.13511,-0.04167 0.176777,0 0.04167,0.04167 -0.01863,0.120875 0,0.176777 0.08,0.24 0.273553,0.467107 0.353553,0.707107 0.03727,0.111803 -0.03727,0.24175 0,0.353553 0.04167,0.125 0.13511,0.228553 0.176777,0.353553 0.01269,0.03806 -0.01316,0.327236 0,0.353554 0.03727,0.07454 0.139509,0.102241 0.176776,0.176776 0.02635,0.0527 -0.04167,0.13511 0,0.176777 0.04167,0.04167 0.13511,-0.04167 0.176777,0 0.04167,0.04167 0,0.117851 0,0.176777 0,0.117851 0,0.235702 0,0.353553 0,0.117851 -0.02858,0.239221 0,0.353554 0.297681,1.190722 0.0027,0.0027 0.353554,0.353553 0.04115,0.04116 -0.03687,0.279811 0,0.353553 0.03727,0.07454 0.150424,0.09772 0.176776,0.176777 0.03727,0.111803 0,0.235702 0,0.353553 0,0.117852 0,0.235703 0,0.353554 0,0.353553 0,0.707107 0,1.06066"
       transform="translate(0,952.36218)"
       id="path2818"
       style="fill:none;stroke:#000000;stroke-width:1px;stroke-linecap:butt;stroke-linejoin:miter;stroke-opacity:1" />
    <path
       d="m 33.764349,17.268506 c 0.235702,0 0.471404,0 0.707107,0 0.05892,0 0.150424,0.05271 0.176776,0 0.05271,-0.105409 -0.08333,-0.27022 0,-0.353553 0.08333,-0.08333 0.235703,0 0.353554,0 0.117851,0 0.235702,0 0.353553,0 0.05893,0 0.120875,0.01863 0.176777,0 1.280467,-0.426822 -0.278708,0.05096 0.53033,-0.353553 0.0527,-0.02635 0.127748,0.03269 0.176777,0 0.138675,-0.09245 0.214878,-0.261104 0.353553,-0.353554 0.04903,-0.03269 0.117851,0 0.176777,0 0.176776,0 0.356986,0.03467 0.53033,0 0.129203,-0.02584 0.22435,-0.150936 0.353553,-0.176776 0.183859,-0.03677 0.761311,0.02451 0.883884,0 0.354992,0.04057 0.576034,-0.276591 0.883883,-0.353554 0.114333,-0.02858 0.235702,0 0.353554,0 0.471404,0 0.942809,0 1.414213,0 0.412479,0 0.824958,0 1.237437,0 0.117851,0 0.235702,0 0.353553,0 0.117851,0 0.237306,-0.01937 0.353554,0 0.23965,0.03994 0.467456,0.136835 0.707107,0.176777 0.116247,0.01937 0.23799,-0.02311 0.353553,0 0.18272,0.03654 0.34761,0.140232 0.53033,0.176777 0.115563,0.02311 0.24175,-0.03727 0.353553,0 0.07906,0.02635 0.09772,0.150424 0.176777,0.176776 0.111803,0.03727 0.235702,0 0.353553,0 0.117852,0 0.235703,0 0.353554,0 0.117851,0 0.248144,-0.0527 0.353553,0 0.353554,0.176777 0.265165,0.353554 0.53033,0.53033 0.219265,0.146177 0.487843,0.207377 0.707107,0.353554 0.06934,0.04623 0.09772,0.150424 0.176777,0.176776 0.111803,0.03727 0.24175,-0.03727 0.353553,0 0.07906,0.02635 0.09772,0.150425 0.176777,0.176777 0.111803,0.03727 0.24175,-0.03727 0.353553,0 0.07906,0.02635 0.117851,0.117851 0.176777,0.176777 0.176777,0.176777 0.353553,0.353553 0.53033,0.53033 0.540694,0.540693 -0.325848,-0.28858 0.53033,0.353553 0.133333,0.1 0.249438,0.223409 0.353554,0.353554 0.320806,0.206682 0.324174,0.609009 0.53033,0.883883 0.1,0.133334 0.249437,0.223409 0.353553,0.353554 0.132722,0.165902 0.235702,0.353553 0.353553,0.53033 0.355071,0.532606 0.437966,0.609441 0.707107,1.237437 0.0734,0.171272 0.117851,0.353553 0.176777,0.53033 0.194373,0.583118 0.248491,0.780076 0.53033,1.414213 0.107027,0.240811 0.235702,0.471405 0.353553,0.707107 0.117852,0.235702 0.28964,0.451452 0.353554,0.707107 0.05717,0.228665 -0.02923,0.473224 0,0.707107 0.03014,0.24108 0.142417,0.466592 0.176776,0.707106 0.025,0.175 0,0.353554 0,0.53033 0,0.235703 0,0.471405 0,0.707107 0,0.941177 0,0.473037 0,1.414214 0,0.176776 -0.025,0.35533 0,0.53033 0.03436,0.240514 0.142418,0.466592 0.176777,0.707107 0.025,0.175 0,0.353553 0,0.53033 0,0.235702 0,0.471404 0,0.707106 0,0.530331 0,1.060661 0,1.590991 0,0.589255 0,1.178511 0,1.767767 0,0.117851 0,0.235702 0,0.353553 0,0.176777 -0.02906,0.355959 0,0.53033 0.03063,0.183804 0.117851,0.353554 0.176777,0.53033 0.05893,0.176777 0.117851,0.353554 0.176777,0.53033 0.05893,0.176777 0.107572,0.357319 0.176776,0.53033 0.04894,0.122338 0.150936,0.224351 0.176777,0.353554 0.03467,0.173344 -0.0559,0.362625 0,0.53033 0.06719,0.201556 0.269862,0.335049 0.353553,0.53033 0.09571,0.223312 0.09147,0.47962 0.176777,0.707107 0.09253,0.246744 0.28964,0.451452 0.353553,0.707107 0.05717,0.228664 -0.06475,0.480473 0,0.707106 0.05837,0.204285 0.269862,0.33505 0.353554,0.53033 0.09571,0.223313 0.110031,0.473499 0.176777,0.707107 0.05119,0.17917 0.150424,0.345864 0.176776,0.53033 0.03333,0.233334 -0.03333,0.473774 0,0.707107 0.02635,0.184466 0.125586,0.351161 0.176777,0.53033 0.06675,0.233609 0.09147,0.47962 0.176777,0.707107 0.09253,0.246744 0.249746,0.464891 0.353553,0.707107 0.114636,0.267483 0.312778,0.992785 0.353553,1.237437 0.01937,0.116247 -0.01937,0.237305 0,0.353553 0.03994,0.239651 0.142418,0.466592 0.176777,0.707107 0.025,0.175 0,0.353553 0,0.53033 0,0.235702 0,0.471404 0,0.707107 0,0.176776 -0.02906,0.355958 0,0.53033 0.03063,0.183803 0.140233,0.347609 0.176777,0.53033 0.02311,0.115562 0,0.235702 0,0.353553 0,0.353554 0,0.707107 0,1.06066 0,0.176777 -0.025,0.35533 0,0.53033 0.03436,0.240515 0.142417,0.466593 0.176776,0.707107 0.025,0.175 0,0.353554 0,0.53033 0,0.117851 0,0.235703 0,0.353554 0,0.176776 -0.02906,0.355958 0,0.53033 0.03063,0.183803 0.131583,0.349555 0.176777,0.53033 0.01429,0.05717 0,0.117851 0,0.176777 0,0.117851 0,0.235702 0,0.353553 0,0.176777 0,0.353553 0,0.53033 0,0.294628 0,0.589256 0,0.883884 0,0.176776 -0.04287,0.358831 0,0.53033 0.02021,0.08085 0.150425,0.09772 0.176777,0.176776 0.03727,0.111804 0,0.235703 0,0.353554 0,0.176776 0,0.353553 0,0.53033 0,0.05892 -0.02635,0.124072 0,0.176777 0.03727,0.07454 0.139509,0.102241 0.176777,0.176776 0.02635,0.0527 0,0.117851 0,0.176777 0,0.05892 0,0.117851 0,0.176777 0,0.05893 -0.02635,0.124072 0,0.176776 0.03727,0.07454 0.117851,0.117851 0.176776,0.176777"
       transform="translate(0,952.36218)"
       id="path2820"
       style="fill:none;stroke:#000000;stroke-width:1px;stroke-linecap:butt;stroke-linejoin:miter;stroke-opacity:1" />
    <path
       d="m 40.481863,19.389827 c 0.05893,-0.235702 0.348573,-0.878903 0.176777,-0.707107 -0.224382,0.224382 -0.211642,0.60006 -0.353553,0.883883 -0.03727,0.07454 -0.139509,0.102242 -0.176777,0.176777 -0.02635,0.05271 0,0.117851 0,0.176777 0,0.117851 0,0.235702 0,0.353553 0,0.412479 0,0.824958 0,1.237437 0,0.117851 0,0.235702 0,0.353554 0,0.05892 -0.04167,0.13511 0,0.176776 0.04167,0.04167 0.13511,-0.04167 0.176777,0 0.04167,0.04167 0,0.117851 0,0.176777 0,0.05892 -0.01863,0.120875 0,0.176777 0.04167,0.125 0.13511,0.228553 0.176776,0.353553 0.01863,0.0559 0,0.117851 0,0.176777 0,0.05893 0,0.117851 0,0.176776 0,0.05893 0.02635,0.124072 0,0.176777 -0.218443,0.436887 -0.176776,-0.06102 -0.176776,0.353553"
       transform="translate(0,952.36218)"
       id="path2822"
       style="fill:none;stroke:#000000;stroke-width:1px;stroke-linecap:butt;stroke-linejoin:miter;stroke-opacity:1" />
    <path
       d="m 40.65864,17.09173 c 0.08333,-0.08333 -0.08333,-0.27022 0,-0.353554 0.04167,-0.04167 0.13511,0.04167 0.176777,0 0.04167,-0.04167 0,-0.117851 0,-0.176776 0,-0.26011 0.04167,-0.13511 -0.176777,-0.353554"
       transform="translate(0,952.36218)"
       id="path2824"
       style="fill:none;stroke:#000000;stroke-width:1px;stroke-linecap:butt;stroke-linejoin:miter;stroke-opacity:1" />
    <path
       d="m 34.825009,29.466098 c 0.353553,0 0.707107,0 1.06066,0 1.001735,0 2.003469,0 3.005204,0 0.235702,0 0.471405,0 0.707107,0 0.05893,0 0.176777,-0.05892 0.176777,0 0,0.05893 -0.117852,0 -0.176777,0 -0.117851,0.235702 -0.255683,0.462432 -0.353554,0.707107 -0.02188,0.05471 0,0.117851 0,0.176777 0,0.117851 0,0.235702 0,0.353553 0,0.294628 0,0.589256 0,0.883884 0,0.05892 0,0.117851 0,0.176776 0,0.05893 0.02635,0.124073 0,0.176777 -0.03727,0.07454 -0.139508,0.102241 -0.176776,0.176777 -0.02635,0.0527 0,0.117851 0,0.176777 0,0.05893 0,0.117851 0,0.176776 0,0.117851 0.0527,0.248144 0,0.353554 -0.07454,0.149071 -0.253554,0.22022 -0.353554,0.353553 -0.07906,0.105409 -0.117851,0.235702 -0.176776,0.353553 -0.05893,0.117852 -0.13511,0.228554 -0.176777,0.353554 -0.01863,0.0559 0.04167,0.13511 0,0.176777 -0.04167,0.04167 -0.117851,0 -0.176777,0 -0.05892,0 -0.13511,0.04167 -0.176776,0 -0.04167,-0.04167 0.04167,-0.13511 0,-0.176777 -0.04167,-0.04167 -0.117852,0 -0.176777,0 -0.05893,0 -0.117851,0 -0.176777,0 -0.176777,0 -0.358831,0.04287 -0.53033,0 -0.08084,-0.02021 -0.09772,-0.150425 -0.176777,-0.176777 -0.111803,-0.03727 -0.235702,0 -0.353553,0 -0.117851,0 -0.235702,0 -0.353553,0 -0.176777,0 -0.358832,0.04287 -0.53033,0 -0.08085,-0.02021 -0.102242,-0.139509 -0.176777,-0.176777 -0.05271,-0.02635 -0.117851,0 -0.176777,0 -0.117851,0 -0.235702,0 -0.353553,0 -0.05893,0 -0.124072,0.02635 -0.176777,0 -0.07454,-0.03727 -0.117851,-0.117851 -0.176777,-0.176776 -0.05893,-0.05893 -0.139509,-0.102241 -0.176776,-0.176777 -0.03687,-0.07374 0.04115,-0.312399 0,-0.353553 -0.235703,-0.235703 -0.176777,0.294627 -0.176777,-0.176777 0,-0.117851 0,-0.235702 0,-0.353553 0,-0.05893 0.04167,-0.13511 0,-0.176777 -0.04167,-0.04167 -0.13511,0.04167 -0.176777,0 -0.04167,-0.04167 0.04167,-0.13511 0,-0.176777 -0.04167,-0.04167 -0.13511,0.04167 -0.176776,0 -0.04167,-0.04167 0,-0.117851 0,-0.176777 0,-0.05893 -0.02635,-0.124072 0,-0.176776 0.308925,-0.617851 0.02441,0.329145 0.53033,-0.176777 0.05892,-0.05892 -0.139509,-0.102241 -0.176777,-0.176777 -0.02635,-0.0527 0.02635,-0.124072 0,-0.176776 -0.03727,-0.07454 -0.139509,-0.102241 -0.176777,-0.176777 -0.0527,-0.105409 0.0527,-0.248144 0.707107,-1.414214 z"
       transform="translate(0,952.36218)"
       id="path2826"
       style="fill:none;stroke:#000000;stroke-width:1px;stroke-linecap:butt;stroke-linejoin:miter;stroke-opacity:1" />
    <path
       d="m 39.774757,29.996429 c 0.05893,0 0.13511,-0.04167 0.176776,0 0.04167,0.04167 -0.04167,0.13511 0,0.176776 0.04116,0.04115 0.279811,-0.03687 0.353554,0 0.07453,0.03727 0.102241,0.139509 0.176776,0.176777 0.05271,0.02635 0.117851,0 0.176777,0 0.05893,0 0.117851,0 0.176777,0 0.05893,0 0.124072,-0.02635 0.176776,0 0.07454,0.03727 0.102241,0.139509 0.176777,0.176777 0.05271,0.02635 0.117851,0 0.176777,0 0.05893,0 0.13511,0.04167 0.176776,0 0.04167,-0.04167 -0.04167,-0.13511 0,-0.176777 0.04167,-0.04167 0.117852,0 0.176777,0 0.05893,0 0.117851,0 0.176777,0 0.648181,0 1.296362,0 1.944544,0"
       transform="translate(0,952.36218)"
       id="path2828"
       style="fill:none;stroke:#000000;stroke-width:1px;stroke-linecap:butt;stroke-linejoin:miter;stroke-opacity:1" />
    <path
       d="m 42.24963,30.526759 c 0,0.235702 0,0.471404 0,0.707106 0,0.05893 -0.04167,0.13511 0,0.176777 0.04167,0.04167 0.13511,-0.04167 0.176777,0 0.04167,0.04167 0,0.117851 0,0.176777 0,0.176776 0,0.353553 0,0.53033 0,0.05892 0,0.117851 0,0.176777 0,0.05893 0.02635,0.124072 0,0.176776 -0.03727,0.07454 -0.139509,0.102241 -0.176777,0.176777 -0.02635,0.0527 0,0.117851 0,0.176777 0,0.117851 0,0.235702 0,0.353553 0,0.117851 0,0.235702 0,0.353553 0,0.05893 -0.02635,0.124073 0,0.176777 0.03727,0.07454 0.150425,0.09772 0.176777,0.176777 0.03727,0.111803 0,0.235702 0,0.353553 0,0.235702 0,0.471405 0,0.707107 0,0.05893 0,0.117851 0,0.176777 0,0.05892 -0.04167,0.13511 0,0.176776 0.04167,0.04167 0.13511,0.04167 0.176777,0 0.04167,-0.04167 -0.04167,-0.13511 0,-0.176776 0.04115,-0.04116 0.27981,0.03687 0.353553,0 0.07454,-0.03727 0.102241,-0.139509 0.176777,-0.176777 0.0527,-0.02635 0.13511,0.04167 0.176776,0 0.04167,-0.04167 -0.04167,-0.13511 0,-0.176777 0.04167,-0.04167 0.117852,0 0.176777,0 0.117851,0 0.235702,0 0.353554,0 0.235702,0 0.471404,0 0.707106,0 0.05893,0 0.117851,0 0.176777,0 0.05893,0 0.124072,-0.02635 0.176777,0 0.07454,0.03727 0.102241,0.139509 0.176776,0.176777 0.0527,0.02635 0.117852,0 0.176777,0 0.05893,0 0.117851,0 0.176777,0 0.05893,0 0.117851,0 0.176776,0 0.117852,0 0.248145,0.0527 0.353554,0 0.0527,-0.02635 -0.02635,-0.124072 0,-0.176777 0.03727,-0.07453 0.139509,-0.102241 0.176777,-0.176776 0.02635,-0.05271 -0.04167,-0.13511 0,-0.176777 0.365757,-0.365757 -0.0143,0.558925 0.353553,-0.176777 0.02635,-0.0527 -0.02635,-0.124072 0,-0.176776 0.269546,-0.539092 0.140142,0.323314 0.353553,-0.530331 0.02858,-0.114332 -0.03727,-0.24175 0,-0.353553 0.01316,-0.03948 0.32818,-0.302806 0.353554,-0.353553 0.0527,-0.10541 -0.05271,-0.248144 0,-0.353554 0.03727,-0.07454 0.139509,-0.102241 0.176776,-0.176776 0.02635,-0.0527 0,-0.117852 0,-0.176777 0,-0.05893 0,-0.117851 0,-0.176777 0,-0.235702 0,-0.471404 0,-0.707107 0,-0.176776 0,-0.353553 0,-0.53033 0,-0.05892 0,-0.117851 0,-0.176776 0,-0.05893 0.02635,-0.124072 0,-0.176777 -0.03727,-0.07454 -0.117851,-0.117851 -0.176776,-0.176777 -0.05893,-0.05892 -0.117851,-0.117851 -0.176777,-0.176776 -0.05893,-0.05893 -0.139509,-0.102242 -0.176777,-0.176777 -0.02635,-0.05271 0.02635,-0.124072 0,-0.176777 -0.195431,-0.390863 -0.109715,-0.05486 -0.353553,-0.176777 -0.07454,-0.03727 -0.102241,-0.139508 -0.176777,-0.176776 -0.0527,-0.02635 -0.117851,0 -0.176776,0 -0.05893,0 -0.117852,0 -0.176777,0 -0.235702,0 -0.471405,0 -0.707107,0 -0.05893,0 -0.117851,0 -0.176777,0 -0.05893,0 -0.13511,0.04167 -0.176776,0 -0.04167,-0.04167 0.04167,-0.13511 0,-0.176777 -0.04167,-0.04167 -0.117851,0 -0.176777,0 -0.414573,0 0.08333,-0.04167 -0.353553,0.176777 -0.0527,0.02635 -0.117852,0 -0.176777,0 -0.176777,0 -0.353553,0 -0.53033,0 -0.117851,0 -0.245231,-0.04642 -0.353554,0 -0.315811,0.135347 -0.589255,0.353553 -1.06066,1.237437 z"
       transform="translate(0,952.36218)"
       id="path2830"
       style="fill:none;stroke:#000000;stroke-width:1px;stroke-linecap:butt;stroke-linejoin:miter;stroke-opacity:1" />
    <path
       d="m 49.497475,30.703535 c 0.05892,0 0.13511,0.04167 0.176776,0 0.235703,-0.235702 -0.375,-0.169628 0.176777,-0.353553 0.111804,-0.03727 0.24175,0.03727 0.353554,0 0.07906,-0.02635 0.117851,-0.117851 0.176776,-0.176777 0.05893,-0.05892 0.117851,-0.117851 0.176777,-0.176776 0.05893,-0.05893 0.107439,-0.130552 0.176777,-0.176777 0.161483,-0.107656 0.429,-0.150894 0.53033,-0.353554 0.02635,-0.0527 -0.04167,-0.13511 0,-0.176776 0.08333,-0.08333 0.353553,0.117851 0.353553,0 0,-0.08333 -0.117851,-0.117851 -0.176777,-0.176777"
       transform="translate(0,952.36218)"
       id="path2832"
       style="fill:none;stroke:#000000;stroke-width:1px;stroke-linecap:butt;stroke-linejoin:miter;stroke-opacity:1" />
    <path
       d="m 36.592776,29.642875 -3.712311,-0.53033"
       transform="translate(0,952.36218)"
       id="path2834"
       style="fill:none;stroke:#000000;stroke-width:1px;stroke-linecap:butt;stroke-linejoin:miter;stroke-opacity:1" />
    <path
       d="m 39.244426,25.223458 c -0.05892,0.05892 -0.102241,0.139509 -0.176776,0.176776 -0.05271,0.02635 -0.117851,0 -0.176777,0 -0.117851,0 -0.235702,0 -0.353553,0 -0.05893,0 -0.124072,-0.02635 -0.176777,0 -0.07454,0.03727 -0.102241,0.139509 -0.176777,0.176777 -0.0527,0.02635 -0.117851,0 -0.176776,0 -0.05893,0 -0.117852,0 -0.176777,0 -0.117851,0 -0.24175,-0.03727 -0.353554,0 -0.07906,0.02635 -0.102241,0.139509 -0.176776,0.176777 -0.105409,0.0527 -0.248144,-0.0527 -0.353554,0 -0.07453,0.03727 -0.102241,0.139509 -0.176776,0.176777 -0.05271,0.02635 -0.117851,0 -0.176777,0 -0.117851,0 -0.248144,-0.05271 -0.353553,0 -0.05271,0.02635 0.02635,0.124072 0,0.176776 -0.03727,0.07454 -0.117852,0.117851 -0.176777,0.176777 -0.05893,0.05893 -0.117851,0.117851 -0.176777,0.176777 -0.05893,0.05892 -0.130551,0.107439 -0.176776,0.176776 -0.07309,0.109633 -0.135111,0.228554 -0.176777,0.353554 -0.01863,0.0559 0.04167,0.13511 0,0.176776 -0.09317,0.09317 -0.260384,0.08361 -0.353554,0.176777 -0.04167,0.04167 0.02635,0.124072 0,0.176777 -0.03727,0.07454 -0.117851,0.117851 -0.176776,0.176776 -0.05893,0.05893 -0.102241,0.139509 -0.176777,0.176777 -0.05271,0.02635 -0.13511,-0.04167 -0.176777,0 -0.04167,0.04167 0.04167,0.13511 0,0.176777 -0.04167,0.04167 -0.13511,-0.04167 -0.176776,0 -0.04167,0.04167 0.04167,0.13511 0,0.176777 -0.08333,0.08333 -0.27022,-0.08333 -0.353554,0 -0.365757,0.365757 0.558926,-0.0143 -0.176776,0.353553 -0.0527,0.02635 -0.124073,-0.02635 -0.176777,0 -0.07454,0.03727 -0.102241,0.139509 -0.176777,0.176777 -0.0527,0.02635 -0.124072,-0.02635 -0.176777,0 -0.07453,0.03727 -0.102241,0.139509 -0.176776,0.176776 -0.05271,0.02635 -0.13511,-0.04167 -0.176777,0 -0.04167,0.04167 0.04167,0.13511 0,0.176777 -0.04167,0.04167 -0.124072,-0.02635 -0.176777,0 -0.735702,0.367851 0.188981,-0.0122 -0.176776,0.353553 -0.04167,0.04167 -0.13511,-0.04167 -0.176777,0 -0.04167,0.04167 0.04167,0.13511 0,0.176777 -0.04167,0.04167 -0.117851,0 -0.176777,0 -0.235294,0 -0.118259,0 -0.353553,0 -0.05893,0 -0.124072,-0.02635 -0.176777,0 -0.735702,0.367851 0.188981,-0.0122 -0.176776,0.353554 -0.04167,0.04167 -0.135111,-0.04167 -0.176777,0 -0.04167,0.04167 0.02635,0.124072 0,0.176776 -0.03727,0.07454 -0.139509,0.102241 -0.176777,0.176777 -0.02635,0.0527 0.02635,0.124072 0,0.176777 -0.03727,0.07454 -0.150424,0.09772 -0.176777,0.176776 -0.03727,0.111804 0.02858,0.239221 0,0.353554 0.106549,0.319955 -0.286367,0.328773 -0.353553,0.53033 -0.03727,0.111803 0.02858,0.239221 0,0.353553 -0.03196,0.127828 -0.14482,0.225726 -0.176777,0.353554 -0.02858,0.114332 0,0.235702 0,0.353553 0,0.117851 0,0.235702 0,0.353553 0,0.53033 0,1.060661 0,1.590991 0,0.176776 0,0.353553 0,0.53033 0,0.117851 0.02858,0.239221 0,0.353553 -0.03196,0.127828 -0.144819,0.225726 -0.176776,0.353553 -0.02858,0.114333 0,0.235703 0,0.353554 0,0.412479 0,0.824958 0,1.237437 0,0.117851 0.02858,0.239221 0,0.353553 -0.03196,0.127828 -0.150936,0.224351 -0.176777,0.353554 -0.03467,0.173343 0,0.353553 0,0.53033 0,0.353553 0,0.707106 0,1.06066 0,0.53033 0,1.06066 0,1.59099 0,0.176777 0,0.353553 0,0.53033 0,0.05893 -0.01863,0.120875 0,0.176777 0.04167,0.125 0.14482,0.225726 0.176777,0.353553 0.02858,0.114333 0,0.235702 0,0.353554 0,0.176776 0,0.353553 0,0.53033 0,0.471404 0,0.942809 0,1.414213 0,0.353554 0,0.707107 0,1.06066 0,0.05893 0,0.117852 0,0.176777 0,0.05893 0.03269,0.127748 0,0.176777 -0.09245,0.138675 -0.261104,0.214878 -0.353554,0.353553 -0.03269,0.04903 0,0.117851 0,0.176777 0,0.176777 0,0.353553 0,0.53033 0,0.353553 0,0.707107 0,1.06066 0,0.117851 -0.02858,0.239221 0,0.353554 0.03196,0.127827 0.13511,0.228553 0.176777,0.353553 0.01863,0.0559 0,0.117851 0,0.176777 0,0.176776 0,0.353553 0,0.53033 0,0.117851 0,0.235702 0,0.353553 0,0.05893 0.02635,0.124072 0,0.176777 -0.03727,0.07453 -0.139509,0.102241 -0.176777,0.176777 -0.02635,0.0527 0,0.117851 0,0.176776 0,0.176777 0,0.353554 0,0.53033 0,0.05893 0.01863,0.120875 0,0.176777 -0.04167,0.125 -0.14482,0.225726 -0.176776,0.353553 -0.01066,0.04263 0.01082,0.674644 0,0.707107 -0.02635,0.07906 -0.176777,0.09344 -0.176777,0.176777 0,0.325732 0.267619,0.257804 0.176777,0.53033 -0.04167,0.125 -0.13511,0.228553 -0.176777,0.353553 -0.01863,0.0559 0,0.117851 0,0.176777 0,0.176777 0,0.353553 0,0.53033 0,0.648181 0,1.296363 0,1.944544 0,0.766032 0,1.532064 0,2.298097 0,0.235702 0,0.471404 0,0.707107 0,0.117851 -0.03727,0.24175 0,0.353553 0.02635,0.07906 0.150424,0.09772 0.176777,0.176777 0.03727,0.111803 0,0.235702 0,0.353553 0,0.176777 0,0.353553 0,0.53033 0,0.353554 0,0.707107 0,1.06066 0,0.117851 0.02858,0.239221 0,0.353554 -0.03196,0.127827 -0.150937,0.22435 -0.176777,0.353553 -0.03467,0.173344 0,0.353554 0,0.53033 0,0.05893 0,0.117851 0,0.176777 0,0.117851 0.0527,0.248144 0,0.353553 -0.02635,0.05271 -0.13511,-0.04167 -0.176777,0 -0.04167,0.04167 0,0.117851 0,0.176777 0,0.05893 0,0.117851 0,0.176777 0,0.05893 0.02635,0.124072 0,0.176776 -0.03727,0.07454 -0.139509,0.102241 -0.176777,0.176777 -0.02635,0.05271 0.04167,0.13511 0,0.176777 -0.04167,0.04167 -0.13511,0.04167 -0.176776,0 -0.04167,-0.04167 0,-0.117851 0,-0.176777"
       transform="translate(0,952.36218)"
       id="path2836"
       style="fill:none;stroke:#000000;stroke-width:1px;stroke-linecap:butt;stroke-linejoin:miter;stroke-opacity:1" />
    <path
       d="m 26.870058,57.396816 c 0.549816,-0.05253 0.02173,0.426968 0.176776,0.53033 0.155044,0.103363 0.381259,0.06497 0.530331,0.176777 0.105409,0.07906 0.103688,0.243921 0.176776,0.353554 0.04622,0.06934 0.117851,0.117851 0.176777,0.176776 0.05893,0.05893 0.117851,0.117851 0.176777,0.176777 0.05892,0.05892 0.139509,0.102241 0.176776,0.176777 0.02635,0.0527 -0.02635,0.124072 0,0.176776 0.03727,0.07454 0.139509,0.102241 0.176777,0.176777 0.02635,0.0527 0,0.117851 0,0.176777 0,0.117851 0,0.235702 0,0.353553 0,0.05893 -0.04167,0.13511 0,0.176777 0.04167,0.04167 0.117851,0 0.176777,0 0.05893,0.117851 0.13511,0.228553 0.176776,0.353553 0.01863,0.0559 0,0.117851 0,0.176777 0,0.117851 0,0.235702 0,0.353553 0,0.05893 -0.04167,0.13511 0,0.176777 0.04167,0.04167 0.13511,-0.04167 0.176777,0 0.04167,0.04167 -0.04167,0.13511 0,0.176777 0.04167,0.04167 0.117851,0 0.176777,0 0.117851,0 0.235702,0 0.353553,0"
       transform="translate(0,952.36218)"
       id="path2838"
       style="fill:none;stroke:#000000;stroke-width:1px;stroke-linecap:butt;stroke-linejoin:miter;stroke-opacity:1" />
    <path
       d="m 40.12831,25.930565 c 0.707107,0 1.414213,0 2.12132,0 0.176777,0 0.353554,0 0.53033,0 0.05893,0 0.120875,0.01863 0.176777,0 0.125,-0.04167 0.225726,-0.14482 0.353553,-0.176777 0.114333,-0.02858 0.235703,0 0.353554,0 0.05893,0 0.117851,0 0.176777,0 0.05893,0 0.13511,0.04167 0.176776,0 0.04167,-0.04167 -0.05893,-0.176777 0,-0.176777 0.08333,0 0.102241,0.139509 0.176777,0.176777 0.05271,0.02635 0.117851,0 0.176777,0 0.05893,0 0.117851,0 0.176776,0 0.176777,0 0.353554,0 0.53033,0 0.235703,0 0.471405,0 0.707107,0 0.05893,0 0.117851,0 0.176777,0 0.05892,0 0.124072,-0.02635 0.176777,0 0.149071,0.07454 0.204482,0.279018 0.353553,0.353553 0.0527,0.02635 0.13511,-0.04167 0.176777,0 0.04167,0.04167 -0.0527,0.150425 0,0.176777 0.105409,0.0527 0.24175,-0.03727 0.353553,0 0.07906,0.02635 0.102241,0.139509 0.176777,0.176777 0.0527,0.02635 0.13511,-0.04167 0.176776,0 0.04167,0.04167 -0.02635,0.124072 0,0.176776 0.03727,0.07454 0.139509,0.102241 0.176777,0.176777 0.02635,0.0527 -0.04167,0.13511 0,0.176777 0.04167,0.04167 0.13511,-0.04167 0.176777,0 0.04167,0.04167 0,0.117851 0,0.176776 0,0.05893 0,0.117852 0,0.176777 0,0.05893 -0.04167,0.13511 0,0.176777 0.04167,0.04167 0.150424,-0.0527 0.176777,0 0.0527,0.105409 0,0.235702 0,0.353553 0,0.05893 -0.04167,0.13511 0,0.176777 0.365757,0.365757 -0.0143,-0.558926 0.353553,0.176777 0.02635,0.0527 0,0.117851 0,0.176776 0,0.117851 0,0.235703 0,0.353554 0,0.05893 -0.02635,0.124072 0,0.176776 0.03727,0.07454 0.139509,0.102241 0.176777,0.176777 0.02635,0.0527 0,0.117851 0,0.176777 0,0.05893 0,0.117851 0,0.176776 0,0.176777 0,0.353554 0,0.530331 0,0.05893 -0.02635,0.124072 0,0.176776 0.03727,0.07454 0.117851,0.117851 0.176776,0.176777 0.117851,0.117851 0.235703,0.235702 0.353554,0.353553 0.05892,0.05893 0.139509,0.102241 0.176776,0.176777 0.02635,0.0527 0,0.117851 0,0.176777 0,0.294628 0,0.589255 0,0.883883 0,0.05893 -0.01863,0.120875 0,0.176777 0.04167,0.125 0.103689,0.243921 0.176777,0.353553 0.04622,0.06934 0.150424,0.09772 0.176777,0.176777 0.03727,0.111803 0,0.235702 0,0.353553 0,0.05893 -0.02635,0.124072 0,0.176777 0.03727,0.07454 0.139509,0.102241 0.176776,0.176777 0.02635,0.0527 0,0.117851 0,0.176776 0,0.117852 0,0.235703 0,0.353554 0,0.471404 0,0.942809 0,1.414213 0,0.294628 0,0.589256 0,0.883884 0,0.05893 -0.01863,0.120875 0,0.176777 0.04167,0.125 0.14482,0.225725 0.176777,0.353553 0.02858,0.114332 0,0.235702 0,0.353553 0,0.294628 0,0.589256 0,0.883884 0,0.766032 0,1.532065 0,2.298097 0,0.117851 0,0.235702 0,0.353553 0,0.176777 -0.03467,0.356987 0,0.53033 0.02584,0.129203 0.14482,0.225726 0.176777,0.353554 0.02858,0.114332 0,0.235702 0,0.353553 0,0.117851 0,0.235702 0,0.353554 0,0.176776 -0.02906,0.355958 0,0.53033 0.03063,0.183803 0.136354,0.348428 0.176777,0.53033 0.07775,0.349895 0.08984,0.712931 0.176776,1.06066 0.03196,0.127827 0.127842,0.231216 0.176777,0.353553 0.0692,0.173012 0.117851,0.353554 0.176777,0.53033 0.05893,0.176777 0.117851,0.353554 0.176776,0.53033 0.05893,0.176777 0.107572,0.357319 0.176777,0.530331 0.04894,0.122337 0.150936,0.22435 0.176777,0.353553 0.03467,0.173344 -0.025,0.35533 0,0.53033 0.03436,0.240515 0.146641,0.466027 0.176776,0.707107 0.02924,0.233882 -0.03333,0.473773 0,0.707107 0.06514,0.456006 0.201843,0.504606 0.353554,0.883883 0.0692,0.173011 0.146143,0.346526 0.176777,0.53033 0.02906,0.174372 0,0.353554 0,0.53033 0.05893,0.176777 0.140232,0.34761 0.176776,0.53033 0.02311,0.115563 -0.03727,0.24175 0,0.353554 0.02635,0.07906 0.130552,0.107439 0.176777,0.176776 0.07309,0.109633 0.117851,0.235703 0.176777,0.353554 0.05893,0.117851 0.127841,0.231216 0.176776,0.353553 0.06921,0.173012 0.09344,0.363664 0.176777,0.53033 0.03727,0.07454 0.150424,0.09772 0.176777,0.176777 0.03727,0.111803 -0.02858,0.239221 0,0.353553 0.03196,0.127828 0.13511,0.228554 0.176776,0.353554 0.01863,0.0559 0,0.117851 0,0.176776 0,0.176777 -0.03467,0.356987 0,0.530331 0.02584,0.129202 0.14482,0.225725 0.176777,0.353553 0.02858,0.114332 0,0.235702 0,0.353553 0,0.05893 0,0.117851 0,0.176777 0,0.294628 0,0.589256 0,0.883883 0,0.05893 0,0.117852 0,0.176777 0,0.117851 0.02311,0.237991 0,0.353554 -0.03654,0.18272 -0.131583,0.349554 -0.176777,0.53033 -0.01429,0.05717 0,0.117851 0,0.176776 0,0.176777 0.04288,0.358832 0,0.53033 -0.02021,0.08085 -0.139509,0.102242 -0.176776,0.176777 -0.02635,0.0527 0,0.117851 0,0.176777 0,0.235702 0,0.471404 0,0.707107 0,0.569035 0.04167,-0.301777 -0.176777,0.353553 -0.03727,0.111803 0,0.235702 0,0.353553 0,0.294628 0,0.589256 0,0.883884 0,0.05892 0,0.117851 0,0.176777 0,0.117851 0.03727,0.24175 0,0.353553 -0.02635,0.07906 -0.150424,0.09772 -0.176777,0.176777 -0.03727,0.111803 0,0.235702 0,0.353553 -0.117851,0.117851 -0.261103,0.214878 -0.353553,0.353553 -0.03269,0.04903 0,0.117852 0,0.176777 0,0.117851 0.03727,0.24175 0,0.353554 -0.01316,0.03948 -0.32818,0.302805 -0.353553,0.353553 -0.02635,0.05271 0,0.117851 0,0.176777 0,0.05893 0,0.117851 0,0.176776 0,0.235703 0,0.471405 0,0.707107 0,0.117851 0.0527,0.248144 0,0.353553 -0.02635,0.05271 -0.150425,-0.0527 -0.176777,0 -0.05271,0.10541 0,0.235703 0,0.353554 0,0.05893 0.02635,0.124072 0,0.176777 -0.03727,0.07453 -0.139509,0.102241 -0.176777,0.176776 -0.0527,0.10541 0.05271,0.248144 0,0.353554 -0.03727,0.07453 -0.139509,0.102241 -0.176777,0.176776 -0.02635,0.05271 0,0.117851 0,0.176777 0,0.176777 0,0.353553 0,0.53033"
       transform="translate(0,952.36218)"
       id="path2840"
       style="fill:none;stroke:#000000;stroke-width:1px;stroke-linecap:butt;stroke-linejoin:miter;stroke-opacity:1" />
    <path
       d="m 56.214989,58.634253 c -0.105409,0.0527 -0.248144,-0.0527 -0.353553,0 -0.07454,0.03727 -0.102241,0.139509 -0.176777,0.176777 -0.166667,0.08333 -0.363663,0.09344 -0.53033,0.176777 -0.07454,0.03727 -0.107439,0.130551 -0.176777,0.176776 -0.109632,0.07309 -0.243921,0.103689 -0.353553,0.176777 -0.06934,0.04622 -0.117851,0.117851 -0.176777,0.176777 -0.117851,0.117851 -0.214878,0.261103 -0.353553,0.353553 -0.04903,0.03269 -0.117851,0 -0.176777,0 -0.117851,0.117851 -0.249437,0.223409 -0.353553,0.353553 -0.876501,1.095626 0.02045,0.05771 -0.53033,0.883884 -0.04622,0.06934 -0.117851,0.117851 -0.176777,0.176777 -0.05893,0.05892 -0.09344,0.176776 -0.176777,0.176776 -0.216154,0 -0.39476,-0.312346 -0.53033,-0.176776 -0.542598,0.542598 0.103284,0.146985 -0.176776,0.707106 -0.105648,0.211295 -0.353554,-0.340482 -0.353554,0.176777 0,0.178257 0.33124,0.121859 0.176777,0.353554 -0.09245,0.138675 -0.261104,0.214878 -0.353554,0.353553 -0.03269,0.04903 0,0.117851 0,0.176777 -0.05892,0.05893 -0.117851,0.117851 -0.176776,0.176776 -0.05893,0.05893 -0.117851,0.117851 -0.176777,0.176777 -0.05893,0.05893 -0.139509,0.102241 -0.176777,0.176777 -0.02635,0.0527 0,0.117851 0,0.176776 0,0.05893 0,0.117852 0,0.176777 0,0.176777 0,0.353553 0,0.53033 0,0.05893 0.04167,0.13511 0,0.176777 -0.04167,0.04167 -0.117851,0 -0.176776,0"
       transform="translate(0,952.36218)"
       id="path2842"
       style="fill:none;stroke:#000000;stroke-width:1px;stroke-linecap:butt;stroke-linejoin:miter;stroke-opacity:1" />
    <path
       d="m 56.922096,58.457477 c -0.8662,0.433099 -0.147861,-0.05783 -0.353553,0.353553 -0.03727,0.07454 -0.102241,0.139509 -0.176777,0.176777 -0.235702,0.117851 -0.176777,-0.176777 -0.176777,0.176776"
       transform="translate(0,952.36218)"
       id="path2844"
       style="fill:none;stroke:#000000;stroke-width:1px;stroke-linecap:butt;stroke-linejoin:miter;stroke-opacity:1" />
    <path
       d="m 32.173359,32.471302 c 0,0.399381 -0.02635,-0.07906 0.176776,0.53033 0.01863,0.0559 0,0.117851 0,0.176777 0,0.117851 0,0.235702 0,0.353553 0,0.353554 0,0.707107 0,1.060661 0,1.178511 0,2.357022 0,3.535534 0,0.05892 0.01863,0.120875 0,0.176776 -0.203129,0.609387 -0.176776,0.13095 -0.176776,0.53033 0,0.05893 -0.01863,0.120875 0,0.176777 0.04167,0.125 0.13511,0.228553 0.176776,0.353553 0.01863,0.0559 -0.02635,0.124072 0,0.176777 0.03727,0.07454 0.139509,0.102241 0.176777,0.176777 0.03687,0.07374 -0.04116,0.312398 0,0.353553 0.04167,0.04167 0.13511,-0.04167 0.176777,0 0.04167,0.04167 0,0.117851 0,0.176777 0,0.117851 -0.02858,0.239221 0,0.353553 0.03196,0.127828 0.14482,0.225726 0.176776,0.353554 0.02858,0.114332 0,0.235702 0,0.353553 0,0.176777 0,0.353553 0,0.53033 0,0.05893 -0.02635,0.124072 0,0.176777 0.03727,0.07454 0.139509,0.102241 0.176777,0.176777 0.0527,0.105409 -0.05271,0.248144 0,0.353553 0.03727,0.07454 0.139509,0.102241 0.176777,0.176777 0.02635,0.0527 -0.02635,0.124072 0,0.176776 0.03727,0.07454 0.139509,0.102241 0.176776,0.176777 0.02635,0.05271 0,0.117851 0,0.176777 0,0.176776 0,0.353553 0,0.53033 0,0.05893 -0.01863,0.120875 0,0.176776 0.04167,0.125 0.135111,0.228554 0.176777,0.353554 0.03727,0.111803 -0.03727,0.24175 0,0.353553 0.426823,1.280468 -0.05097,-0.278707 0.353554,0.53033 0.02635,0.0527 -0.04167,0.13511 0,0.176777 0.04167,0.04167 0.13511,-0.04167 0.176776,0 0.04167,0.04167 -0.02635,0.124072 0,0.176777 0.03727,0.07453 0.139509,0.102241 0.176777,0.176776 0.02635,0.05271 0,0.117852 0,0.176777 0,0.05893 0,0.117851 0,0.176777 0,0.05892 -0.02635,0.124072 0,0.176777 0.03727,0.07454 0.117851,0.117851 0.176777,0.176776 0.05892,0.05893 0.107439,0.130552 0.176776,0.176777 0.109633,0.07309 0.260384,0.08361 0.353554,0.176777 0.04167,0.04167 -0.02635,0.124072 0,0.176776 0.03727,0.07454 0.117851,0.117851 0.176776,0.176777 0.05893,0.05893 0.10744,0.130552 0.176777,0.176777 0.109632,0.07309 0.228554,0.13511 0.353554,0.176776 0.0559,0.01863 0.13511,-0.04167 0.176776,0 0.04167,0.04167 -0.04167,0.13511 0,0.176777 0.04167,0.04167 0.13511,-0.04167 0.176777,0 0.04115,0.04115 -0.03687,0.279811 0,0.353553 0.07454,0.149072 0.279018,0.204483 0.353553,0.353554 0.02635,0.0527 -0.04167,0.13511 0,0.176777 0.04167,0.04167 0.117851,0 0.176777,0 0.117851,0 0.235702,0 0.353553,0 0.05893,0 0.13511,-0.04167 0.176777,0 0.04167,0.04167 0,0.117851 0,0.176776"
       transform="translate(0,952.36218)"
       id="path2846"
       style="fill:none;stroke:#000000;stroke-width:1px;stroke-linecap:butt;stroke-linejoin:miter;stroke-opacity:1" />
    <path
       d="m 48.613591,38.658487 c -0.05893,0.117851 -0.14482,0.225726 -0.176776,0.353553 -0.02858,0.114332 0,0.235702 0,0.353553 0,0.176777 0.02906,0.355959 0,0.53033 -0.03063,0.183804 -0.131583,0.349555 -0.176777,0.530331 -0.01429,0.05717 0.01863,0.120875 0,0.176776 -0.08333,0.25 -0.27022,0.457107 -0.353553,0.707107 -0.01863,0.0559 0,0.117851 0,0.176777 0,0.176776 0,0.353553 0,0.53033 0,0.117851 0.02858,0.239221 0,0.353553 -0.03196,0.127828 -0.135111,0.228554 -0.176777,0.353554 -0.01863,0.0559 0,0.117851 0,0.176776 0,0.117851 0,0.235703 0,0.353554 0,0.05893 0.02635,0.124072 0,0.176776 -0.03727,0.07454 -0.139509,0.102241 -0.176777,0.176777 -0.282353,0.564706 0.282353,-0.211152 0,0.353553 -0.03727,0.07454 -0.139509,0.102242 -0.176777,0.176777 -0.02635,0.0527 0.02635,0.124072 0,0.176777 -0.03727,0.07454 -0.139508,0.102241 -0.176776,0.176777 -0.02635,0.0527 0,0.117851 0,0.176776 0,0.05893 0,0.117851 0,0.176777 0,0.05893 0.02635,0.124072 0,0.176777 -0.03727,0.07454 -0.150425,0.09772 -0.176777,0.176776 -0.03727,0.111804 0,0.235703 0,0.353554 0,0.117851 0,0.235702 0,0.353553 0,0.05893 0.02635,0.124072 0,0.176777 -0.03727,0.07453 -0.139509,0.102241 -0.176777,0.176777 -0.02635,0.0527 0.04167,0.13511 0,0.176776 -0.04167,0.04167 -0.13511,-0.04167 -0.176776,0 -0.04115,0.04115 0.03687,0.279811 0,0.353554 -0.07454,0.149071 -0.279018,0.204482 -0.353554,0.353553 -0.02635,0.0527 0.04167,0.13511 0,0.176777 -0.04167,0.04167 -0.117851,0 -0.176776,0 -0.05893,0 -0.117852,0 -0.176777,0 -0.05893,0 -0.13511,-0.04167 -0.176777,0 -0.04167,0.04167 0.04167,0.13511 0,0.176776 -0.365757,0.365758 0.0143,-0.558925 -0.353553,0.176777 -0.03687,0.07374 0.04116,0.312399 0,0.353553 -0.04115,0.04116 -0.279811,-0.03687 -0.353554,0 -0.07454,0.03727 -0.102241,0.139509 -0.176776,0.176777 -0.0527,0.02635 -0.13511,-0.04167 -0.176777,0 -0.04167,0.04167 0.04167,0.13511 0,0.176777 -0.04167,0.04167 -0.124072,-0.02635 -0.176777,0 -0.07454,0.03727 -0.102241,0.139509 -0.176776,0.176777 -0.0527,0.02635 -0.117852,0 -0.176777,0 -0.05893,0 -0.117851,0 -0.176777,0 -0.235702,0 -0.471404,0 -0.707107,0 -0.176776,0 -0.353553,0 -0.53033,0 -0.05893,0 -0.13511,-0.04167 -0.176776,0 -0.04167,0.04167 0.05893,0.176776 0,0.176776 -0.08333,0 -0.102241,-0.139509 -0.176777,-0.176776 -0.0527,-0.02635 -0.117851,0 -0.176777,0 -0.05893,0 -0.117851,0 -0.176776,0 -0.294628,0 -0.589256,0 -0.883884,0"
       transform="translate(0,952.36218)"
       id="path2848"
       style="fill:none;stroke:#000000;stroke-width:1px;stroke-linecap:butt;stroke-linejoin:miter;stroke-opacity:1" />
    <path
       d="m 40.65864,34.592623 c -0.05893,-0.235703 -0.348573,-0.878903 -0.176777,-0.707107 0.391571,0.39157 0.353554,0.792629 0.353554,1.237437 0,0.05892 -0.02635,0.124072 0,0.176776 0.03727,0.07454 0.139509,0.102241 0.176776,0.176777 0.02635,0.0527 0,0.117851 0,0.176777 0,0.117851 0,0.235702 0,0.353553 0,0.05893 -0.04167,0.13511 0,0.176777 0.04167,0.04167 0.13511,-0.04167 0.176777,0 0.04116,0.04115 -0.03687,0.27981 0,0.353553 0.03727,0.07454 0.139509,0.102241 0.176777,0.176777 0.02635,0.05271 0,0.117851 0,0.176777 0,0.05892 0,0.117851 0,0.176776 0,0.117851 -0.03727,0.24175 0,0.353554 0.02635,0.07906 0.139509,0.102241 0.176776,0.176776 0.02635,0.05271 0,0.117852 0,0.176777 0,0.05893 0,0.117851 0,0.176777 0,0.235702 0,0.471404 0,0.707107 0,0.05893 0,0.117851 0,0.176776 0,0.05893 0.05893,0.176777 0,0.176777 -0.05893,0 0.04167,-0.13511 0,-0.176777 -0.04167,-0.04167 -0.117851,0 -0.176776,0 0,-0.05892 0.04167,-0.13511 0,-0.176776 -0.04167,-0.04167 -0.117851,0 -0.176777,0 -0.176777,0 -0.353553,0 -0.53033,0 -0.05893,0 -0.124072,0.02635 -0.176777,0 -0.07453,-0.03727 -0.102241,-0.139509 -0.176776,-0.176777 -0.05271,-0.02635 -0.117852,0 -0.176777,0 -0.05893,0 -0.117851,0 -0.176777,0 -0.235702,0 -0.471404,0 -0.707107,0"
       transform="translate(0,952.36218)"
       id="path2850"
       style="fill:none;stroke:#000000;stroke-width:1px;stroke-linecap:butt;stroke-linejoin:miter;stroke-opacity:1" />
    <path
       d="m 33.764349,42.194021 c 0.379207,0.758414 0.01125,-0.109254 0.176777,0.883883 0.03063,0.183804 0.140232,0.34761 0.176776,0.53033 0.02311,0.115563 -0.06537,0.255495 0,0.353553 0.07309,0.109633 0.280465,0.06714 0.353554,0.176777 0.06537,0.09806 0,0.235702 0,0.353554 0,0.05893 0,0.117851 0,0.176776 0,0.05893 -0.02635,0.124072 0,0.176777 0.03727,0.07454 0.139509,0.102241 0.176776,0.176777 0.02635,0.0527 0,0.117851 0,0.176776 0,0.05893 0,0.117851 0,0.176777"
       transform="translate(0,952.36218)"
       id="path2854"
       style="fill:none;stroke:#000000;stroke-width:1px;stroke-linecap:butt;stroke-linejoin:miter;stroke-opacity:1" />
    <path
       d="m 35.178562,42.901127 c 0.249667,0.114294 0.171574,0.34835 0.353554,0.53033 0.04167,0.04167 0.14409,-0.04903 0.176777,0 0.103362,0.155044 0.131582,0.349555 0.176776,0.53033 0.01429,0.05717 -0.04167,0.135111 0,0.176777 0.208345,0.208345 0.894171,0.286958 1.06066,0.353554 0.07737,0.03095 0.130552,0.107439 0.176777,0.176776 0.0087,0.01311 0.346958,0.698314 0.353553,0.707107 0.1,0.133333 0.279018,0.204482 0.353554,0.353553 0.0527,0.10541 -0.02858,0.239221 0,0.353554 0.03196,0.127827 0.13511,0.228553 0.176777,0.353553 0.01863,0.0559 -0.01863,0.120875 0,0.176777 0.135419,0.406258 0.07529,0.353553 0.353553,0.353553"
       transform="translate(0,952.36218)"
       id="path2856"
       style="fill:none;stroke:#000000;stroke-width:1px;stroke-linecap:butt;stroke-linejoin:miter;stroke-opacity:1" />
    <path
       d="m 39.244426,44.668894 c 0.217195,0.325792 -0.217194,0.381315 0,0.707107 0.07309,0.109632 0.235703,0.117851 0.353554,0.176777 0.117851,0.117851 0.267804,0.210638 0.353553,0.353553 0.09587,0.159785 0.07342,0.375287 0.176777,0.53033 0.138675,0.208013 0.418527,0.306724 0.53033,0.53033 0.07906,0.158114 -0.02906,0.355959 0,0.53033 0.122617,0.735703 0.161203,0.306832 0.353553,0.883884 0.01863,0.0559 0,0.117851 0,0.176777 0,0.117851 0,0.235702 0,0.353553"
       transform="translate(0,952.36218)"
       id="path2858"
       style="fill:none;stroke:#000000;stroke-width:1px;stroke-linecap:butt;stroke-linejoin:miter;stroke-opacity:1" />
    <path
       d="m 43.133514,45.906331 c 0,0.569036 -0.04167,-0.301777 0.176776,0.353554 0.03727,0.111803 0,0.235702 0,0.353553 0,0.05892 -0.01863,0.120875 0,0.176777 0.04167,0.125 0.14482,0.225726 0.176777,0.353553 0.02858,0.114332 -0.03727,0.24175 0,0.353553 0.02635,0.07906 0.130552,0.10744 0.176777,0.176777 0.146176,0.219265 0.207377,0.487842 0.353553,0.707107 0.04622,0.06934 0.130552,0.107439 0.176777,0.176777 0.07309,0.109632 0.09772,0.248144 0.176777,0.353553 0.1,0.133333 0.235702,0.235702 0.353553,0.353553 0.05893,0.05893 0.139509,0.102241 0.176777,0.176777 0.02635,0.05271 -0.02635,0.124072 0,0.176777 0.03727,0.07453 0.139509,0.102241 0.176776,0.176776 0.02635,0.05271 -0.02635,0.124073 0,0.176777 0.109222,0.218444 0.170675,0.176777 0.353554,0.176777 0.05893,0 0.13511,-0.04167 0.176776,0 0.04167,0.04167 -0.02635,0.124072 0,0.176777 0.03727,0.07453 0.117852,0.117851 0.176777,0.176776"
       transform="translate(0,952.36218)"
       id="path2860"
       style="fill:none;stroke:#000000;stroke-width:1px;stroke-linecap:butt;stroke-linejoin:miter;stroke-opacity:1" />
    <path
       d="m 36.592776,46.083108 c -0.05893,0.176777 -0.146143,0.346526 -0.176777,0.53033 -0.02906,0.174371 0,0.353553 0,0.53033 0,0.412479 0,0.824958 0,1.237437 0,1.06066 0,2.12132 0,3.18198"
       transform="translate(0,952.36218)"
       id="path2862"
       style="fill:none;stroke:#000000;stroke-width:1px;stroke-linecap:butt;stroke-linejoin:miter;stroke-opacity:1" />
    <path
       d="m 33.764349,46.259885 c 0.410347,0.820695 0.015,-0.101752 0.176777,0.707106 0.03654,0.182721 0.140232,0.34761 0.176776,0.53033 0.02311,0.115563 -0.0527,0.248145 0,0.353554 0.482759,0.965517 0.287907,-0.373718 0.707107,0.883883 0.0559,0.167705 -0.02906,0.355959 0,0.53033 0.06127,0.367608 0.300849,0.691728 0.353553,1.060661 0.03333,0.233333 -0.03875,0.474611 0,0.707106 0.02166,0.129969 0.14482,0.225726 0.176777,0.353554 0.02858,0.114332 0,0.235702 0,0.353553 0,0.05893 0,0.117851 0,0.176777"
       transform="translate(0,952.36218)"
       id="path2864"
       style="fill:none;stroke:#000000;stroke-width:1px;stroke-linecap:butt;stroke-linejoin:miter;stroke-opacity:1" />
    <path
       d="m 38.183766,48.204428 c 0.05893,0.117851 0.14482,0.225726 0.176777,0.353554 0.02858,0.114332 0,0.235702 0,0.353553 0,0.176777 -0.02906,0.355959 0,0.53033 0.111083,0.666499 0.22492,0.449839 0.53033,1.06066 0.166667,0.333334 0.186887,0.727327 0.353553,1.06066 0.03727,0.07454 0.139509,0.102241 0.176777,0.176777 0.03687,0.07374 -0.04115,0.312399 0,0.353553 0.04167,0.04167 0.117851,0 0.176777,0"
       transform="translate(0,952.36218)"
       id="path2866"
       style="fill:none;stroke:#000000;stroke-width:1px;stroke-linecap:butt;stroke-linejoin:miter;stroke-opacity:1" />
    <path
       d="m 38.890873,46.966991 c 0.117851,0.117851 0.279018,0.204483 0.353553,0.353554 0.05271,0.105409 -0.06537,0.255495 0,0.353553 0.07309,0.109632 0.260384,0.08361 0.353554,0.176777 0.09317,0.09317 0.103688,0.243921 0.176777,0.353553 0.04622,0.06934 0.117851,0.117851 0.176776,0.176777 0.05893,0.05893 0.117851,0.117851 0.176777,0.176777 0.05893,0.05892 0.139509,0.102241 0.176777,0.176776 0.02635,0.05271 0,0.117851 0,0.176777 0,0.05893 -0.05271,0.150424 0,0.176777 0.105409,0.0527 0.255495,-0.06537 0.353553,0 0.109632,0.07309 0.08361,0.260384 0.176777,0.353553 0.04167,0.04167 0.13511,-0.04167 0.176776,0 0.235703,0.235702 -0.294627,0.176777 0.176777,0.176777"
       transform="translate(0,952.36218)"
       id="path2868"
       style="fill:none;stroke:#000000;stroke-width:1px;stroke-linecap:butt;stroke-linejoin:miter;stroke-opacity:1" />
    <path
       d="m 41.896077,48.204428 c 0,0.176777 -0.02906,0.355959 0,0.53033 0.149349,0.896096 0.18129,0.188059 0.53033,1.06066 0.04377,0.109422 0,0.235703 0,0.353554 0,0.117851 0,0.235702 0,0.353553 0,0.176777 -0.03467,0.356987 0,0.53033 0.02584,0.129203 0.14482,0.225726 0.176777,0.353554 0.02858,0.114332 -0.03727,0.24175 0,0.353553 0.02635,0.07906 0.156565,0.09593 0.176776,0.176777 0.04287,0.171498 0,0.353553 0,0.53033 0,0.05893 0,0.117851 0,0.176777 0,0.05893 0.04167,0.13511 0,0.176776 -0.04167,0.04167 -0.176776,0.05893 -0.176776,0 0,-0.05892 0.117851,0 0.176776,0"
       transform="translate(0,952.36218)"
       id="path2870"
       style="fill:none;stroke:#000000;stroke-width:1px;stroke-linecap:butt;stroke-linejoin:miter;stroke-opacity:1" />
    <path
       d="m 42.426407,47.497321 c 0.804738,0.804738 0.09344,-0.07322 0.353553,0.707107 0.02635,0.07906 0.117851,0.117851 0.176777,0.176777 0.05893,0.117851 0.150936,0.22435 0.176777,0.353553 0.03467,0.173344 -0.0559,0.362625 0,0.53033 0.01863,0.0559 0.117851,0 0.176776,0 0.05893,0.117851 0.14482,0.225726 0.176777,0.353554 0.01066,0.04263 -0.01082,0.674643 0,0.707107 0.01316,0.03948 0.32818,0.302805 0.353554,0.353553 0.02635,0.05271 0,0.117851 0,0.176777"
       transform="translate(0,952.36218)"
       id="path2872"
       style="fill:none;stroke:#000000;stroke-width:1px;stroke-linecap:butt;stroke-linejoin:miter;stroke-opacity:1" />
    <path
       d="m 44.017397,45.199224 c 0.117851,0.05893 0.260384,0.08361 0.353554,0.176777 0.09317,0.09317 0.09772,0.248144 0.176776,0.353553 0.1,0.133334 0.235703,0.235703 0.353554,0.353554 0.117851,0.117851 0.279017,0.204482 0.353553,0.353553 0.0527,0.105409 -0.03727,0.24175 0,0.353554 0.01316,0.03948 0.32818,0.302805 0.353553,0.353553 0.02635,0.0527 0,0.117851 0,0.176777 0,0.176776 0,0.353553 0,0.53033"
       transform="translate(0,952.36218)"
       id="path2874"
       style="fill:none;stroke:#000000;stroke-width:1px;stroke-linecap:butt;stroke-linejoin:miter;stroke-opacity:1" />
    <path
       d="m 47.199378,42.547574 c 0.05892,0.05893 0.203129,0.09772 0.176776,0.176777 -0.0527,0.158114 -0.279017,0.204482 -0.353553,0.353553 -0.05271,0.105409 0,0.235702 0,0.353553 0,0.117852 0,0.235703 0,0.353554 0,0.471404 0,0.942809 0,1.414213 0,0.117851 0,0.235703 0,0.353554 0,0.05892 -0.02635,0.124072 0,0.176776 0.03727,0.07454 0.139509,0.102242 0.176777,0.176777 0.02635,0.0527 0,0.117851 0,0.176777 0,0.05892 0,0.117851 0,0.176777"
       transform="translate(0,952.36218)"
       id="path2876"
       style="fill:none;stroke:#000000;stroke-width:1px;stroke-linecap:butt;stroke-linejoin:miter;stroke-opacity:1" />
    <path
       d="m 46.669048,40.249477 c 0.05893,0.05893 0.150424,0.09772 0.176776,0.176777 0.03727,0.111803 -0.03727,0.24175 0,0.353553 0.02635,0.07906 0.117851,0.117851 0.176777,0.176777 0,0.117851 -0.02858,0.239221 0,0.353553 0.03196,0.127828 0.117851,0.235702 0.176777,0.353553 0.05892,0.117852 0.117851,0.235703 0.176776,0.353554 0.05893,0.117851 0.103689,0.243921 0.176777,0.353553 0.04622,0.06934 0.139509,0.102241 0.176777,0.176777 0.02635,0.05271 -0.02635,0.124072 0,0.176777 0.218443,0.436886 0.176777,-0.06102 0.176777,0.353553"
       transform="translate(0,952.36218)"
       id="path2878"
       style="fill:none;stroke:#000000;stroke-width:1px;stroke-linecap:butt;stroke-linejoin:miter;stroke-opacity:1" />
    <path
       d="m 39.59798,41.13336 c -1.237437,0 -2.474874,0 -3.712311,0 l -0.883883,0.176777 c -0.117851,0 -0.235703,0 -0.353554,0 -0.176776,0 -0.353553,0 -0.53033,0 -0.05893,0 -0.124072,-0.02635 -0.176776,0 -0.390863,0.195432 -0.05486,0.109715 -0.176777,0.353553 -0.03727,0.07454 -0.130552,0.10744 -0.176777,0.176777 -0.07309,0.109632 -0.08361,0.260384 -0.176777,0.353554 -0.04167,0.04167 -0.124072,-0.02635 -0.176776,0 -0.436887,0.218443 0.06102,0.176776 -0.353554,0.176776"
       transform="translate(0,952.36218)"
       id="path2880"
       style="fill:none;stroke:#000000;stroke-width:1px;stroke-linecap:butt;stroke-linejoin:miter;stroke-opacity:1" />
    <path
       d="m 42.956737,41.13336 c 0.557734,0.139434 0.149373,0.21412 0.707107,0.353554 0.114332,0.02858 0.239221,-0.02858 0.353553,0 0.01432,0.0036 0.685837,0.346463 0.707107,0.353553 0.0559,0.01863 0.117851,0 0.176777,0 0.05893,0 0.117851,0 0.176776,0 0.05893,0 0.124072,-0.02635 0.176777,0 0.436887,0.218444 -0.06102,0.176777 0.353553,0.176777"
       transform="translate(0,952.36218)"
       id="path2882"
       style="fill:none;stroke:#000000;stroke-width:1px;stroke-linecap:butt;stroke-linejoin:miter;stroke-opacity:1" />
    <path
       d="m 41.542523,42.370797 c -0.235702,-0.05893 -0.471404,-0.117851 0,0 z"
       transform="translate(0,952.36218)"
       id="path2884"
       style="fill:none;stroke:#000000;stroke-width:1px;stroke-linecap:butt;stroke-linejoin:miter;stroke-opacity:1" />
    <path
       d="m 38.53732,42.901127 c -0.08333,0.25 -0.27022,0.457107 -0.353554,0.707107 -0.01863,0.0559 0.02635,0.124072 0,0.176777 -0.03727,0.07454 -0.139509,0.102241 -0.176776,0.176776 -0.02635,0.0527 0.0527,0.150425 0,0.176777 -0.10541,0.0527 -0.235703,0 -0.353554,0 -0.05893,0 -0.124072,-0.02635 -0.176777,0 -0.07453,0.03727 -0.102241,0.139509 -0.176776,0.176777 -0.05271,0.02635 -0.117851,0 -0.176777,0 -0.117851,0 -0.235702,0 -0.353553,0 -0.117851,0 -0.235703,0 -0.353554,0 -0.05893,0 -0.124072,0.02635 -0.176776,0 -0.07454,-0.03727 -0.102241,-0.139509 -0.176777,-0.176777 -0.05271,-0.02635 -0.124072,0.02635 -0.176777,0 -0.07453,-0.03727 -0.102241,-0.139509 -0.176776,-0.176777 -0.05271,-0.02635 -0.124073,0.02635 -0.176777,0 -0.07454,-0.03727 -0.117851,-0.117851 -0.176777,-0.176776 -0.05893,-0.05893 -0.117851,-0.117851 -0.176777,-0.176777"
       transform="translate(0,952.36218)"
       id="path2886"
       style="fill:none;stroke:#000000;stroke-width:1px;stroke-linecap:butt;stroke-linejoin:miter;stroke-opacity:1" />
    <path
       d="m 37.476659,42.724351 c 0.05893,0.05893 0.139509,0.102241 0.176777,0.176776 0.02635,0.0527 0,0.117851 0,0.176777 0,0.05893 0,0.117851 0,0.176777 0,0.05893 -0.04167,0.13511 0,0.176776 0.235702,0.235703 0.176777,-0.294627 0.176777,0.176777"
       transform="translate(0,952.36218)"
       id="path2888"
       style="fill:none;stroke:#000000;stroke-width:1px;stroke-linecap:butt;stroke-linejoin:miter;stroke-opacity:1" />
    <path
       d="m 45.608387,44.315341 c -0.117851,0 -0.235702,0 -0.353553,0 -0.05893,0 -0.135107,0.04167 -0.176777,0 -0.04167,-0.04167 0.04167,-0.135107 0,-0.176777 -0.04167,-0.04167 -0.124076,0.02635 -0.176776,0 -0.07454,-0.03727 -0.107437,-0.130547 -0.176777,-0.176777 -0.109632,-0.07309 -0.248144,-0.09772 -0.353553,-0.176776 -0.133334,-0.1 -0.204483,-0.279014 -0.353554,-0.353554 -0.105409,-0.0527 -0.239221,0.02858 -0.353553,0 -0.127828,-0.03196 -0.235702,-0.117846 -0.353554,-0.176776 l -0.176776,1.414213 c 0.04622,0.231125 -0.04622,0.475982 0,0.707107 0.03654,0.18272 0.117851,0.353553 0.176776,0.53033 0.218444,0.65533 0.09344,0.363664 0.353554,0.883884 0.05893,0.117851 0.117851,0.235702 0.176777,0.353553 0.05893,0.117851 0.150936,0.224351 0.176776,0.353553 0.03467,0.173344 0,0.353554 0,0.53033 0,0.117852 -0.02858,0.239221 0,0.353554 0.03196,0.127827 0.14482,0.225726 0.176777,0.353553 0.02858,0.114333 0,0.235703 0,0.353554 0,0.05892 -0.02635,0.124072 0,0.176776 0.03727,0.07454 0.139509,0.102241 0.176777,0.176777 0.02635,0.05271 0,0.117851 0,0.176777 0,0.176776 0,0.353553 0,0.53033 0,0.05893 -0.04167,0.13511 0,0.176777 0.235702,0.235702 0.176776,-0.294628 0.176776,0.176776"
       transform="translate(0,952.36218)"
       id="path2890"
       style="fill:none;stroke:#000000;stroke-width:1px;stroke-linecap:butt;stroke-linejoin:miter;stroke-opacity:1" />
    <path
       d="m 46.138718,43.431457 c 0.433099,1.2993 -0.05783,0.09003 0.353553,0.707107 0.07309,0.109632 0.117851,0.235702 0.176777,0.353554 0.05893,0.117851 0.144819,0.225725 0.176776,0.353553 0.02858,0.114332 -0.03727,0.24175 0,0.353553 0.02635,0.07906 0.139509,0.102241 0.176777,0.176777 0.02635,0.0527 0,0.117851 0,0.176777 0,0.05892 0,0.117851 0,0.176776"
       transform="translate(0,952.36218)"
       id="path2892"
       style="fill:none;stroke:#000000;stroke-width:1px;stroke-linecap:butt;stroke-linejoin:miter;stroke-opacity:1" />
    <path
       d="m 41.012193,40.426254 c 0.942809,0 1.885618,0 2.828428,0 0.176776,0 0.353553,0 0.53033,0 0.176776,0 0.358831,0.04287 0.53033,0 0.873773,-0.218444 -0.369945,-0.176777 0.353553,-0.176777"
       transform="translate(0,952.36218)"
       id="path2894"
       style="fill:none;stroke:#000000;stroke-width:1px;stroke-linecap:butt;stroke-linejoin:miter;stroke-opacity:1" />
    <path
       d="m 36.769553,40.249477 c -0.766033,0 -1.532065,0 -2.298097,0"
       transform="translate(0,952.36218)"
       id="path2896"
       style="fill:none;stroke:#000000;stroke-width:1px;stroke-linecap:butt;stroke-linejoin:miter;stroke-opacity:1" />
    <path
       d="m 32.880465,43.254681 c 0,0.412479 0,0.824958 0,1.237437 0,0.117851 -0.02858,0.239221 0,0.353553 0.03196,0.127827 0.14482,0.225726 0.176777,0.353553 0.05717,0.228665 -0.05717,0.478442 0,0.707107 0.03196,0.127828 0.150936,0.224351 0.176777,0.353554 0.03467,0.173343 -0.03467,0.356986 0,0.53033 0.02584,0.129202 0.14482,0.225726 0.176776,0.353553 0.02858,0.114332 -0.01937,0.237306 0,0.353553 0.03994,0.239651 0.136835,0.467457 0.176777,0.707107 0.01937,0.116248 -0.03727,0.24175 0,0.353554 0.02635,0.07906 0.150425,0.09772 0.176777,0.176776 0.03727,0.111804 0,0.235703 0,0.353554 0,0.05892 0,0.117851 0,0.176776 0,0.117851 -0.05271,0.248144 0,0.353554 0.235702,0.471404 0.176777,-0.53033 0.176777,0.176776"
       transform="translate(0,952.36218)"
       id="path2898"
       style="fill:none;stroke:#000000;stroke-width:1px;stroke-linecap:butt;stroke-linejoin:miter;stroke-opacity:1" />
    <path
       d="m 35.532116,42.901127 c 0.942809,0.471405 -0.176777,-0.176776 0.53033,0.53033 0.09317,0.09317 0.235702,0.117852 0.353553,0.176777 0.117851,0.05893 0.248144,0.09772 0.353554,0.176777 0.133333,0.1 0.235702,0.235702 0.353553,0.353553 0.294426,0.294426 0.719807,0.65047 0.883884,1.06066 0.04377,0.109422 -0.05271,0.248144 0,0.353554 0.07453,0.149071 0.291655,0.198807 0.353553,0.353553 0.294628,0.73657 -0.196419,0.294628 0,0.883884 0.02635,0.07906 0.139509,0.102241 0.176777,0.176776 0.02635,0.05271 0,0.117851 0,0.176777 0,0.05893 0,0.117851 0,0.176777"
       transform="translate(0,952.36218)"
       id="path2900"
       style="fill:none;stroke:#000000;stroke-width:1px;stroke-linecap:butt;stroke-linejoin:miter;stroke-opacity:1" />
    <path
       d="m 35.708893,47.320545 c 0.383283,0.320541 0.402972,0.872475 0.707106,1.237437 0.136013,0.163215 0.394317,0.190337 0.53033,0.353553 0.459814,0.551777 0.254008,0.684793 0.53033,1.237437 0.09502,0.190029 0.258539,0.340301 0.353554,0.53033 0.505922,1.011845 -0.109835,0.111569 0.353553,0.883883 0.10931,0.182183 0.226078,0.360363 0.353554,0.53033 0.242711,0.323615 0.182571,0.01738 0.353553,0.530331 0.01863,0.0559 0,0.117851 0,0.176776 0.05893,0.05893 0.139509,0.102241 0.176777,0.176777 0.02635,0.05271 -0.02635,0.124072 0,0.176777 0.03727,0.07453 0.139509,0.102241 0.176776,0.176776 0.02635,0.0527 -0.04167,0.13511 0,0.176777 0.04167,0.04167 0.117852,0 0.176777,0"
       transform="translate(0,952.36218)"
       id="path2902"
       style="fill:none;stroke:#000000;stroke-width:1px;stroke-linecap:butt;stroke-linejoin:miter;stroke-opacity:1" />
    <path
       d="m 40.481863,48.381205 c 0.40532,0.40532 -0.07453,-0.111804 0.353554,0.53033 0.04622,0.06934 0.139509,0.102241 0.176776,0.176777 0.02635,0.0527 -0.01863,0.120875 0,0.176776 0.04167,0.125 0.117852,0.235703 0.176777,0.353554 0.05893,0.117851 0.103689,0.243921 0.176777,0.353553 0.04622,0.06934 0.150424,0.09772 0.176776,0.176777 0.03727,0.111803 -0.03727,0.24175 0,0.353553 0.218444,0.65533 0.176777,-0.215482 0.176777,0.353554"
       transform="translate(0,952.36218)"
       id="path2904"
       style="fill:none;stroke:#000000;stroke-width:1px;stroke-linecap:butt;stroke-linejoin:miter;stroke-opacity:1" />
    <path
       d="m 44.017397,45.552778 c 0.235702,0.05892 0.4898,0.06812 0.707107,0.176776 0.0527,0.02635 0,0.117852 0,0.176777 0.05893,0.05893 0.09772,0.150425 0.176777,0.176777 0.111803,0.03727 0.255495,-0.06537 0.353553,0 1.202314,0.801543 -1.119326,-0.117721 0.53033,0.707107 0.105409,0.0527 0.255495,-0.06537 0.353554,0 0.109632,0.07309 0.117851,0.235702 0.176776,0.353553 0.05893,0.117851 0.103689,0.243921 0.176777,0.353553 0.218443,0.327665 0.176777,0.01621 0.176777,0.353554"
       transform="translate(0,952.36218)"
       id="path2906"
       style="fill:none;stroke:#000000;stroke-width:1px;stroke-linecap:butt;stroke-linejoin:miter;stroke-opacity:1" />
    <path
       d="m 46.315494,43.608234 c 0.07454,0.149071 0.279018,0.204482 0.353554,0.353553 0.02635,0.0527 -0.02635,0.124073 0,0.176777 0.07454,0.149071 0.279017,0.204482 0.353553,0.353554 0.03687,0.07374 -0.04116,0.312398 0,0.353553 0.04167,0.04167 0.150424,-0.05271 0.176777,0 0.0527,0.105409 -0.05271,0.248144 0,0.353553 0.235702,0.471405 0.176776,-0.53033 0.176776,0.176777"
       transform="translate(0,952.36218)"
       id="path2908"
       style="fill:none;stroke:#000000;stroke-width:1px;stroke-linecap:butt;stroke-linejoin:miter;stroke-opacity:1" />
    <path
       d="m 32.880465,47.143768 c -0.0527,0.105409 0.0527,0.248144 0,0.353553 -0.03727,0.07454 -0.139509,0.102241 -0.176776,0.176777 -0.02635,0.0527 0.04167,0.13511 0,0.176777 -0.04167,0.04167 -0.13511,-0.04167 -0.176777,0 -0.04167,0.04167 0,0.117851 0,0.176776 0,0.05893 0,0.117852 0,0.176777 0,0.05893 0.02635,0.124072 0,0.176777 -0.03727,0.07453 -0.139509,0.102241 -0.176777,0.176777 -0.01316,0.02632 0.01269,0.315492 0,0.353553 -0.04167,0.125 -0.13511,0.228553 -0.176776,0.353553 -0.01863,0.0559 0.02635,0.124072 0,0.176777 -0.03727,0.07454 -0.139509,0.102241 -0.176777,0.176777 -0.02635,0.0527 0.02635,0.124072 0,0.176776 -0.03727,0.07454 -0.139509,0.102242 -0.176777,0.176777 -0.02635,0.05271 0.04167,0.13511 0,0.176777 -0.04167,0.04167 -0.13511,-0.04167 -0.176776,0 -0.04167,0.04167 0.04167,0.13511 0,0.176777 -0.04167,0.04167 -0.135111,-0.04167 -0.176777,0 -0.04167,0.04167 0.04167,0.13511 0,0.176776 -0.235702,0.235702 -0.176777,-0.294628 -0.176777,0.176777"
       transform="translate(0,952.36218)"
       id="path2910"
       style="fill:none;stroke:#000000;stroke-width:1px;stroke-linecap:butt;stroke-linejoin:miter;stroke-opacity:1" />
    <path
       d="m 23.864854,51.209632 c -0.235702,0 -0.471405,0 0,0 z"
       transform="translate(0,952.36218)"
       id="path2912"
       style="fill:none;stroke:#000000;stroke-width:1px;stroke-linecap:butt;stroke-linejoin:miter;stroke-opacity:1" />
    <path
       d="m 25.455844,51.209632 c -0.53033,0 -1.06066,0 -1.59099,0 -0.117851,0 -0.235702,0 -0.353553,0 -0.117852,0 -0.24175,-0.03727 -0.353554,0 -0.07906,0.02635 -0.09772,0.150424 -0.176777,0.176777 -0.111803,0.03727 -0.235702,0 -0.353553,0 -0.05893,0 -0.117851,0 -0.176777,0 -0.05892,0 -0.124072,-0.02635 -0.176776,0 -0.07454,0.03727 -0.102241,0.139509 -0.176777,0.176776 -0.0527,0.02635 -0.117851,0 -0.176777,0 -0.05893,0 -0.117851,0 -0.176776,0 -0.353554,0 -0.707107,0 -1.060661,0 -0.414572,0 0.08333,-0.04167 -0.353553,0.176777 -0.0527,0.02635 -0.117851,0 -0.176777,0 -0.117851,0 -0.235702,0 -0.353553,0 -0.05893,0 -0.13511,-0.04167 -0.176777,0 -0.04167,0.04167 0.04167,0.13511 0,0.176777 -0.04115,0.04116 -0.27981,-0.03687 -0.353553,0 -0.735702,0.367851 0.18898,-0.0122 -0.176777,0.353553 -0.09317,0.09317 -0.235702,0.117851 -0.353553,0.176777 -0.117851,0.117851 -0.249438,0.223408 -0.353554,0.353553 -0.06913,0.08641 -0.480259,0.683599 -0.53033,0.883884 -0.02858,0.114332 0.02858,0.239221 0,0.353553 -0.03196,0.127828 -0.127841,0.231216 -0.176776,0.353554 -0.06921,0.173011 -0.09344,0.363663 -0.176777,0.53033 -0.03727,0.07454 -0.139509,0.102241 -0.176777,0.176776 -0.08333,0.166667 -0.146143,0.346527 -0.176777,0.53033 -0.02906,0.174372 0.07906,0.372217 0,0.53033 -0.111803,0.223607 -0.401706,0.315957 -0.53033,0.530331 -0.53033,0.883883 0.265165,0 0,0.53033 -0.03727,0.07454 -0.139509,0.102241 -0.176776,0.176776 -0.03687,0.07374 0.04115,0.312399 0,0.353554 -0.04167,0.04167 -0.13511,-0.04167 -0.176777,0 -0.04167,0.04167 0.01863,0.120875 0,0.176776 -0.213622,0.640867 -0.08387,0.125812 -0.353553,0.530331 -0.07309,0.109632 -0.103689,0.243921 -0.176777,0.353553 -0.04622,0.06934 -0.117851,0.117851 -0.176777,0.176777 -0.05893,0.05893 -0.117851,0.117851 -0.176776,0.176776 -0.117852,0.117851 -0.279018,0.204483 -0.353554,0.353554 -0.0527,0.105409 0.02858,0.239221 0,0.353553 -0.03196,0.127828 -0.127842,0.231216 -0.176777,0.353553 -0.0692,0.173012 -0.107572,0.357319 -0.176776,0.530331 -0.164872,0.412179 -0.269797,0.381345 -0.353554,0.883883 -0.02906,0.174372 0,0.353553 0,0.53033 0,0.117851 0.02858,0.239221 0,0.353554 -0.03196,0.127827 -0.144819,0.225725 -0.176776,0.353553 -0.02858,0.114332 0,0.235702 0,0.353553 0,0.05893 0,0.117851 0,0.176777 0,0.353553 0,0.707107 0,1.06066 0,0.117851 0,0.235702 0,0.353554 0,0.05893 0.01863,0.120875 0,0.176776 -0.04167,0.125 -0.14482,0.225726 -0.176777,0.353554 -0.01066,0.04263 0.01082,0.674643 0,0.707106 -0.02635,0.07906 -0.150424,0.09772 -0.176777,0.176777 -0.03727,0.111804 0.02858,0.239221 0,0.353554 -0.03196,0.127827 -0.150936,0.22435 -0.176776,0.353553 -0.03467,0.173344 0,0.353553 0,0.53033 0,0.117851 0,0.235702 0,0.353553 0,0.117852 0.02311,0.237991 0,0.353554 -0.214045,1.070222 -0.176777,0.07324 -0.176777,0.883883 0,0.235703 0,0.471405 0,0.707107 0,0.117851 0.03727,0.24175 0,0.353553 -0.02635,0.07906 -0.139509,0.102242 -0.176777,0.176777 -0.02635,0.05271 0,0.117851 0,0.176777 0,0.05893 0,0.117851 0,0.176777 0,0.05893 0.02635,0.124072 0,0.176776 -0.03727,0.07454 -0.117851,0.117851 -0.176777,0.176777 -0.05892,0.05893 -0.117851,0.117851 -0.176776,0.176777 -0.05893,0.05893 -0.139509,0.102241 -0.176777,0.176776 -0.02635,0.05271 0,0.117851 0,0.176777 0,0.05893 0,0.117851 0,0.176777 0,0.117851 0.03727,0.24175 0,0.353553 -0.02635,0.07906 -0.150424,0.09772 -0.176777,0.176777 -0.03727,0.111803 0,0.235702 0,0.353553 0,0.05893 0.01863,0.120875 0,0.176777 -0.50078,1.001561 0.06588,-0.263523 -0.176776,0.707107 -0.03196,0.127827 -0.150936,0.22435 -0.176777,0.353553 -0.03467,0.173344 0,0.353553 0,0.53033 0,0.117851 0,0.235702 0,0.353554 0,0.117851 0.02311,0.23799 0,0.353553 -0.03654,0.18272 -0.140233,0.34761 -0.176777,0.53033 -0.0053,0.0266 0.0054,0.685663 0,0.707107 -0.03196,0.127827 -0.14482,0.225726 -0.176776,0.353553 -0.02858,0.114333 0,0.235702 0,0.353554 0,0.117851 0,0.235702 0,0.353553 0,0.648181 0,1.296362 0,1.944544 0,1.767767 0,3.535534 0,5.3033"
       transform="translate(0,952.36218)"
       id="path2914"
       style="fill:none;stroke:#000000;stroke-width:1px;stroke-linecap:butt;stroke-linejoin:miter;stroke-opacity:1" />
    <path
       d="m 47.022601,48.027651 c 0.329983,0.659967 -0.03536,0.106067 0.53033,0.530331 0.764611,0.76461 -0.04683,0.0277 0.707107,0.53033 0.06934,0.04622 0.09772,0.150424 0.176777,0.176776 0.111803,0.03727 0.24175,-0.03727 0.353553,0 0.07906,0.02635 0.102241,0.139509 0.176777,0.176777 0.0527,0.02635 0.117851,0 0.176776,0 0.176777,0 0.353554,0 0.53033,0"
       transform="translate(0,952.36218)"
       id="path2916"
       style="fill:none;stroke:#000000;stroke-width:1px;stroke-linecap:butt;stroke-linejoin:miter;stroke-opacity:1" />
    <path
       d="m 59.573746,51.209632 c 0.235703,0.117851 0.471405,0.235702 0.707107,0.353553 0.235702,0.117852 0.492669,0.200384 0.707107,0.353554 0.203433,0.145309 0.318331,0.39783 0.53033,0.53033 1.161907,0.726192 0.625876,-0.08123 1.59099,0.883883 0.150232,0.150232 0.215287,0.369019 0.353554,0.53033 0.21693,0.253086 0.471404,0.471405 0.707107,0.707107 0.176776,0.176777 0.370283,0.338275 0.53033,0.53033 0.136013,0.163216 0.21754,0.367115 0.353553,0.53033 0.160046,0.192056 0.353553,0.353554 0.53033,0.53033 0.176777,0.176777 0.340516,0.367633 0.53033,0.530331 0.223698,0.191741 0.498774,0.321996 0.707107,0.53033 0.208333,0.208333 0.338589,0.483408 0.53033,0.707106 0.325396,0.379629 0.740568,0.67655 1.06066,1.060661 0.136013,0.163215 0.220831,0.364427 0.353554,0.53033 0.104115,0.130145 0.253553,0.22022 0.353553,0.353553 0.231694,0.308926 0.175296,0.527369 0.353553,0.883884 0.415033,0.830065 0.265739,0.222403 0.53033,0.883883 0.06921,0.173011 0.107573,0.357319 0.176777,0.53033 0.52022,1.30055 -0.232741,-0.875 0.353554,0.883884 0.05893,0.176776 0.146142,0.346526 0.176776,0.53033 0.02906,0.174371 -0.03467,0.356986 0,0.53033 0.0058,0.02914 0.344884,0.672427 0.353554,0.707107 0.02858,0.114332 -0.02311,0.23799 0,0.353553 0.03654,0.18272 0.140232,0.34761 0.176776,0.53033 0.02311,0.115563 0,0.235702 0,0.353553 0,0.176777 0,0.353554 0,0.530331 0,0.176776 -0.03467,0.356986 0,0.53033 0.02584,0.129202 0.150936,0.22435 0.176777,0.353553 0.03467,0.173344 0,0.353553 0,0.53033 0,0.117851 -0.02858,0.239221 0,0.353553 0.03196,0.127828 0.14482,0.225726 0.176777,0.353554 0.02858,0.114332 0,0.235702 0,0.353553 0,0.05893 0,0.117851 0,0.176777 0,0.117851 0.02311,0.237991 0,0.353553 -0.03654,0.182721 -0.146143,0.346527 -0.176777,0.53033 -0.02906,0.174372 0.03467,0.356987 0,0.530331 -0.02584,0.129202 -0.14482,0.225725 -0.176777,0.353553 -0.02858,0.114332 0,0.235702 0,0.353553 0,0.294628 0,0.589256 0,0.883884 0,0.117851 0.02311,0.237991 0,0.353553 -0.03654,0.182721 -0.146142,0.346527 -0.176776,0.53033 -0.02906,0.174372 0,0.353554 0,0.53033 0,0.117851 0,0.235703 0,0.353554 0,0.471404 0,0.942809 0,1.414213 0,0.117851 0,0.235703 0,0.353554 0,0.176776 0.03467,0.356986 0,0.53033 -0.05168,0.258405 -0.301873,0.448701 -0.353554,0.707107 -0.03467,0.173343 0,0.353553 0,0.53033 0,0.117851 0,0.235702 0,0.353553 0,0.117851 0.02858,0.239221 0,0.353553 -0.03196,0.127828 -0.14482,0.225726 -0.176776,0.353554 -0.02858,0.114332 0,0.235702 0,0.353553 0,0.176777 0.04287,0.358832 0,0.53033 -0.02021,0.08085 -0.156566,0.09593 -0.176777,0.176777 -0.04287,0.171499 0,0.353553 0,0.53033 0,0.353553 0,0.707107 0,1.06066 0,0.117851 0.02311,0.237991 0,0.353554 -0.03654,0.18272 -0.131583,0.349554 -0.176777,0.53033 -0.01429,0.05717 0,0.117851 0,0.176776 0,0.176777 0,0.353554 0,0.530331 0,0.412478 0,0.824957 0,1.237436 0,0.176777 0.04288,0.358832 0,0.53033 -0.02021,0.08085 -0.156565,0.09593 -0.176777,0.176777 -0.04287,0.171499 0,0.353554 0,0.53033 0,0.235703 0,0.471405 0,0.707107 0,0.766032 0,1.532065 0,2.298097"
       transform="translate(0,952.36218)"
       id="path2918"
       style="fill:none;stroke:#000000;stroke-width:1px;stroke-linecap:butt;stroke-linejoin:miter;stroke-opacity:1" />
    <path
       d="m 33.234019,6.3083513 c -0.648181,0 -1.296363,0 -1.944544,0 -0.117851,0 -0.235702,0 -0.353553,0 -0.05893,0 -0.124072,-0.026352 -0.176777,0 -0.07454,0.037268 -0.09772,0.1504244 -0.176777,0.1767767 -0.111803,0.037268 -0.24175,-0.037268 -0.353553,0 -0.07906,0.026352 -0.09772,0.1504244 -0.176777,0.1767767 -0.111803,0.037268 -0.235702,0 -0.353553,0 -0.117851,0 -0.235702,0 -0.353554,0 -0.412478,0 -0.824957,0 -1.237436,0 -0.05893,0 -0.117852,0 -0.176777,0 -0.05893,0 -0.13511,-0.041667 -0.176777,0 -0.04167,0.041667 0.04167,0.13511 0,0.1767767 -0.04167,0.041667 -0.13511,-0.041667 -0.176776,0 -0.04167,0.041667 0.04167,0.13511 0,0.1767767 -0.04167,0.041667 -0.135111,-0.041667 -0.176777,0 -0.04167,0.041667 0.04167,0.13511 0,0.1767767 -0.365757,0.3657573 0.0143,-0.5589256 -0.353554,0.1767767 -0.02635,0.052705 0.04167,0.13511 0,0.1767767 -0.04167,0.041667 -0.13511,-0.041667 -0.176776,0 -0.04167,0.041667 0.04167,0.13511 0,0.1767767 -0.04167,0.041667 -0.124072,-0.026352 -0.176777,0 -0.07454,0.037268 -0.102241,0.1395089 -0.176777,0.1767767 -0.0527,0.026352 -0.13511,-0.041667 -0.176776,0 -0.04167,0.041667 0.04167,0.13511 0,0.1767767 -0.04167,0.041667 -0.13511,-0.041667 -0.176777,0 -0.117647,0.117647 0.117647,0.2359063 0,0.3535534 -0.04167,0.041667 -0.117851,0 -0.176777,0 -0.05892,0 -0.117851,0 -0.176776,0 -0.05893,0 -0.13511,-0.041667 -0.176777,0 -0.04115,0.041155 0.03687,0.2798105 0,0.3535534 -0.03727,0.074536 -0.139509,0.1022411 -0.176777,0.1767767 -0.02635,0.052705 0,0.1178511 0,0.1767766 0,0.058926 0,0.1178512 0,0.1767767 0,0.3535534 0,0.7071069 0,1.0606599 0,0.294628 0,0.589256 0,0.883884 0,0.05893 -0.04167,0.13511 0,0.176776 0.04167,0.04167 0.13511,-0.04167 0.176777,0 0.04167,0.04167 0,0.117852 0,0.176777 0,0.05893 0,0.117851 0,0.176777 0,0.05892 -0.04167,0.13511 0,0.176777 0.04167,0.04167 0.124072,-0.02635 0.176777,0 0.07453,0.03727 0.102241,0.139508 0.176776,0.176776 0.05271,0.02635 0.13511,-0.04167 0.176777,0 0.04167,0.04167 -0.04167,0.13511 0,0.176777 0.04167,0.04167 0.13511,-0.04167 0.176777,0 0.04167,0.04167 -0.04167,0.13511 0,0.176777 0.04167,0.04167 0.117851,0 0.176776,0 0.05893,0 0.117851,0 0.176777,0 0.05893,0 0.13511,-0.04167 0.176777,0 0.365757,0.365757 -0.558926,-0.0143 0.176776,0.353553 0.07374,0.03687 0.312399,-0.04115 0.353554,0 0.04167,0.04167 -0.04167,0.13511 0,0.176777 0.04167,0.04167 0.117851,0 0.176777,0 0.05892,0 0.117851,0 0.176776,0 0.05893,0 0.124072,-0.02635 0.176777,0 0.07454,0.03727 0.107439,0.130551 0.176777,0.176776 0.893041,0.595361 0.0041,0.0014 0.53033,0.176777 0.739591,-0.320117 0.204482,0.279018 0.353553,0.353554 0.105409,0.0527 0.239221,-0.02858 0.353553,0 0.127828,0.03196 0.228554,0.13511 0.353554,0.176776 0.0559,0.01863 0.117851,0 0.176777,0 0.05893,0 0.117851,0 0.176776,0 0.05893,0 0.124072,-0.02635 0.176777,0 0.07454,0.03727 0.102241,0.139509 0.176777,0.176777 0.0527,0.02635 0.117851,0 0.176776,0 0.05893,0 0.117851,0 0.176777,0 0.05893,0 0.120875,-0.01863 0.176777,0 0.125,0.04167 0.228553,0.13511 0.353553,0.176777 0.0559,0.01863 0.117851,0 0.176777,0 0.117851,0 0.24175,-0.03727 0.353553,0 0.07906,0.02635 0.09772,0.150424 0.176777,0.176776 0.111803,0.03727 0.235702,0 0.353553,0 0.05893,0 0.117851,0 0.176777,0 0.117851,0 0.248144,-0.0527 0.353553,0 0.0527,0.02635 -0.04167,0.13511 0,0.176777 0.04167,0.04167 0.117852,0 0.176777,0 0.176777,0 0.353553,0 0.53033,0 0.117851,0 0.248144,-0.0527 0.353554,0 0.0527,0.02635 -0.0527,0.150424 0,0.176777 0.105409,0.0527 0.235702,0 0.353553,0 0.05893,0 0.124072,-0.02635 0.176777,0 0.07453,0.03727 0.102241,0.139509 0.176776,0.176776 0.05271,0.02635 0.117851,0 0.176777,0 0.05893,0 0.117851,0 0.176777,0 0.235702,0 0.471404,0 0.707107,0 0.648181,0 1.296362,0 1.944543,0 0.294628,0 0.589256,0 0.883884,0 0.117851,0 0.23799,-0.02311 0.353553,0 0.18272,0.03654 0.34761,0.140233 0.53033,0.176777 0.115563,0.02311 0.235702,0 0.353554,0 0.235702,0 0.471404,0 0.707106,0 0.589256,0 1.178512,0 1.767767,0 0.412479,0 0.824958,0 1.237437,0 0.117851,0 0.239221,-0.02858 0.353554,0 0.853644,0.213411 -0.0088,0.08401 0.53033,0.353553 0.0527,0.02635 0.117851,0 0.176776,0 0.117851,0 0.235703,0 0.353554,0 0.235702,0 0.471404,0 0.707106,0 0.235703,0 0.471405,0 0.707107,0 0.05893,0 0.117851,0 0.176777,0 0.05893,0 0.124072,0.02635 0.176777,0 0.07454,-0.03727 0.102241,-0.139508 0.176776,-0.176776 0.05271,-0.02635 0.117851,0 0.176777,0 0.117851,-0.05893 0.243921,-0.103689 0.353553,-0.176777 0.06934,-0.04622 0.09772,-0.150424 0.176777,-0.176777 0.111804,-0.03727 0.24175,0.03727 0.353554,0 0.271548,-0.09052 0.136975,-0.385945 0.353553,-0.53033 0.09806,-0.06537 0.24175,0.03727 0.353553,0 0.03948,-0.01316 0.302806,-0.328179 0.353554,-0.353553 0.0527,-0.02635 0.117851,0 0.176776,0 0.05893,0 0.117852,0 0.176777,0 0.176777,0 0.353553,0 0.53033,0 0.05893,0 0.124072,0.02635 0.176777,0 0.07453,-0.03727 0.09772,-0.150424 0.176777,-0.176777 0.111803,-0.03727 0.235702,0 0.353553,0 0.05893,0 0.13511,0.04167 0.176777,0 0.04167,-0.04167 -0.04167,-0.13511 0,-0.176776 0.04167,-0.04167 0.124072,0.02635 0.176776,0 0.735703,-0.367852 -0.18898,0.0122 0.176777,-0.353554 0.04167,-0.04167 0.13511,0.04167 0.176777,0 0.04167,-0.04167 -0.04167,-0.13511 0,-0.176777 0.04167,-0.04167 0.13511,0.04167 0.176776,0 0.04167,-0.04167 -0.04167,-0.13511 0,-0.176776 0.04167,-0.04167 0.13511,0.04167 0.176777,0 0.04167,-0.04167 0,-0.117851 0,-0.176777 0,-0.05893 0,-0.117851 0,-0.176777 0,-0.05893 -0.04167,-0.13511 0,-0.176776 0.04167,-0.04167 0.13511,0.04167 0.176777,0 0.04167,-0.04167 0,-0.117851 0,-0.176777 0,-0.05893 0,-0.117851 0,-0.176777 0,-0.05893 0.02635,-0.124072 0,-0.176776 -0.03727,-0.07454 -0.117851,-0.117852 -0.176777,-0.176777 -0.05893,-0.05893 -0.09593,-0.156566 -0.176777,-0.176777 -0.171498,-0.04287 -0.353553,0 -0.53033,0 -0.117851,0 -0.24175,0.03727 -0.353553,0 -0.07906,-0.02635 -0.102241,-0.139509 -0.176777,-0.176777 -0.189162,-0.09458 -0.164391,0.09458 -0.353553,0 -0.190099,-0.09505 -0.163455,-0.258503 -0.353554,-0.353553 -0.0527,-0.02635 -0.124072,0.02635 -0.176776,0 -0.07454,-0.03727 -0.102241,-0.139509 -0.176777,-0.176777 -0.05271,-0.02635 -0.117851,0 -0.176777,0 -0.05893,0 -0.117851,0 -0.176776,0 -0.414573,0 0.08333,0.04167 -0.353554,-0.176776 -0.0527,-0.02635 -0.124072,0.02635 -0.176776,0 -0.07454,-0.03727 -0.102241,-0.139509 -0.176777,-0.176777 -0.05271,-0.02635 -0.117851,0 -0.176777,0 -0.05893,0 -0.117851,0 -0.176776,0 -0.05893,0 -0.124073,0.02635 -0.176777,0 -0.07454,-0.03727 -0.09772,-0.150424 -0.176777,-0.176777 -0.02444,-0.0081 -0.667286,0.008 -0.707107,0 -0.919627,-0.183925 -0.176776,-0.117851 -0.883883,-0.353553 -0.0559,-0.01863 -0.120875,0.01863 -0.176777,0 -0.125,-0.041667 -0.225726,-0.1448199 -0.353553,-0.1767768 -0.114333,-0.028583 -0.235702,0 -0.353554,0 -0.05893,0 -0.124072,0.026352 -0.176776,0 -0.07454,-0.037268 -0.102241,-0.1395089 -0.176777,-0.1767767 -0.05271,-0.026352 -0.117851,0 -0.176777,0 -0.05893,0 -0.117851,0 -0.176776,0 -0.05893,0 -0.13511,0.041667 -0.176777,0 -0.04167,-0.041667 0.04167,-0.13511 0,-0.1767767 -0.04167,-0.041667 -0.117851,0 -0.176777,0 -0.176776,0 -0.353553,0 -0.53033,0 -0.05893,0 -0.124072,0.026352 -0.176777,0 -0.809037,-0.4045187 0.750138,0.073269 -0.53033,-0.3535534 -0.0559,-0.018634 -0.117851,0 -0.176776,0 -0.117851,0 -0.235703,0 -0.353554,0 -0.05893,0 -0.124072,0.026352 -0.176776,0 -0.07454,-0.037268 -0.102242,-0.1395088 -0.176777,-0.1767766 -0.0527,-0.026352 -0.117851,0 -0.176777,0 -0.117851,0 -0.239221,0.028583 -0.353553,0 -0.853645,-0.2134113 0.0088,-0.084008 -0.53033,-0.3535534 -0.05271,-0.026352 -0.124072,0.026352 -0.176777,0 -0.07454,-0.037268 -0.102241,-0.1395089 -0.176777,-0.1767767 -0.0527,-0.026352 -0.13511,0.041667 -0.176776,0 -0.04167,-0.041667 0.04167,-0.1351101 0,-0.1767767 -0.04167,-0.041667 -0.117852,0 -0.176777,0 -0.05893,0 -0.117851,0 -0.176777,0 -0.05892,0 -0.124072,0.026352 -0.176776,0 -0.07454,-0.037268 -0.102242,-0.1395089 -0.176777,-0.1767767 -0.05271,-0.026352 -0.117851,0 -0.176777,0 -0.05892,0 -0.117851,0 -0.176777,0 -0.353553,0 -0.707106,0 -1.06066,0 -0.723498,0 0.52022,0.041667 -0.353553,-0.1767767 -0.171499,-0.042875 -0.353554,0 -0.53033,0 -0.353554,0 -0.707107,0 -1.06066,0 -0.05893,0 -0.117852,0 -0.176777,0 -0.05893,0 -0.120875,0.018634 -0.176777,0 -0.125,-0.041667 -0.228553,-0.13511 -0.353553,-0.1767767 -0.03806,-0.012687 -0.327236,0.013159 -0.353554,0 -0.07453,-0.037268 -0.102241,-0.1395089 -0.176776,-0.1767767 -0.05271,-0.026352 -0.117851,0 -0.176777,0 -0.117851,0 -0.235702,0 -0.353553,0 -0.05893,0 -0.124072,0.026352 -0.176777,0 -0.07454,-0.037268 -0.102241,-0.1395089 -0.176777,-0.1767767 -0.0527,-0.026352 -0.13511,0.041667 -0.176776,0 -0.04167,-0.041667 0.04167,-0.13511 0,-0.1767767 -0.04167,-0.041667 -0.117852,0 -0.176777,0 C 33.8822,6.897607 34.000051,6.6029791 33.234019,6.3083513 z"
       transform="translate(0,952.36218)"
       id="path2920"
       style="fill:none;stroke:#000000;stroke-width:1px;stroke-linecap:butt;stroke-linejoin:miter;stroke-opacity:1" />
    <path
       d="m 34.648232,7.0154581 c 0.176777,0 0.353554,0 0.53033,0 0.117852,0 0.239221,0.028583 0.353554,0 0.127827,-0.031957 0.225726,-0.1448198 0.353553,-0.1767767 0.114333,-0.028583 0.235702,0 0.353554,0 0.235702,0 0.473773,-0.033333 0.707106,0 0.184467,0.026352 0.351161,0.1255854 0.53033,0.1767767 0.233609,0.066745 0.473499,0.1100315 0.707107,0.1767767 0.17917,0.051191 0.34761,0.1402326 0.53033,0.1767767 0.115563,0.023112 0.235703,0 0.353554,0 0.353553,0 0.707107,0 1.06066,0 0.117851,0 0.235702,0 0.353553,0 0.05893,0 0.124072,-0.026352 0.176777,0 0.07454,0.037268 0.102241,0.1395089 0.176777,0.1767767 0.0527,0.026352 0.117851,0 0.176776,0 0.05893,0 0.117852,0 0.176777,0 0.414573,0 -0.08333,-0.041667 0.353553,0.1767767 0.0527,0.026352 0.117852,0 0.176777,0 0.117851,0 0.235702,0 0.353554,0 0.05893,0 0.124072,-0.026352 0.176776,0 0.07454,0.037268 0.102241,0.1395089 0.176777,0.1767767 0.05271,0.026352 0.117851,0 0.176777,0 0.176776,0 0.353553,0 0.53033,0 0.117851,0 0.239221,-0.028583 0.353553,0 0.127828,0.031957 0.225726,0.1448198 0.353554,0.1767767 0.114332,0.028583 0.235702,0 0.353553,0 0.176777,0 0.353553,0 0.53033,0 0.117851,0 0.235702,0 0.353553,0 0.117852,0 0.24175,-0.037268 0.353554,0 0.07906,0.026352 0.09593,0.1565654 0.176776,0.1767767 0.171499,0.042875 0.353554,0 0.530331,0 0.117851,0 0.235702,0 0.353553,0 0.117851,0 0.239221,-0.028583 0.353553,0 0.127828,0.031957 0.228554,0.13511 0.353554,0.1767767 0.0559,0.018634 0.117851,0 0.176776,0 0.05893,0 0.117852,0 0.176777,0 0.117851,0 0.24175,-0.037268 0.353554,0 0.07906,0.026352 0.102241,0.1395089 0.176776,0.1767767 0.05271,0.026352 0.120875,-0.018634 0.176777,0 0.117851,0.058926 0.235702,0.1178511 0.353553,0.1767767 0.05893,0 0.120875,-0.018634 0.176777,0 0.02127,0.00709 0.692783,0.3499725 0.707107,0.3535533 0.114332,0.028583 0.24175,-0.037268 0.353553,0 0.07906,0.026352 0.09772,0.1504244 0.176777,0.1767767 1.172589,0 -0.25,-0.083333 0.53033,0.1767767 0.111803,0.037268 0.235702,0 0.353553,0 0.05893,0 0.117851,0 0.176777,0 0.117851,0 0.24175,-0.037268 0.353553,0 0.07906,0.026352 0.09772,0.1504244 0.176777,0.1767767 0.111804,0.037268 0.24175,-0.037268 0.353554,0 0.351776,0.1172589 0.0825,0.1649916 0.176776,0.3535535 0.03727,0.07454 0.102241,0.139509 0.176777,0.176777 0.07374,0.03687 0.312399,-0.04115 0.353553,0 0.04167,0.04167 0,0.117851 0,0.176776 0,0.05893 0,0.117851 0,0.176777 0,0.05893 -0.02635,0.124072 0,0.176777 0.03727,0.07453 0.139509,0.102241 0.176777,0.176776 0.02635,0.0527 0,0.117852 0,0.176777 0,0.05893 0,0.117851 0,0.176777 0,0.05893 0.02635,0.124072 0,0.176776 -0.07454,0.149072 -0.279018,0.204483 -0.353553,0.353554 -0.02635,0.0527 0,0.117851 0,0.176777 0,0.05893 0,0.117851 0,0.176776 0,0.235703 0,0.471405 0,0.707107 0,0.05893 0,0.117851 0,0.176777 0,0.05892 0.0527,0.150424 0,0.176776 -0.10541,0.0527 -0.24175,-0.03727 -0.353554,0 -0.218443,0.07281 -0.176776,0.196419 -0.176776,0.353554 0,0.05893 0.04167,0.13511 0,0.176777 -0.09317,0.09317 -0.260384,0.08361 -0.353554,0.176776 -0.04167,0.04167 0.04167,0.13511 0,0.176777 -0.04167,0.04167 -0.13511,-0.04167 -0.176777,0 -0.04167,0.04167 0.04167,0.13511 0,0.176777 -0.04167,0.04167 -0.124072,-0.02635 -0.176776,0 -0.07454,0.03727 -0.102241,0.139509 -0.176777,0.176776 -0.0527,0.02635 -0.124072,-0.02635 -0.176777,0 -0.07453,0.03727 -0.102241,0.139509 -0.176776,0.176777 -0.05271,0.02635 -0.117851,0 -0.176777,0 -0.117851,0 -0.235702,0 -0.353553,0 -0.353554,0 -0.707107,0 -1.060661,0 -0.766032,0 -1.532064,0 -2.298097,0 -0.235702,0 -0.471404,0 -0.707106,0 -0.117852,0 -0.239221,0.02858 -0.353554,0 -0.127827,-0.03196 -0.228553,-0.13511 -0.353553,-0.176777 -0.0559,-0.01863 -0.117851,0 -0.176777,0 -0.05893,0 -0.117851,0 -0.176777,0 -2.12132,0 -4.24264,0 -6.363961,0 -0.648181,0 -1.296362,0 -1.944543,0 -0.294628,0 -0.589256,0 -0.883884,0 -0.05893,0 -0.120875,0.01863 -0.176776,0 -0.125,-0.04167 -0.228554,-0.13511 -0.353554,-0.176776 -0.0559,-0.01863 -0.117851,0 -0.176777,0 -0.176776,-0.05893 -0.357318,-0.107573 -0.53033,-0.176777 -0.122337,-0.04893 -0.228553,-0.13511 -0.353553,-0.176777 -0.0559,-0.01863 -0.117851,0 -0.176777,0 -0.117851,0 -0.235702,0 -0.353553,0 -0.412479,0 -0.824958,0 -1.237437,0 -0.117851,0 -0.235702,0 -0.353553,0 -0.05893,0 -0.124072,0.02635 -0.176777,0 -0.07454,-0.03727 -0.09772,-0.150424 -0.176777,-0.176776 -0.111803,-0.03727 -0.235702,0 -0.353553,0 -0.235702,0 -0.471405,0 -0.707107,0 -0.05893,0 -0.124072,0.02635 -0.176777,0 -0.07453,-0.03727 -0.107439,-0.130552 -0.176776,-0.176777 -0.893042,-0.595361 -0.0041,-0.0014 -0.53033,-0.176777 -0.125,-0.04167 -0.235703,-0.117851 -0.353554,-0.176777 -1.281734,-0.640866 0.279509,0.186339 -0.53033,-0.353553 -0.109632,-0.07309 -0.243921,-0.103688 -0.353553,-0.176777 -0.06934,-0.04622 -0.107439,-0.130551 -0.176777,-0.176776 -0.109632,-0.07309 -0.260384,-0.08361 -0.353553,-0.176777 -0.04167,-0.04167 0.02635,-0.124072 0,-0.176777 -0.03727,-0.07454 -0.139509,-0.102241 -0.176777,-0.176776 -0.03687,-0.07374 0.04115,-0.312399 0,-0.353554 -0.04167,-0.04167 -0.13511,0.04167 -0.176777,0 -0.04167,-0.04167 0,-0.117851 0,-0.176777 0,-0.235294 0,-0.118259 0,-0.353553 0,-0.05893 0.02635,-0.124072 0,-0.176777 -0.03727,-0.07454 -0.139509,-0.102241 -0.176776,-0.176776 -0.02635,-0.0527 0,-0.117851 0,-0.176777 0,-0.05893 -0.02635,-0.124072 0,-0.176777 0.03727,-0.07453 0.139508,-0.102241 0.176776,-0.176776 0.02635,-0.0527 -0.02635,-0.124072 0,-0.176777 0.03727,-0.074536 0.139509,-0.1022412 0.176777,-0.1767768 0.02635,-0.052705 0,-0.1178511 0,-0.1767767 0,-0.058925 0,-0.1178511 0,-0.1767767 0,-0.058925 -0.02635,-0.124072 0,-0.1767767 0.03727,-0.074536 0.139509,-0.1022411 0.176777,-0.1767767 0.02635,-0.052705 -0.02635,-0.124072 0,-0.1767766 0.03727,-0.074536 0.130551,-0.1074392 0.176776,-0.1767767 0.07309,-0.1096323 0.103689,-0.2439212 0.176777,-0.3535534 0.04622,-0.069338 0.117851,-0.1178512 0.176777,-0.1767767 0.05893,-0.058926 0.117851,-0.1178512 0.176776,-0.1767767 0.05893,-0.058926 0.102241,-0.1395089 0.176777,-0.1767767 0.0527,-0.026352 0.13511,0.041667 0.176777,0 0.04167,-0.041667 -0.04167,-0.13511 0,-0.1767767 0.04115,-0.041155 0.27981,0.036871 0.353553,0 0.149071,-0.074536 0.204482,-0.2790178 0.353554,-0.3535534 0.0527,-0.026352 0.120875,0.018634 0.176776,0 0.125,-0.041667 0.228554,-0.13511 0.353554,-0.1767767 0.0559,-0.018634 0.13511,0.041667 0.176776,0 0.04167,-0.041667 -0.04167,-0.13511 0,-0.1767767 0.04167,-0.041667 0.124072,0.026352 0.176777,0 0.07454,-0.037268 0.102241,-0.1395089 0.176777,-0.1767767 0.0527,-0.026352 0.117851,0 0.176776,0 0.05893,0 0.117852,0 0.176777,0 0.05893,0 0.124072,0.026352 0.176777,0 0.07454,-0.037268 0.102241,-0.1395089 0.176777,-0.1767767 0.0527,-0.026352 0.124072,0.026352 0.176776,0 0.07454,-0.037268 0.09772,-0.1504244 0.176777,-0.1767767 0.111803,-0.037268 0.235702,0 0.353553,0 0.05893,0 0.120875,0.018634 0.176777,0 0.125,-0.041667 0.232445,-0.2286801 0.353553,-0.1767767 0.346801,0.1486288 0.506576,0.7071068 0.883884,0.7071068 0.377308,0 0.556289,-0.5199097 0.883883,-0.7071068 0.102324,-0.058471 0.235703,0 0.353554,0 0.471404,0 0.942809,0 1.414213,0 0.176777,0 0.353554,0 0.53033,0 0.117852,0 0.237991,0.023112 0.353554,0 0.429355,-0.085871 0.478563,-0.2578406 0.883883,-0.1767767 0.182721,0.036544 0.34761,0.1402326 0.53033,0.1767767 0.115563,0.023112 0.248144,-0.052705 0.353554,0 0.149071,0.074536 0.214878,0.2611034 0.353553,0.3535534 0.04903,0.032686 0.117851,0 0.176777,0 0.117851,0 0.24175,-0.037268 0.353553,0 0.07906,0.026352 0.107439,0.1305517 0.176777,0.1767767 0.304693,0.203129 0.267213,0.1767767 0.53033,0.1767767 0.05893,0 0.124072,-0.026352 0.176777,0 0.07453,0.037268 0.102241,0.1395089 0.176776,0.1767767 0.0527,0.026352 0.117852,0 0.176777,0 0.176777,0 0.353553,0 0.53033,0 0.414573,0 -0.08333,-0.041667 0.353554,0.1767767 0.0527,0.026352 0.117851,0 0.176776,0 0.176777,0 0.353554,0 0.53033,0 0.05893,0 0.117851,0 0.176777,0 0.05893,0 0.120875,-0.018634 0.176777,0 0.125,0.041667 0.228553,0.13511 0.353553,0.1767767 0.0559,0.018634 0.117851,0 0.176777,0 0.05893,0 0.117851,0 0.176777,0 0.05893,0 0.120875,-0.018634 0.176776,0 1.280467,0.4268224 -0.278707,-0.050965 0.53033,0.3535534 0.10541,0.052705 0.248144,-0.052705 0.353554,0 0.07454,0.037268 0.102241,0.1395089 0.176776,0.1767767 0.0527,0.026352 0.13511,-0.041667 0.176777,0 0.04167,0.041667 -0.05271,0.1504244 0,0.1767767 0.105409,0.052705 0.239221,-0.028583 0.353553,0 0.127828,0.031957 0.225726,0.1448198 0.353554,0.1767767 0.114332,0.028583 0.235702,0 0.353553,0 0.176777,0 0.353554,0 0.53033,0 0.05893,0 0.119611,-0.014292 0.176777,0 0.180775,0.045194 0.349555,0.1315828 0.53033,0.1767767 0.05717,0.014292 0.117851,0 0.176777,0 0.117851,0 0.235702,0 0.353553,0 0.05893,0 0.124072,-0.026352 0.176777,0 0.07454,0.037268 0.102241,0.1395089 0.176777,0.1767767 0.105409,0.052705 0.248144,-0.052705 0.353553,0 0.07454,0.037268 0.117851,0.1178511 0.176777,0.1767767 0.117851,0 0.24175,-0.037268 0.353553,0 0.158114,0.052705 0.19544,0.3008487 0.353553,0.3535533 0.111804,0.037268 0.24175,-0.037268 0.353554,0 0.03948,0.013159 0.302806,0.3281797 0.353553,0.3535534 0.05271,0.026352 0.13511,-0.041667 0.176777,0 0.04167,0.041667 -0.02635,0.1240721 0,0.1767767 0.03727,0.074536 0.117851,0.1178512 0.176777,0.1767768 0.05893,0.05893 0.102241,0.139509 0.176776,0.176777 0.05271,0.02635 0.117851,0 0.176777,0 0.117851,0 0.235702,0 0.353553,0 0.117852,0 0.248145,-0.0527 0.353554,0 0.0527,0.02635 -0.04167,0.13511 0,0.176776 0.04167,0.04167 0.127747,-0.03269 0.176777,0 0.117851,0.117851 0.235702,0.235703 0.353553,0.353554 0.05893,0 0.124072,-0.02635 0.176777,0 0.735702,0.367851 -0.188981,-0.0122 0.176776,0.353553 0.04167,0.04167 0.117851,0 0.176777,0 0.05893,0 0.117851,0 0.176777,0 0.05893,0 0.13511,-0.04167 0.176776,0 0.04167,0.04167 0,0.117851 0,0.176777 0,0.05893 0,0.117851 0,0.176776 0,0.05893 -0.04167,0.135111 0,0.176777 0.04167,0.04167 0.13511,-0.04167 0.176777,0 0.04167,0.04167 0,0.117851 0,0.176777 0,0.05892 0.02635,0.124072 0,0.176777 -0.03727,0.07453 -0.139509,0.102241 -0.176777,0.176776 -0.02635,0.0527 0.04167,0.13511 0,0.176777 -0.04167,0.04167 -0.13511,-0.04167 -0.176776,0 -0.04167,0.04167 0.04167,0.13511 0,0.176777 -0.04116,0.04115 -0.279811,-0.03687 -0.353554,0 -0.07453,0.03727 -0.107439,0.130551 -0.176776,0.176776 -0.109633,0.07309 -0.243922,0.103689 -0.353554,0.176777 -0.02389,0.01593 -0.337258,0.345406 -0.353553,0.353553 -0.05271,0.02635 -0.124072,-0.02635 -0.176777,0 -0.149071,0.07454 -0.204482,0.279018 -0.353553,0.353554 -0.05271,0.02635 -0.124072,-0.02635 -0.176777,0 -0.07454,0.03727 -0.102241,0.139509 -0.176777,0.176777 -0.0527,0.02635 -0.124072,-0.02635 -0.176776,0 -0.07454,0.03727 -0.102241,0.139508 -0.176777,0.176776 -0.05271,0.02635 -0.117851,0 -0.176777,0 -0.235702,0 -0.471404,0 -0.707107,0 -0.05892,0 -0.117851,0 -0.176776,0 -0.05893,0 -0.120875,-0.01863 -0.176777,0 -0.125,0.04167 -0.22435,0.150936 -0.353553,0.176777 -0.173344,0.03467 -0.353554,0 -0.53033,0 -0.471405,0 -0.942809,0 -1.414214,0 -1.001735,0 -2.003469,0 -3.005204,0 -1.59099,0 -3.18198,0 -4.772971,0 -0.53033,0 -1.06066,0 -1.59099,0 -0.176777,0 -0.353553,0 -0.53033,0 -0.05893,0 -0.124072,0.02635 -0.176777,0 -0.07453,-0.03727 -0.09772,-0.150424 -0.176776,-0.176777 -0.111804,-0.03727 -0.235703,0 -0.353554,0 -0.05893,0 -0.124072,0.02635 -0.176776,0 -0.07454,-0.03727 -0.102241,-0.139509 -0.176777,-0.176776 -0.05271,-0.02635 -0.120875,0.01863 -0.176777,0 -0.125,-0.04167 -0.225726,-0.14482 -0.353553,-0.176777 -0.114333,-0.02858 -0.235702,0 -0.353554,0 -0.294627,0 -0.589255,0 -0.883883,0 -0.117851,0 -0.239221,0.02858 -0.353553,0 -0.127828,-0.03196 -0.228554,-0.13511 -0.353554,-0.176777 -0.0559,-0.01863 -0.120875,0.01863 -0.176777,0 -0.125,-0.04167 -0.228553,-0.13511 -0.353553,-0.176777 -0.0559,-0.01863 -0.117851,0 -0.176777,0 -0.176776,0 -0.353553,0 -0.53033,0 -0.117851,0 -0.24175,0.03727 -0.353553,0 -0.07906,-0.02635 -0.117851,-0.117851 -0.176777,-0.176776 -0.05892,-0.05893 -0.117851,-0.117851 -0.176776,-0.176777 -0.05893,-0.05893 -0.102242,-0.139509 -0.176777,-0.176777 -0.0527,-0.02635 -0.117851,0 -0.176777,0 -0.176777,0 -0.358831,0.04288 -0.53033,0 -0.08085,-0.02021 -0.107439,-0.130551 -0.176777,-0.176776 -0.109632,-0.07309 -0.228553,-0.13511 -0.353553,-0.176777 -0.0559,-0.01863 -0.120875,0.01863 -0.176777,0 -0.125,-0.04167 -0.228553,-0.13511 -0.353553,-0.176777 -0.0559,-0.01863 -0.117851,0 -0.176777,0 -0.176777,0 -0.353553,0 -0.53033,0 -0.117851,0 -0.235702,0 -0.353553,0 -0.05893,0 -0.124072,0.02635 -0.176777,0 -0.149071,-0.07454 -0.204482,-0.279018 -0.353553,-0.353553 -0.0527,-0.02635 -0.176777,-0.05893 -0.176777,0 0,0.08333 0.235702,0.117851 0.176777,0.176777 -0.05893,0.05893 -0.117852,-0.117852 -0.176777,-0.176777 -0.05893,-0.05893 -0.117851,-0.117851 -0.176777,-0.176777 -0.05893,-0.05892 -0.102241,-0.139509 -0.176776,-0.176777 -0.0527,-0.02635 -0.135111,0.04167 -0.176777,0 -0.04167,-0.04167 0,-0.117851 0,-0.176776 0,-0.117851 0.0527,-0.248144 0,-0.353554 -0.182879,0 -0.244332,0.04167 -0.353554,-0.176776 -0.02635,-0.0527 0,-0.117851 0,-0.176777 0,-0.05893 0,-0.117851 0,-0.176777 0,-0.05893 0,-0.117851 0,-0.176776 0,-0.05893 -0.02635,-0.124072 0,-0.176777 0.03727,-0.074536 0.139509,-0.1022412 0.176777,-0.1767768 0.02635,-0.052705 0,-0.1178511 0,-0.1767767 0,-0.1178511 0,-0.2357022 0,-0.3535534 0,-0.1767767 0,-0.3535533 0,-0.53033 0,-0.058926 -0.04167,-0.1351101 0,-0.1767767 0.04167,-0.041667 0.13511,0.041667 0.176777,0 0.04167,-0.041667 0,-0.1178512 0,-0.1767767 0,-0.058926 0,-0.1178512 0,-0.1767767 0,-0.1178512 -0.0527,-0.2481442 0,-0.3535534 0.02635,-0.052705 0.120875,0.018634 0.176777,0 1.280467,-0.4268224 -0.278708,0.050965 0.53033,-0.3535534 0.0527,-0.026352 0.117851,0 0.176776,0 0.05893,0 0.117851,0 0.176777,0 0.05893,0 0.13511,0.041667 0.176777,0 0.04167,-0.041667 -0.04167,-0.13511 0,-0.1767767 0.04167,-0.041667 0.117851,0 0.176776,0 0.235703,0 0.471405,0 0.707107,0 0.05893,0 0.117851,0 0.176777,0 0.05892,0 0.124072,0.026352 0.176777,0 0.07454,-0.037268 0.102241,-0.1395089 0.176776,-0.1767767 0.0527,-0.026352 0.117851,0 0.176777,0 0.176777,0 0.353553,0 0.53033,0 0.353553,0 0.707107,0 1.06066,0 0.235702,0 0.471405,0 0.707107,0 0.117851,0 0.236887,0.016667 0.353553,0 0.297443,-0.042492 0.583421,-0.1767767 0.883884,-0.1767767 0.300462,0 0.587509,0.1273809 0.883883,0.1767767 0.05812,0.00969 0.117851,0 0.176777,0 0.05893,0 0.117851,0 0.176777,0 0.294628,0 0.589255,0 0.883883,0 0.824958,0 1.649916,0 2.474874,0"
       transform="translate(0,952.36218)"
       id="path2922"
       style="fill:none;stroke:#000000;stroke-width:1px;stroke-linecap:butt;stroke-linejoin:miter;stroke-opacity:1" />
    <path
       d="m 37.653436,31.410642 c -0.05893,0 -0.13511,-0.04167 -0.176777,0 -0.365757,0.365757 0.558926,-0.0143 -0.176776,0.353553 -0.07374,0.03687 -0.312399,-0.04115 -0.353554,0 -0.04167,0.04167 0.04167,0.135111 0,0.176777 -0.105647,0.105647 -0.353553,-0.191074 -0.353553,0.176777 0,0.05892 0.13511,0.04167 0.176777,0 0.235702,-0.235702 -0.294628,-0.176777 0.176776,-0.176777"
       transform="translate(0,952.36218)"
       id="path2926"
       style="fill:none;stroke:#000000;stroke-width:1px;stroke-linecap:butt;stroke-linejoin:miter;stroke-opacity:1" />
    <path
       d="m 37.830213,32.471302 c -0.08333,-0.08333 -0.27022,0.08333 -0.353554,0 -0.04167,-0.04167 0.04167,-0.13511 0,-0.176776 -0.04167,-0.04167 -0.117851,0 -0.176776,0 -0.05893,0 -0.117851,0 -0.176777,0 -0.05893,0 -0.13511,0.04167 -0.176777,0 -0.04167,-0.04167 0.04167,-0.13511 0,-0.176777 -0.04167,-0.04167 -0.124072,0.02635 -0.176776,0 -0.07454,-0.03727 -0.102241,-0.139509 -0.176777,-0.176777 -0.05271,-0.02635 -0.124072,0.02635 -0.176777,0 -0.07453,-0.03727 -0.102241,-0.139509 -0.176776,-0.176777 -0.05271,-0.02635 -0.13511,0.04167 -0.176777,0 -0.04167,-0.04167 0.04167,-0.13511 0,-0.176776 -0.04167,-0.04167 -0.124072,0.02635 -0.176777,0 -0.07453,-0.03727 -0.102241,-0.139509 -0.176776,-0.176777 -0.10541,-0.0527 -0.248145,0.0527 -0.353554,0 -0.07453,-0.03727 -0.235702,-0.117851 -0.176777,-0.176777 0.05893,-0.05893 0.117852,0.117852 0.176777,0.176777"
       transform="translate(0,952.36218)"
       id="path2928"
       style="fill:none;stroke:#000000;stroke-width:1px;stroke-linecap:butt;stroke-linejoin:miter;stroke-opacity:1" />
    <path
       d="m 43.31029,32.648079 c 0.117852,0.117851 0.235703,0.235702 0.353554,0.353553 0.117851,0.117851 0.214878,0.261104 0.353553,0.353554 0.04903,0.03269 0.127748,-0.03269 0.176777,0 0.138675,0.09245 0.214878,0.261103 0.353553,0.353553 0.04903,0.03269 0.117851,0 0.176777,0 0.117851,0 0.24175,-0.03727 0.353553,0 0.07906,0.02635 0.102241,0.139509 0.176777,0.176777 0.0527,0.02635 0.117851,0 0.176777,0 0.05893,0 0.117851,0 0.176776,0 0.05893,0 0.117852,0 0.176777,0 0.05893,0 0.124072,0.02635 0.176777,0 0.390863,-0.195432 0.05486,-0.109715 0.176777,-0.353554 0.03727,-0.07453 0.139508,-0.102241 0.176776,-0.176776 0.0527,-0.10541 -0.0527,-0.248144 0,-0.353554 0.03727,-0.07453 0.139509,-0.102241 0.176777,-0.176776 0.02635,-0.0527 0,-0.117851 0,-0.176777 0,-0.176777 0,-0.353553 0,-0.53033"
       transform="translate(0,952.36218)"
       id="path2930"
       style="fill:none;stroke:#000000;stroke-width:1px;stroke-linecap:butt;stroke-linejoin:miter;stroke-opacity:1" />
    <path
       d="m 44.901281,32.117749 c 0,0.117851 0,0.235702 0,0.353553 0,0.05893 0.04167,0.13511 0,0.176777 -0.04167,0.04167 -0.13511,-0.04167 -0.176777,0 -0.04167,0.04167 0.04167,0.13511 0,0.176777 -0.235702,0.235702 -0.176777,-0.294628 -0.176777,0.176776"
       transform="translate(0,952.36218)"
       id="path2932"
       style="fill:none;stroke:#000000;stroke-width:1px;stroke-linecap:butt;stroke-linejoin:miter;stroke-opacity:1" />
  </g>
</svg>
