<?xml version="1.0" encoding="UTF-8" standalone="no"?>
<!-- Created with Inkscape (http://www.inkscape.org/) -->

<svg
   xmlns:svg="http://www.w3.org/2000/svg"
   xmlns="http://www.w3.org/2000/svg"
   version="1.1"
   width="100"
   height="100"
   id="svg2">
  <defs
     id="defs4" />
  <g
     transform="translate(0,-952.36218)"
     id="layer1">
    <path
       d="m 42.426407,11.359114 c -0.168359,0 -0.336718,0 -0.505076,0 -0.08418,0 -0.177246,0.03765 -0.252538,0 -0.10648,-0.05324 -0.146059,-0.199298 -0.252539,-0.252538 -0.07529,-0.03765 -0.168358,0 -0.252538,0 -0.08418,0 -0.168358,0 -0.252538,0 -0.168359,0 -0.345357,0.05324 -0.505076,0 -0.112939,-0.03765 -0.1396,-0.214892 -0.252538,-0.252538 -0.159719,-0.05324 -0.336718,0 -0.505077,0 -0.252538,0 -0.505076,0 -0.757614,0 -0.336717,0 -0.673435,0 -1.010153,0 -0.08418,0 -0.168358,0 -0.252538,0 -0.08418,0 -0.177245,0.03765 -0.252538,0 -0.106479,-0.05324 -0.139599,-0.214892 -0.252538,-0.252538 -0.159719,-0.05324 -0.336717,0 -0.505076,0 -0.336718,0 -0.673435,0 -1.010153,0 -0.168358,0 -0.354491,0.07529 -0.505076,0 -0.212959,-0.10648 -0.306969,-0.373005 -0.505076,-0.505077 -0.07004,-0.04669 -0.168359,0 -0.252538,0 -0.168359,0 -0.336718,0 -0.505077,0 -0.505076,0 -1.010152,0 -1.515229,0 -0.08418,0 -0.177245,-0.03765 -0.252538,0 -0.837563,0.837564 0.238096,-0.1190473 -0.505076,0.252539 -0.106479,0.05324 -0.168359,0.168358 -0.252538,0.252538 -0.08418,0.08418 -0.168359,0.168358 -0.252538,0.252538 -0.08418,0.08418 -0.146059,0.199298 -0.252538,0.252538 -0.07529,0.03765 -0.193015,-0.05952 -0.252538,0 -0.05952,0.05952 0.05952,0.193014 0,0.252538 -0.05952,0.05952 -0.214892,-0.07529 -0.252539,0 -0.07529,0.150585 0.05324,0.345357 0,0.505076 -0.03765,0.112939 -0.199298,0.146059 -0.252538,0.252538 -0.310994,0.62199 0.733051,-0.227974 -0.252538,0.757615 -0.05952,0.05952 -0.193014,-0.05952 -0.252538,0 -0.52251,0.52251 0.798465,-0.02042 -0.252538,0.505076 -0.07529,0.03765 -0.193014,-0.05952 -0.252538,0 -0.119048,0.119048 0.119047,0.386029 0,0.505076 -0.05952,0.05952 -0.193015,-0.05952 -0.252538,0 -0.05952,0.05952 0.03765,0.177246 0,0.252539 -0.1007,0.201398 -0.404377,0.303677 -0.505077,0.505076 -0.03765,0.07529 0.03765,0.177246 0,0.252538 -0.05324,0.106479 -0.199298,0.146059 -0.252538,0.252538 -0.03765,0.07529 0,0.168359 0,0.252538 0,0.168359 0,0.336718 0,0.505077 0,0.08418 0.05952,0.193014 0,0.252538 -0.05952,0.05952 -0.193014,-0.05952 -0.252538,0 -0.05952,0.05952 0,0.168358 0,0.252538 0,0.08418 0,0.168359 0,0.252538 0,0.08418 0.03765,0.177246 0,0.252538 -0.05324,0.106479 -0.199298,0.146059 -0.252538,0.252538 -0.03765,0.07529 0,0.168359 0,0.252538 0,0.08418 0,0.168359 0,0.252538 0,0.336718 0,0.673435 0,1.010153 0,0.08418 0,0.168359 0,0.252538 0,0.08418 0.05952,0.193014 0,0.252538 -0.05952,0.05952 -0.193014,-0.05952 -0.252538,0 -0.05952,0.05952 0,0.168359 0,0.252538 0,0.08418 0,0.168359 0,0.252539 0,0.336717 0,0.673435 0,1.010152 0,0.08418 0,0.168359 0,0.252538 0,0.08418 0.03765,0.177246 0,0.252538 -0.05324,0.10648 -0.199299,0.146059 -0.252538,0.252539 -0.03765,0.07529 0,0.168358 0,0.252538 0,0.168358 0,0.336717 0,0.505076 0,0.168359 0,0.336717 0,0.505076 0,0.08418 0.05952,0.193015 0,0.252538 -0.05952,0.05952 -0.214892,-0.07529 -0.252539,0 -0.07529,0.150585 0,0.336718 0,0.505077 0,0.08418 0,0.168358 0,0.252538 0,0.08418 0.03765,0.177246 0,0.252538 -0.05324,0.106479 -0.199298,0.146059 -0.252538,0.252538 -0.03765,0.07529 0.03765,0.177246 0,0.252538 -0.05324,0.10648 -0.199298,0.146059 -0.252538,0.252538 -0.03765,0.07529 0.03765,0.177246 0,0.252538 -0.03625,0.0725 -0.486278,0.448681 -0.505076,0.505077 -0.05324,0.159719 0.05324,0.345357 0,0.505076 -0.03765,0.112938 -0.199298,0.146059 -0.252538,0.252538 -0.03765,0.07529 0.03765,0.177246 0,0.252538 -0.279188,0.558376 -0.156736,0.07837 -0.505076,0.252538 -1.051004,0.525502 0.269972,-0.01743 -0.252539,0.505077 -0.05952,0.05952 -0.214892,-0.07529 -0.252538,0 -0.07529,0.150584 0.07529,0.354491 0,0.505076 -0.03765,0.07529 -0.182496,-0.04669 -0.252538,0 -0.198107,0.132071 -0.306969,0.373005 -0.505076,0.505076 -0.07004,0.04669 -0.193014,-0.05952 -0.252538,0 -0.05952,0.05952 0.03765,0.177246 0,0.252538 -0.05324,0.10648 -0.168359,0.168359 -0.252538,0.252538 -0.08418,0.08418 -0.146059,0.199299 -0.252539,0.252539 -0.07529,0.03765 -0.193014,-0.05952 -0.252538,0 -0.05952,0.05952 0.05952,0.193014 0,0.252538 -0.133099,0.133099 -0.371977,0.119439 -0.505076,0.252538 -0.133099,0.133099 -0.148126,0.348459 -0.252538,0.505076 -0.06604,0.09905 -0.199299,0.146059 -0.252538,0.252538 -0.03765,0.07529 0.07529,0.214892 0,0.252538 -0.150585,0.07529 -0.354492,-0.07529 -0.505077,0 -0.07529,0.03765 0.05952,0.193015 0,0.252539 -0.05952,0.05952 -0.177245,-0.03765 -0.252538,0 -0.837563,0.837563 0.238096,-0.119048 -0.505076,0.252538 -0.106479,0.05324 -0.168359,0.168358 -0.252538,0.252538 -0.257143,0.257143 -0.247933,0.247933 -0.505076,0.505076 -0.08418,0.08418 -0.168359,0.168359 -0.252538,0.252538 -0.08418,0.08418 -0.199299,0.146059 -0.252539,0.252538 -0.03765,0.07529 0.03765,0.177246 0,0.252539 -0.05324,0.106479 -0.168358,0.168358 -0.252538,0.252538 -0.08418,0.08418 -0.146058,0.199298 -0.252538,0.252538 -0.34834,0.17417 -0.225888,-0.305838 -0.505076,0.252538 -0.03765,0.07529 0.03765,0.177246 0,0.252538 -0.05324,0.10648 -0.199299,0.146059 -0.252538,0.252538 -0.03765,0.07529 0.07529,0.214892 0,0.252538 -0.481831,0.240916 -0.486645,-0.2894 -0.757615,0.252538 -0.03765,0.07529 0,0.168359 0,0.252539 0,0.310994 0.03765,0.46743 -0.252538,0.757614 -0.05952,0.05952 -0.177246,-0.03765 -0.252538,0 -0.106479,0.05324 -0.168359,0.168359 -0.252538,0.252538 -0.08418,0.08418 -0.168359,0.168359 -0.252538,0.252538 -0.08418,0.08418 -0.199299,0.146059 -0.252538,0.252538 -0.03765,0.07529 0.05952,0.193015 0,0.252539 -0.05952,0.05952 -0.193015,-0.05952 -0.252539,0 -0.05952,0.05952 0.05952,0.193014 0,0.252538 -0.05952,0.05952 -0.193014,-0.05952 -0.252538,0 -0.05952,0.05952 0.03765,0.177246 0,0.252538 -0.05324,0.106479 -0.199298,0.146059 -0.252538,0.252538 -0.03765,0.07529 0.03765,0.177246 0,0.252538 -0.106479,0.212959 -0.398597,0.292118 -0.505076,0.505076 -0.03765,0.07529 0.03765,0.177246 0,0.252539 -0.05324,0.106479 -0.186502,0.153484 -0.252538,0.252538 -0.104412,0.156617 -0.148127,0.348458 -0.252538,0.505076 -0.06604,0.09905 -0.199299,0.146059 -0.252538,0.252538 -0.03765,0.07529 0.03765,0.177246 0,0.252538 -0.05324,0.10648 -0.199299,0.146059 -0.252539,0.252538 -0.119047,0.238096 -0.104877,0.536124 -0.252538,0.757615 -0.04669,0.07004 -0.214892,-0.07529 -0.252538,0 -0.07529,0.150584 0.05324,0.345357 0,0.505076 0.09439,0.550157 -0.420897,0.08418 -0.505076,0.252538 -0.07529,0.150585 0,0.336718 0,0.505076 0,0.336718 0,0.673435 0,1.010153 0,0.08418 0,0.168359 0,0.252538 0,0.08418 0.05952,0.193014 0,0.252538 -0.05952,0.05952 -0.193014,-0.05952 -0.252538,0 -0.05952,0.05952 0,0.168359 0,0.252538 0,0.168359 0,0.336718 0,0.505077 0,0.08418 0,0.168358 0,0.252538 0,0.08418 0.03765,0.177246 0,0.252538 -0.05324,0.106479 -0.199299,0.146059 -0.252538,0.252538 -0.03765,0.07529 0.03765,0.177246 0,0.252538 -0.05324,0.10648 -0.199299,0.146059 -0.252539,0.252538 -0.03765,0.07529 0,0.168359 0,0.252538 0,0.08418 0,0.168359 0,0.252539 0,0.336717 0,0.673435 0,1.010152 0,0.08418 0.05952,0.193015 0,0.252538 -0.05952,0.05952 -0.193014,-0.05952 -0.252538,0 -0.05952,0.05952 0,0.168359 0,0.252538 0,0.168359 0,0.336718 0,0.505077 0,0.168358 0,0.336717 0,0.505076 0,0.08418 0.05952,0.193014 0,0.252538 -0.336717,0.336718 -0.252538,-0.420897 -0.252538,0.252538 0,0.592247 -0.05952,-0.119047 0.252538,0.505077 0.03765,0.07529 0,0.336717 0,0.252538 0,-1.158057 -0.05324,0.266198 0.252538,-1.262691 0.03302,-0.165089 -0.04083,-0.341744 0,-0.505076 0.183105,-0.73242 0.197025,-0.295536 0.505077,-0.757615 0.104411,-0.156617 0.148126,-0.348458 0.252538,-0.505076 0.06604,-0.09905 0.186502,-0.153484 0.252538,-0.252538 0.104412,-0.156618 0.08418,-0.420897 0.252538,-0.505076 0.10648,-0.05324 0.168359,0.168358 0.252538,0.252538 0.08418,0.08418 0.199299,0.146058 0.252538,0.252538 0.05267,0.105347 -0.05879,0.446284 0,0.505076 0.05952,0.05952 0.193015,0.05952 0.252539,0 0.133099,-0.133099 0.206885,-0.322465 0.252538,-0.505076 0.04083,-0.163332 0,-0.336718 0,-0.505076 0,-0.168359 0,-0.336718 0,-0.505077 0,-0.168358 -0.04083,-0.341744 0,-0.505076 0.04565,-0.182611 0.193014,-0.326505 0.252538,-0.505076 0.02662,-0.07986 -0.03765,-0.177246 0,-0.252538 0.05324,-0.10648 0.199298,-0.146059 0.252538,-0.252538 0.03765,-0.07529 -0.08418,-0.252539 0,-0.252539 0.312062,0 0.252538,0.354152 0.252538,0.505077 0,0.168358 0,0.336717 0,0.505076 0,0.168359 -0.05324,0.345357 0,0.505076 0.03765,0.112939 0.186502,0.153485 0.252538,0.252538 0.104412,0.156618 0.119439,0.371977 0.252538,0.505077 0.05952,0.05952 0.193015,0.05952 0.252538,0 0.05952,-0.05952 0,-0.168359 0,-0.252539 0,-0.168358 0,-0.336717 0,-0.505076 0,-0.168359 -0.04083,-0.341744 0,-0.505076 0.09131,-0.365221 0.413771,-0.644931 0.505077,-1.010153 0.04083,-0.163332 -0.07529,-0.354491 0,-0.505076 0.03765,-0.07529 0.193014,0.05952 0.252538,0 0.05952,-0.05952 -0.08418,-0.252538 0,-0.252538 0.383208,0 0.20223,0.354152 0.252538,0.505076 0.05952,0.178572 0.119439,0.371977 0.252538,0.505077 0.05952,0.05952 0.177246,-0.03765 0.252538,0 0.10648,0.05324 0.168359,0.168358 0.252538,0.252538 0.08418,0.08418 0.168359,0.168358 0.252539,0.252538 0.08418,0.08418 0.199298,0.146059 0.252538,0.252538 0.03765,0.07529 -0.05952,0.193014 0,0.252538 0.05952,0.05952 0.193014,0.05952 0.252538,0 0.133099,-0.133099 0.168359,-0.336717 0.252538,-0.505076 0.08418,-0.168359 0.206885,-0.322466 0.252538,-0.505076 0.04083,-0.163332 0,-0.336718 0,-0.505077 0,-0.08418 -0.02662,-0.172678 0,-0.252538 0.05952,-0.178571 0.119439,-0.371977 0.252538,-0.505076 0.336718,-0.336718 0.252538,0.420897 0.252538,-0.252538 0,-0.08418 0,-0.168359 0,-0.252538 0,-0.150925 -0.05952,-0.505077 0.252539,-0.505077 0.08418,0 0,0.168359 0,0.252538 0,0.08418 -0.03765,0.177246 0,0.252539 0.05324,0.106479 0.168358,0.168358 0.252538,0.252538 0.08418,0.08418 0.168358,0.168358 0.252538,0.252538 0.08418,0.08418 0.199298,0.146059 0.252538,0.252538 0.03765,0.07529 -0.05952,0.193014 0,0.252538 0.05952,0.05952 0.193014,0.05952 0.252538,0 0.637887,-0.637887 0.09704,-0.291122 0.252538,-0.757614 0.05952,-0.178572 0.206886,-0.322466 0.252538,-0.505077 0.04083,-0.163332 0,-0.336717 0,-0.505076 0,-0.168359 0,-0.336717 0,-0.505076 0,-0.168359 -0.05324,-0.345357 0,-0.505076 0.03765,-0.112939 0.199299,-0.146059 0.252538,-0.252539 0.05267,-0.105346 -0.05879,-0.446283 0,-0.505076 0.05952,-0.05952 0.193015,0.05952 0.252539,0 0.05952,-0.05952 -0.05952,-0.193014 0,-0.252538 0.05952,-0.05952 0.193014,-0.05952 0.252538,0 0.05952,0.05952 -0.05952,0.193014 0,0.252538 0.52251,0.522511 -0.02043,-0.798465 0.505076,0.252538 0.03765,0.07529 -0.05952,0.193015 0,0.252538 0.133099,0.1331 0.348459,0.148127 0.505076,0.252539 0.09905,0.06603 0.146059,0.305777 0.252538,0.252538 0.168359,-0.08418 0.119439,-0.371977 0.252539,-0.505077 0.05952,-0.05952 0.177245,0.03765 0.252538,0 0.106479,-0.05324 0.146058,-0.199298 0.252538,-0.252538 0.07529,-0.03765 0.193014,0.05952 0.252538,0 0.133099,-0.133099 0.119439,-0.371977 0.252538,-0.505076 0.05952,-0.05952 0.177246,0.03765 0.252538,0 0.10648,-0.05324 0.146059,-0.199298 0.252538,-0.252538 0.448957,-0.224478 0.140299,0.140299 0.252539,0.252538 0.05952,0.05952 0.193014,0.05952 0.252538,0 0.05952,-0.05952 -0.02662,-0.172678 0,-0.252538 0.04211,-0.126316 0.462971,-0.883837 0.505076,-1.010153 0.155497,-0.466491 -0.385349,-0.119727 0.252538,-0.757614 0.05952,-0.05952 0.177246,0.03765 0.252538,0 0.10648,-0.05324 0.146059,-0.199298 0.252538,-0.252538 0.07529,-0.03765 0.177246,0.03765 0.252538,0 0.10648,-0.05324 0.199299,-0.146059 0.252539,-0.252538 0.17417,-0.348341 -0.305838,-0.225889 0.252538,-0.505077 0.07529,-0.03765 0.168359,0 0.252538,0 0.08418,0 0.193014,-0.05952 0.252538,0 0.05952,0.05952 -0.05952,0.193015 0,0.252539 0.119048,0.119047 0.386029,-0.119048 0.505076,0 0.1331,0.133099 0.119439,0.371977 0.252538,0.505076 0.05952,0.05952 0.177246,-0.03765 0.252539,0 0.106479,0.05324 0.146058,0.199298 0.252538,0.252538 0.105347,0.05267 0.446284,-0.05879 0.505076,0 0.05952,0.05952 -0.05952,0.193014 0,0.252538 0.05952,0.05952 0.193014,-0.05952 0.252538,0 0.05952,0.05952 -0.03765,0.177246 0,0.252538 0.05324,0.10648 0.199299,0.146059 0.252538,0.252538 0.03765,0.07529 -0.05952,0.193015 0,0.252539 0.05952,0.05952 0.193015,-0.05952 0.252538,0 0.05952,0.05952 -0.02662,0.172678 0,0.252538 0.609747,1.829239 -0.07281,-0.398154 0.505077,0.757614 0.03765,0.07529 0,0.168359 0,0.252538 0,0.168359 0,0.336718 0,0.505076 0,0.08418 -0.05952,0.193015 0,0.252539 0.05952,0.05952 0.252538,-0.08418 0.252538,0 0,0.119047 -0.168359,0.168358 -0.252538,0.252538 -0.08418,0.08418 -0.199299,0.146058 -0.252538,0.252538 -0.03765,0.07529 0.05952,0.193014 0,0.252538 -0.1331,0.133099 -0.348459,0.148127 -0.505077,0.252538 -0.09905,0.06604 -0.146058,0.199299 -0.252538,0.252538 -0.07529,0.03765 -0.172678,-0.02662 -0.252538,0 -1.829239,0.609747 0.398153,-0.07281 -0.757614,0.505077 -0.07529,0.03765 -0.193015,-0.05952 -0.252539,0 -0.05952,0.05952 0.05952,0.193014 0,0.252538 -0.05952,0.05952 -0.177245,-0.03765 -0.252538,0 -1.051003,0.525501 0.269973,-0.01743 -0.252538,0.505076 -0.05952,0.05952 -0.193014,-0.05952 -0.252538,0 -0.05952,0.05952 0.05952,0.193014 0,0.252538 -0.05952,0.05952 -0.193014,-0.05952 -0.252538,0 -0.05952,0.05952 0.05952,0.312062 0,0.252538 -0.290184,-0.290184 -0.252538,-0.44662 -0.252538,-0.757614 0,-0.168359 0.05324,-0.345357 0,-0.505076 -0.03765,-0.112939 -0.199299,-0.146059 -0.252538,-0.252539 -0.03765,-0.07529 0.05952,-0.193014 0,-0.252538 -0.05952,-0.05952 -0.214892,-0.07529 -0.252539,0 -0.07529,0.150585 0,0.336718 0,0.505077 0,0.08418 0,0.168358 0,0.252538 0,0.168358 -0.05324,0.345357 0,0.505076 0.03765,0.112938 0.214892,0.1396 0.252539,0.252538 0.05324,0.159719 0,0.336718 0,0.505076 0,0.08418 0,0.168359 0,0.252539 0,0.168358 0.119047,0.386028 0,0.505076 -0.08418,0.08418 -0.199299,-0.146059 -0.252539,-0.252538 -0.03765,-0.07529 0.02662,-0.172679 0,-0.252538 -0.08418,-0.168359 -0.168358,-0.336718 -0.252538,-0.505077 -0.08418,0 -0.193014,0.05952 -0.252538,0 -0.05952,-0.05952 0.05952,-0.193014 0,-0.252538 -0.05952,-0.05952 -0.193014,-0.05952 -0.252538,0 -0.05952,0.05952 0,0.168359 0,0.252538 0,0.336718 0,0.673435 0,1.010153 0,0.168359 0.04083,0.341744 0,0.505076 -0.04565,0.182611 -0.193014,0.326505 -0.252538,0.505076 -0.02662,0.07986 0,0.168359 0,0.252538 0,0.08418 0,0.168359 0,0.252539 0,0.08418 0,0.336717 0,0.252538 0,-1.149626 0.119048,-0.01444 -0.252538,-0.757615 -0.03765,-0.07529 0,-0.168358 0,-0.252538 0,-0.08418 0,-0.168359 0,-0.252538 0,-0.310995 0.03765,-0.618015 -0.252538,0.252538 -0.02662,0.07986 0,0.168359 0,0.252538 0,0.336718 0,0.673435 0,1.010153 0,0.08418 0,0.168359 0,0.252538 0,0.08418 0.08418,0.252538 0,0.252538 -0.119048,0 -0.146059,-0.199298 -0.252538,-0.252538 -0.07529,-0.03765 -0.168359,0 -0.252539,0 -0.08418,0 -0.193014,-0.05952 -0.252538,0 -0.05952,0.05952 0,0.168359 0,0.252538 0,0.168359 0.05324,0.345357 0,0.505076 -0.03765,0.112939 -0.199298,0.146059 -0.252538,0.252539 -0.03765,0.07529 0.08418,0.252538 0,0.252538 -0.119048,0 -0.168359,-0.168359 -0.252538,-0.252538 -0.08418,-0.08418 -0.146059,-0.199299 -0.252538,-0.252539 -0.20733,-0.103664 -0.699232,0.194156 -0.757615,0.252539 -0.05952,0.05952 0.03765,0.177245 0,0.252538 -0.05324,0.106479 -0.199298,0.146058 -0.252538,0.252538 -0.03765,0.07529 0.03765,0.177246 0,0.252538 -0.525501,1.051003 0.01743,-0.269972 -0.505076,0.252538 -0.05952,0.05952 -0.05952,0.193014 0,0.252538 0.05952,0.05952 0.252538,0.08418 0.252538,0 0,-0.119047 -0.199298,-0.146058 -0.252538,-0.252538 -0.03765,-0.07529 0.02662,-0.172678 0,-0.252538 -0.05952,-0.178571 -0.193014,-0.326505 -0.252538,-0.505076 -0.0481,-0.144308 0.132282,-0.444948 -0.252538,-0.252538 -0.444594,0.222297 -0.149289,0.344616 -0.252538,0.757614 -0.04565,0.182611 -0.168359,0.336718 -0.252539,0.505076 -0.08418,0.168359 -0.148126,0.348459 -0.252538,0.505077 -0.06603,0.09905 -0.146058,0.199298 -0.252538,0.252538 -0.07529,0.03765 -0.168359,0 -0.252538,0 -0.08418,0 -0.168359,0 -0.252538,0 -0.08418,0 -0.177246,0.03765 -0.252538,0 -0.10648,-0.05324 -0.133491,-0.252538 -0.252538,-0.252538 -0.168359,0 0.119047,0.386028 0,0.505076 -0.05952,0.05952 -0.168359,0 -0.252538,0 -0.08418,0 -0.168359,0 -0.252539,0 -0.08418,0 -0.177245,-0.03765 -0.252538,0 -0.106479,0.05324 -0.168359,0.168359 -0.252538,0.252538 -0.08418,0.08418 -0.199298,0.146059 -0.252538,0.252538 -0.05267,0.105347 0.05879,0.446284 0,0.505076 -0.266199,0.266199 -0.743954,0.238878 -1.010153,0.505077 -0.52251,0.52251 0.798466,-0.02043 -0.252538,0.505076 -0.07529,0.03765 -0.168358,0 -0.252538,0 -0.252538,0 -0.505076,0 -0.757614,0 -0.08418,0 -0.193015,0.05952 -0.252538,0 -0.05952,-0.05952 0.05952,-0.193014 0,-0.252538 -0.05952,-0.05952 -0.193015,-0.05952 -0.252539,0 -0.05952,0.05952 0.03765,0.177246 0,0.252538 -0.05324,0.106479 -0.252538,0.13349 -0.252538,0.252538 0,0.08418 0.168359,0 0.252538,0 0.168359,0 0.336718,0 0.505077,0 0.420897,0 0.841794,0 1.26269,0 1.43105,0 2.862099,0 4.293149,0 0.08418,0 0.168359,0 0.252538,0 0.08418,0 0.177246,0.03765 0.252538,0 0.106479,-0.05324 0.146059,-0.199298 0.252538,-0.252538 0.07529,-0.03765 0.168359,0 0.252538,0 0.08418,0 0.168359,0 0.252538,0 0.08418,0 0.193015,0.05952 0.252539,0 0.05952,-0.05952 -0.05952,-0.193014 0,-0.252538 0.05952,-0.05952 0.168358,0 0.252538,0 0.08418,0 0.168358,0 0.252538,0 0.673435,0 1.34687,0 2.020305,0 0.08418,0 0.193014,0.05952 0.252538,0 0.05952,-0.05952 -0.05952,-0.193015 0,-0.252538 0.05952,-0.05952 0.168359,0 0.252538,0 0.08418,0 0.168359,0 0.252538,0 0.08418,0 0.193015,0.05952 0.252538,0 0.05952,-0.05952 -0.05952,-0.193015 0,-0.252539 0.05879,-0.05879 0.39973,0.05267 0.505077,0 0.106479,-0.05324 0.146058,-0.199298 0.252538,-0.252538 0.07529,-0.03765 0.252538,-0.08418 0.252538,0 0,0.119048 -0.252538,0.133491 -0.252538,0.252538 0,0.08418 0.168359,0 0.252538,0 0.08418,0 0.193014,0.05952 0.252538,0 0.05952,-0.05952 -0.05952,-0.193014 0,-0.252538 0.05952,-0.05952 0.177246,0.03765 0.252538,0 0.10648,-0.05324 0.146059,-0.199298 0.252538,-0.252538 0.150585,-0.07529 0.354492,0.07529 0.505077,0 0.106479,-0.05324 0.146058,-0.199298 0.252538,-0.252538 0.673435,0 -0.08418,0.08418 0.252538,-0.252538 0.05879,-0.05879 0.399729,0.05267 0.505076,0 0.10648,-0.05324 0.146059,-0.199298 0.252538,-0.252538 0.07529,-0.03765 0.193015,0.05952 0.252539,0 0.05952,-0.05952 -0.05952,-0.193015 0,-0.252538 0.119047,-0.119048 0.386028,0.119047 0.505076,0 0.05952,-0.05952 -0.05952,-0.193015 0,-0.252538 0.05952,-0.05952 0.193014,0.05952 0.252538,0 0.05952,-0.05952 -0.05952,-0.193015 0,-0.252539 0.05952,-0.05952 0.193014,0.05952 0.252538,0 0.05952,-0.05952 -0.05952,-0.193014 0,-0.252538 0.05952,-0.05952 0.193014,0.05952 0.252538,0 0.05952,-0.05952 -0.05952,-0.193014 0,-0.252538 0.05952,-0.05952 0.168359,0 0.252538,0 0.08418,0 0.168359,0 0.252538,0 0.08418,0 0.193015,0.05952 0.252539,0 0.119047,-0.119047 -0.119048,-0.386029 0,-0.505076 0.05952,-0.05952 0.168358,0 0.252538,0 0.08418,0 0.168359,0 0.252538,0 0.08418,0 0.193014,0.05952 0.252538,0 0.05952,-0.05952 -0.05952,-0.193014 0,-0.252538 0.05952,-0.05952 0.193014,0.05952 0.252538,0 0.05952,-0.05952 -0.05952,-0.193015 0,-0.252538 0.522511,-0.522511 -0.02043,0.798465 0.505076,-0.252539 0.03765,-0.07529 -0.05952,-0.193014 0,-0.252538 0.119048,-0.119047 0.386029,0.119048 0.505077,0 0.05952,-0.05952 -0.05952,-0.193014 0,-0.252538 0.05952,-0.05952 0.193014,0.05952 0.252538,0 0.05952,-0.05952 -0.03765,-0.177246 0,-0.252538 0.05324,-0.106479 0.199298,-0.146059 0.252538,-0.252538 0.03765,-0.07529 -0.05952,-0.193014 0,-0.252538 0.119048,-0.119048 0.386029,0.119047 0.505076,0 0.05952,-0.05952 -0.05952,-0.193015 0,-0.252538 0.05952,-0.05952 0.172679,0.02662 0.252538,0 0.178572,-0.05952 0.348459,-0.148127 0.505077,-0.252539 0.500292,0.02521 0.119439,-0.371976 0.252538,-0.505076 0.05952,-0.05952 0.193014,0.05952 0.252538,0 0.05879,-0.05879 -0.05267,-0.399729 0,-0.505076 0.279188,-0.558376 0.156736,-0.07837 0.505076,-0.252538 0.10648,-0.05324 0.168359,-0.168359 0.252538,-0.252538 0.08418,-0.08418 0.199299,-0.146059 0.252538,-0.252538 0.03765,-0.07529 -0.05952,-0.193015 0,-0.252539 0.05952,-0.05952 0.193015,0.05952 0.252539,0 0.05952,-0.05952 -0.03765,-0.177245 0,-0.252538 0.05324,-0.106479 0.199298,-0.146058 0.252538,-0.252538 0.03765,-0.07529 -0.05952,-0.193014 0,-0.252538 0.05952,-0.05952 0.177246,0.03765 0.252538,0 1.051003,-0.525502 -0.269972,0.01743 0.252538,-0.505076 0.05952,-0.05952 0.193014,0.05952 0.252538,0 0.119048,-0.119048 -0.119047,-0.386029 0,-0.505077 0.05952,-0.05952 0.193015,0.05952 0.252538,0 0.05952,-0.05952 0,-0.168358 0,-0.252538 0,-0.08418 0,-0.168358 0,-0.252538 0,-0.08418 -0.05952,-0.193014 0,-0.252538 0.05952,-0.05952 0.193015,0.05952 0.252538,0 0.05952,-0.05952 -0.05952,-0.193014 0,-0.252538 0.05952,-0.05952 0.193015,0.05952 0.252539,0 0.05952,-0.05952 -0.05952,-0.193014 0,-0.252538 0.119047,-0.119048 0.386028,0.119047 0.505076,0 0.119047,-0.119048 -0.119048,-0.386029 0,-0.505077 0.05952,-0.05952 0.193014,0.05952 0.252538,0 0.05952,-0.05952 -0.05952,-0.193014 0,-0.252538 0.05952,-0.05952 0.193014,0.05952 0.252538,0 0.05952,-0.05952 -0.05952,-0.193014 0,-0.252538 0.119048,-0.119047 0.386029,0.119048 0.505076,0 0.05952,-0.05952 -0.05952,-0.193014 0,-0.252538 0.1331,-0.133099 0.371977,-0.119439 0.505077,-0.252538 0.05952,-0.05952 -0.05952,-0.193014 0,-0.252538 0.05952,-0.05952 0.193014,0.05952 0.252538,0 0.119047,-0.119048 -0.119048,-0.386029 0,-0.505076 0.05952,-0.05952 0.193014,0.05952 0.252538,0 0.119048,-0.119048 -0.168359,-0.505077 0,-0.505077 0.119048,0 0.146059,0.199299 0.252538,0.252538 0.673435,0.336718 -0.08418,-0.252538 0.252538,-0.252538 0.08418,0 -0.08418,0.252538 0,0.252538 0.119048,0 0.168359,-0.168358 0.252538,-0.252538 0.08418,-0.08418 0.146059,-0.199298 0.252538,-0.252538 0.07529,-0.03765 0.168359,0 0.252539,0 0.08418,0 0.168358,0 0.252538,0"
       transform="translate(0,952.36218)"
       id="path2818"
       style="fill:none;stroke:#000000;stroke-width:1px;stroke-linecap:butt;stroke-linejoin:miter;stroke-opacity:1" />
    <path
       d="M 37.375644,21.713178 35.102801,17.672567"
       transform="translate(0,952.36218)"
       id="path2820"
       style="fill:none;stroke:#000000;stroke-width:1px;stroke-linecap:butt;stroke-linejoin:miter;stroke-opacity:1" />
    <path
       d="m 44.194174,39.895923 c 0.04379,0.08757 0.36273,0.53723 0.252538,0.757615 -0.05324,0.106479 -0.214892,0.1396 -0.252538,0.252538 -0.05324,0.159719 0,0.336718 0,0.505076 0,0.168359 0,0.336718 0,0.505077 0,0.252538 0,0.505076 0,0.757614 0,0.168359 -0.04083,0.341744 0,0.505076 0.0051,0.02046 0.494948,0.979767 0.505076,1.010153 0.02662,0.07986 -0.02662,0.172678 0,0.252538 0.05952,0.178571 0.168359,0.336717 0.252538,0.505076 0.08418,0.168359 0.168359,0.336718 0.252538,0.505076 0.08418,0.168359 0.155695,0.34367 0.252539,0.505077 0.156156,0.26026 0.322968,0.514804 0.505076,0.757614 0.07143,0.09524 0.186502,0.153485 0.252538,0.252538 0.104412,0.156618 0.168359,0.336718 0.252538,0.505077 0.08418,0.168358 0.182631,0.330308 0.252538,0.505076 0.145516,0.36379 0.251256,0.924264 0.505077,1.262691 0.142857,0.190476 0.382577,0.300911 0.505076,0.505076 0.136958,0.228263 0.11558,0.529351 0.252538,0.757614 0.122499,0.204165 0.382577,0.300912 0.505076,0.505076 0.136958,0.228264 0.03958,0.597896 0.252538,0.757615 0.202031,0.151523 0.555584,-0.151523 0.757615,0 0.212959,0.159719 0.168359,0.505076 0.252538,0.757614 0.101861,0.305584 0.282125,0.965422 0.505076,1.262691 0.142857,0.190476 0.362219,0.3146 0.505076,0.505076 0.112939,0.150585 0.148127,0.348459 0.252539,0.505077 0.132071,0.198107 0.362219,0.3146 0.505076,0.505076 0.182108,0.24281 0.315473,0.52061 0.505076,0.757614 0.148737,0.185921 0.398597,0.292118 0.505076,0.505077 0.07529,0.150584 -0.07529,0.354491 0,0.505076 0.10648,0.212959 0.336718,0.336717 0.505077,0.505076 0.168358,0.336718 0.35678,0.66413 0.505076,1.010153 0.104861,0.244675 0.179408,0.501658 0.252538,0.757614 0.09535,0.333726 0.115817,0.691135 0.252538,1.010153 0.358749,0.837081 0.508854,0.636067 1.010153,1.26269 0.475933,0.594917 0.664502,1.076467 1.010152,1.767767 0.08418,0.168359 0.193015,0.326505 0.252538,0.505076 0.109757,0.32927 0.157188,0.676427 0.252539,1.010153 0.07313,0.255956 0.208775,0.495038 0.252538,0.757614 0.04152,0.249103 -0.07986,0.518036 0,0.757615 0.09598,0.287938 0.34892,0.497354 0.505076,0.757614 0.09684,0.161407 0.182631,0.330309 0.252538,0.505077 0.09886,0.247159 0.11558,0.529351 0.252538,0.757614 0.122499,0.204165 0.35634,0.319155 0.505077,0.505076 0.189603,0.237004 0.315473,0.520611 0.505076,0.757615 0.148737,0.185921 0.356339,0.319155 0.505076,0.505076 0.189603,0.237004 0.310772,0.524449 0.505076,0.757614 0.228638,0.274365 0.55003,0.466996 0.757615,0.757615 0.218814,0.306339 0.296253,0.696917 0.505076,1.010152 0.132072,0.198107 0.373005,0.306969 0.505076,0.505077 0.208824,0.313235 0.286263,0.703813 0.505077,1.010152 0.207585,0.290619 0.597895,0.438176 0.757614,0.757614 0.112939,0.225877 -0.06938,0.514793 0,0.757615 0.244622,0.856178 0.470947,0.976023 1.010153,1.515229 0.08418,0.08418 0.153484,0.186502 0.252538,0.252538 0.156617,0.104412 0.348458,0.148126 0.505076,0.252538 0.09905,0.06604 0.168359,0.168359 0.252538,0.252538 0.08418,0.08418 0.168359,0.168359 0.252538,0.252538 0.08418,0.08418 0.133491,0.252538 0.252538,0.252538 0.188231,0 0.326505,-0.193014 0.505077,-0.252538 0.07986,-0.02662 0.168358,0 0.252538,0 0.168359,0 0.336717,0 0.505076,0 0.08418,0 0.168359,0 0.252538,0 0.168359,0 0.345357,-0.05324 0.505076,0 0.112939,0.03765 0.146059,0.199299 0.252539,0.252538 0.07529,0.03765 0.193014,-0.05952 0.252538,0 0.05952,0.05952 -0.05952,0.193015 0,0.252539 0.133099,0.133099 0.348459,0.148126 0.505076,0.252538 0.03413,0.02275 0.481797,0.493436 0.505076,0.505076 0.07529,0.03765 0.193015,-0.05952 0.252538,0 0.05952,0.05952 -0.03765,0.177246 0,0.252538 0.837564,0.837564 -0.119047,-0.238095 0.252539,0.505076 0.05324,0.10648 0.168358,0.168359 0.252538,0.252538 0.08418,0.08418 0.168358,0.168359 0.252538,0.252539 0.168359,0.168358 0.306969,0.373004 0.505076,0.505076 0.07004,0.04669 0.193014,-0.05952 0.252538,0 0.522511,0.52251 -0.798465,-0.02043 0.252538,0.505076 0.07529,0.03765 0.177246,-0.03765 0.252539,0 0.106479,0.05324 0.146058,0.199299 0.252538,0.252538 0.150584,0.07529 0.354491,-0.07529 0.505076,0 0.106479,0.05324 0.146059,0.199299 0.252538,0.252538 0.07529,0.03765 0.193014,-0.05952 0.252538,0 0.05952,0.05952 -0.05952,0.193015 0,0.252539 0.133099,0.133099 0.348459,0.148126 0.505076,0.252538 0.198108,0.132071 0.314601,0.362219 0.505077,0.505076 0.24281,0.182108 0.505076,0.336717 0.757614,0.505076 1.535336,1.023557 -0.09595,0.05872 1.767767,0.757615 0.352492,0.132184 0.66413,0.35678 1.010153,0.505076 0.01728,0.0074 1.505303,0.500114 1.515228,0.505076 0.271471,0.135735 0.469677,0.409097 0.757615,0.505076 0.239579,0.07986 0.507614,-0.03571 0.757614,0 0.343592,0.04909 0.680883,0.142782 1.010153,0.252539 1.010152,0.336717 -0.05106,0.242325 1.262691,0.505076 0.165089,0.03302 0.336717,0 0.505076,0 0.252538,0.08418 0.499364,0.187975 0.757614,0.252538 0.08167,0.02042 0.168359,0 0.252538,0 0.168359,0 0.336718,0 0.505077,0 0.673435,0 1.34687,0 2.020305,0 0.252538,0 0.505076,0 0.757614,0 0.168359,0 0.345357,-0.05324 0.505076,0 0.112939,0.03765 0.1396,0.214892 0.252539,0.252538 0.159719,0.05324 0.336717,0 0.505076,0 0.252538,0 0.505076,0 0.757614,0 0.505076,0 1.010153,0 1.515229,0 0.168359,0 0.336718,0 0.505076,0 0.08418,0 0.177246,-0.03765 0.252538,0 0.624124,0.312062 -0.08717,0.252538 0.505077,0.252538 0.08418,0 0.193014,0.05952 0.252538,0 0.05952,-0.05952 -0.07986,-0.225918 0,-0.252538 0.239579,-0.07986 0.505076,0 0.757614,0 0.168359,0 0.336718,0 0.505077,0 0.505076,0 1.010152,0 1.515228,0 0.168359,0 0.336718,0 0.505077,0 0.08418,0 0.312062,0.05952 0.252538,0 -0.1331,-0.133099 -0.348459,-0.148126 -0.505077,-0.252538 -0.09905,-0.06604 -0.168358,-0.168359 -0.252538,-0.252538 -0.168358,-0.168359 -0.3146,-0.362219 -0.505076,-0.505076 -0.580369,-0.435277 -0.505076,5.79e-4 -0.505076,-0.505077"
       transform="translate(0,952.36218)"
       id="path2826"
       style="fill:none;stroke:#000000;stroke-width:1px;stroke-linecap:butt;stroke-linejoin:miter;stroke-opacity:1" />
    <path
       d="m 42.426407,12.369267 c 0.08418,0.08418 0.146059,0.199298 0.252538,0.252538 0.07529,0.03765 0.168359,0 0.252538,0 0.168359,0 0.345357,-0.05324 0.505076,0 0.112939,0.03765 0.137045,0.223665 0.252539,0.252538 0.244998,0.06125 0.523138,-0.09379 0.757614,0 0.221066,0.08843 0.3146,0.362219 0.505076,0.505076 1.347369,1.010526 -0.337216,-0.50545 1.010153,0.505076 0.190476,0.142858 0.306969,0.373005 0.505076,0.505077 0.07004,0.04669 0.168359,0 0.252538,0 0.168359,0.08418 0.371977,0.119439 0.505077,0.252538 0.05952,0.05952 0,0.168359 0,0.252538 0.168358,0.168359 0.306969,0.373005 0.505076,0.505076 0.07004,0.04669 0.168359,0 0.252538,0 0.168359,0.08418 0.371977,0.119439 0.505076,0.252538 0.1331,0.1331 0.148127,0.348459 0.252538,0.505077 0.385256,0.577884 0.199902,-0.15791 0.505077,0.757614 0.02662,0.07986 -0.07529,0.214892 0,0.252538 0.150584,0.07529 0.364993,-0.09339 0.505076,0 0.484216,0.322811 0.09323,0.864426 0.252538,1.262691 0.08843,0.221066 0.362219,0.3146 0.505076,0.505076 0.0094,0.01256 0.492592,0.991426 0.505077,1.010153 0.06603,0.09905 0.199298,0.146058 0.252538,0.252538 0.119047,0.238095 0.13349,0.519519 0.252538,0.757614 0.05324,0.10648 0.223665,0.137045 0.252538,0.252538 0.06125,0.244998 -0.09379,0.523139 0,0.757615 0.08843,0.221066 0.373005,0.306969 0.505076,0.505076 0.04669,0.07004 0,0.168359 0,0.252538 0.08418,0.252538 0.09282,0.544656 0.252538,0.757615 0.112939,0.150584 0.400665,0.09592 0.505077,0.252538 0.09339,0.140083 -0.04083,0.341744 0,0.505076 0.04565,0.182611 0.168358,0.336718 0.252538,0.505076 0.673435,1.34687 -0.252538,-0.252538 0.757614,0.757615 0.1331,0.133099 0.168359,0.336717 0.252538,0.505076 0.168359,0.336717 0.336718,0.673435 0.505077,1.010153 0.08418,0.168358 0.139599,0.354491 0.252538,0.505076 0.142857,0.190476 0.336717,0.336717 0.505076,0.505076 0.08418,0.08418 0.168359,0.168359 0.252538,0.252538 0.08418,0.08418 0.199299,0.146059 0.252538,0.252538 0.03765,0.07529 -0.03765,0.177246 0,0.252538 0.05324,0.10648 0.168359,0.168359 0.252538,0.252539 0.08418,0.08418 0.168359,0.168358 0.252539,0.252538 0.08418,0.08418 0.186502,0.153484 0.252538,0.252538 0.104411,0.156617 0.148126,0.348459 0.252538,0.505076 0.06604,0.09905 0.223665,0.137045 0.252538,0.252538 0.06125,0.244998 -0.07986,0.518036 0,0.757615 0.02662,0.07986 0.177246,-0.03765 0.252538,0 0.10648,0.05324 0.168359,0.168358 0.252538,0.252538 0.171429,0.171428 0.333648,0.333648 0.505077,0.505076 0.08418,0.08418 0.199298,0.146059 0.252538,0.252538 0.03765,0.07529 0,0.168359 0,0.252538 0,0.168359 0,0.336718 0,0.505077"
       transform="translate(0,952.36218)"
       id="path2828"
       style="fill:none;stroke:#000000;stroke-width:1px;stroke-linecap:butt;stroke-linejoin:miter;stroke-opacity:1" />
    <path
       d="m 58.083771,38.633233 c 0.429737,-0.214869 0.736649,-0.301775 1.010153,-0.757615 0.136958,-0.228263 0.208775,-0.495037 0.252538,-0.757614 0.04152,-0.249102 -0.04953,-0.50998 0,-0.757614 0.03692,-0.184576 0.182631,-0.330309 0.252538,-0.505077 0.24153,-0.603824 0.345434,-1.129196 0.505077,-1.767767 0.08418,-0.336717 0.203453,-0.66656 0.252538,-1.010152 0.155179,-1.086257 -0.274524,-0.537957 0.252538,-1.767767 1.325015,-3.091702 -0.0606,1.313143 0.505076,-1.515229 0.03692,-0.184575 0.155694,-0.34367 0.252538,-0.505076 0.3562,-0.593667 0.669177,-0.807729 0.757615,-1.515229 0.05221,-0.417647 -0.05952,-0.846024 0,-1.262691 0.06876,-0.481349 0.486583,-0.671364 0.757614,-1.010152 1.230654,-1.538317 0.316788,-0.257 0.505076,-1.010153 0.06456,-0.25825 0.200333,-0.496585 0.252538,-0.757614 0.03302,-0.16509 0,-0.336718 0,-0.505077 0,-0.589255 0,-1.178511 0,-1.767766 0,-0.252539 0,-0.505077 0,-0.757615 0,-0.168359 -0.03302,-0.339987 0,-0.505076 -0.05795,-0.507132 0.39513,-0.822906 0.505077,-1.262691 0.04083,-0.163332 0,-0.336717 0,-0.505076 0,-0.252538 0,-0.505076 0,-0.757615 0,-0.673435 0,-1.34687 0,-2.020305 0,-0.168358 0,-0.336717 0,-0.505076 0,-0.08418 -0.02662,-0.172678 0,-0.252538 0.05952,-0.178571 0.193014,-0.326505 0.252538,-0.505076 0.02662,-0.07986 0,-0.168359 0,-0.252538 0,-0.168359 0.05324,-0.345358 0,-0.505077 -0.03765,-0.112938 -0.199299,-0.146058 -0.252538,-0.252538 -0.03765,-0.07529 0,-0.168359 0,-0.252538 0,-0.168359 0,-0.336718 0,-0.505076 0,-0.08418 0.02662,-0.172679 0,-0.252538 -0.05952,-0.178572 -0.252538,-0.316846 -0.252538,-0.505077 0,-0.119047 0.252538,-0.13349 0.252538,-0.252538 0,-0.188231 -0.206886,-0.322465 -0.252538,-0.505076 -0.04083,-0.163332 0,-0.336718 0,-0.505076 0,-0.08418 0,-0.168359 0,-0.252538 0,-0.7003182 0.03765,0.403122 -0.252539,-0.7576149 -0.04083,-0.163332 0.05324,-0.3453571 0,-0.5050763 -0.03765,-0.1129385 -0.252538,-0.1334905 -0.252538,-0.2525381 0,-0.1190476 0.252538,-0.1334905 0.252538,-0.2525382 0,-0.1190476 -0.199298,-0.1460587 -0.252538,-0.2525381 -0.03765,-0.075292 0.03765,-0.1772458 0,-0.2525381 -0.05324,-0.1064795 -0.199298,-0.1460587 -0.252538,-0.2525382 -0.03765,-0.075292 0,-0.1683587 0,-0.2525381 0,-0.084179 0,-0.1683588 0,-0.2525381 0,-0.084179 0.03765,-0.1772458 0,-0.2525382 -0.05324,-0.1064794 -0.199298,-0.1460587 -0.252538,-0.2525381 -0.03765,-0.075292 0,-0.1683588 0,-0.2525381 0,-0.2525382 0,-0.5050763 0,-0.7576145 0,-0.5892556 0,-1.1785113 0,-1.7677669 0,-0.1683588 0,-0.3367175 0,-0.5050763 0,-0.084179 0.03765,-0.1772458 0,-0.2525381 -0.05324,-0.1064794 -0.199298,-0.1460587 -0.252538,-0.2525382 -0.03765,-0.075292 0,-0.1683587 0,-0.2525381 0,-0.084179 0,-0.1683588 0,-0.2525381 0,-0.084179 0.05952,-0.1930144 0,-0.2525382 -0.05952,-0.059524 -0.193014,0.059524 -0.252538,0 -0.05952,-0.059524 0,-0.1683587 0,-0.2525381 0,-0.1683588 0,-0.3367175 0,-0.5050763 0,-0.084179 -0.05952,-0.1930143 0,-0.2525381 0.05952,-0.059524 0.168358,0 0.252538,0"
       transform="translate(0,952.36218)"
       id="path2830"
       style="fill:none;stroke:#000000;stroke-width:1px;stroke-linecap:butt;stroke-linejoin:miter;stroke-opacity:1" />
    <path
       d="m 78.034284,67.170042 c 0.08418,0.168359 0.119439,0.371977 0.252538,0.505077 0.05952,0.05952 0.182498,-0.04669 0.252538,0 0.624124,0.416082 0.505077,0.414088 0.505077,1.010152 0,0.08418 0.05952,0.193018 0,0.252538 -0.71831,0.71831 0.213233,-0.71831 -0.505077,0 -0.119047,0.119048 0.119048,0.386029 0,0.505076 -0.05952,0.05952 -0.252538,-0.08418 -0.252538,0 0,0.08418 0.177248,0.03765 0.252538,0 0.10648,-0.05324 0.146059,-0.199298 0.252539,-0.252538 0.07529,-0.03765 0.193018,0.05952 0.252538,0 0.05952,-0.05952 -0.03765,-0.177248 0,-0.252538 0.05324,-0.106479 0.168358,-0.168358 0.252538,-0.252538 0.08418,-0.08418 0.146059,-0.199298 0.252538,-0.252538 0.07529,-0.03765 0.193018,0.05952 0.252538,0 0.05952,-0.05952 -0.05952,-0.193018 0,-0.252538 0.05879,-0.05879 0.39973,0.05267 0.505076,0 0.10648,-0.05324 0.153489,-0.186508 0.252539,-0.252538 0.156617,-0.104412 0.336717,-0.168358 0.505076,-0.252538 0.168359,-0.08418 0.392138,-0.101954 0.505076,-0.252539 0.159718,-0.212958 0.09282,-0.544655 0.252538,-0.757614 0.112939,-0.150585 0.354492,-0.1396 0.505077,-0.252538 1.816501,-1.362376 -0.532952,0.280413 0.757614,-1.010153 0.133099,-0.133099 0.336717,-0.168358 0.505076,-0.252538 0.168359,-0.08418 0.354492,-0.139599 0.505076,-0.252538 0.190477,-0.142857 0.336718,-0.336718 0.505077,-0.505076 0.08418,-0.08418 0.168358,-0.168358 0.252538,-0.252538 0.168359,-0.168359 0.3146,-0.36222 0.505076,-0.505077 0.150585,-0.112938 0.348459,-0.148126 0.505076,-0.252538 0.628173,-0.418786 0.02902,-0.05803 0.252539,-0.505076 0.05324,-0.10648 0.168358,-0.168358 0.252538,-0.252538 0.08418,-0.08418 0.153488,-0.186508 0.252538,-0.252538 0.156617,-0.104412 0.348459,-0.148127 0.505076,-0.252538 0.09905,-0.06604 0.168358,-0.168359 0.252538,-0.252539 0.168359,-0.168358 0.336718,-0.336717 0.505077,-0.505076 0.08418,-0.08418 0.146058,-0.199298 0.252538,-0.252538 0.238095,-0.119048 0.499364,-0.187978 0.757614,-0.252538 0.08167,-0.02042 0.182498,0.04669 0.252538,0 0.198107,-0.132072 0.336718,-0.336718 0.505076,-0.505076 0.08418,-0.08418 0.186499,-0.153489 0.252539,-0.252539 0.104411,-0.156617 0.168358,-0.336717 0.252538,-0.505076 0.08418,-0.168359 0.168358,-0.336717 0.252538,-0.505076 0.293776,-0.587553 0.300498,-0.653203 0.757614,-1.262691 0.142857,-0.190476 0.373005,-0.306969 0.505077,-0.505076 0.104411,-0.156618 0.139599,-0.354492 0.252538,-0.505076 0.142857,-0.190477 0.336717,-0.336718 0.505076,-0.505077 0.08418,-0.168358 0.148126,-0.348458 0.252538,-0.505076 0.06604,-0.09905 0.199298,-0.146059 0.252538,-0.252538 0.02026,-0.04051 0.489727,-1.489649 0.505077,-1.515229 0.122499,-0.204165 0.356339,-0.319155 0.505076,-0.505076 0.237161,-0.296452 0.600248,-0.869275 0.757614,-1.262691 0.09886,-0.247159 0.168358,-0.505076 0.252538,-0.757614 0.179891,-0.539672 0.425797,-1.212841 0.505077,-1.767767 0.03571,-0.25 0,-0.505076 0,-0.757615 0,-0.252538 0,-0.505076 0,-0.757614 0,-0.168359 -0.07529,-0.354492 0,-0.505076 0.106479,-0.212959 0.398596,-0.292118 0.505076,-0.505077 0.07529,-0.150584 -0.05324,-0.345357 0,-0.505076 0.03765,-0.112938 0.214888,-0.139599 0.252538,-0.252538 0.01546,-0.04638 -0.01523,-0.949253 0,-1.010153 0.04565,-0.18261 0.193018,-0.326504 0.252538,-0.505076 0.02662,-0.07986 0,-0.168358 0,-0.252538 0.08418,-0.168359 0.168358,-0.336717 0.252538,-0.505076 0.08418,-0.168359 0.206888,-0.322466 0.252538,-0.505076 0.04083,-0.163332 0,-0.336718 0,-0.505077 0,-0.168358 0,-0.336717 0,-0.505076 0,-0.252538 -0.06125,-0.512616 0,-0.757614 0.02887,-0.115494 0.223669,-0.137045 0.252539,-0.252539 0.06125,-0.244998 0,-0.505076 0,-0.757614 0,-0.168359 0,-0.336717 0,-0.505076 0,-0.168359 0,-0.336718 0,-0.505077 0,-0.168358 0.04083,-0.341744 0,-0.505076 -0.04565,-0.18261 -0.215619,-0.320501 -0.252539,-0.505076 -0.04953,-0.247634 0,-0.505076 0,-0.757614 0,-0.336718 0,-0.673435 0,-1.010153 0,-0.420897 0,-0.841794 0,-1.262691 0,-0.252538 -0.07986,-0.518035 0,-0.757614 0.09598,-0.287938 0.369342,-0.486144 0.505077,-0.757615 0.07529,-0.150584 -0.07529,-0.354491 0,-0.505076 l 0,-1.26269 c -0.08418,-0.168359 -0.215623,-0.320501 -0.252538,-0.505077 -0.04953,-0.247634 0,-0.505076 0,-0.757614 0,-0.168359 0,-0.336718 0,-0.505076 0,-0.925974 0,-1.851947 0,-2.77792 0,-2.946278 0,-5.892556 0,-8.838835 0,-0.757614 0,-1.515229 0,-2.272843 0,-0.336717 0,-0.673435 0,-1.010152 0,-0.08418 0.02042,-0.170873 0,-0.252539 -0.06456,-0.25825 -0.200333,-0.496585 -0.252539,-0.757614 -0.03302,-0.165089 0,-0.336718 0,-0.505076 0,-0.168359 0,-0.336718 0,-0.505077 0,-1.431049 0,-2.862098 0,-4.2931479 0,-0.4208969 0,-0.8417938 0,-1.2626907 0,-0.084179 0,-0.1683587 0,-0.2525381 0,-0.1683588 0.05324,-0.3453572 0,-0.5050763 -0.0188,-0.056396 -0.468828,-0.4325798 -0.505076,-0.5050763 -0.03765,-0.075292 0,-0.1683587 0,-0.2525381 0,-0.084179 0,-0.1683588 0,-0.2525381 0,-0.4208969 0,-0.8417938 0,-1.2626907 0,-0.5892557 0,-1.1785113 0,-1.767767 0,-0.084179 0,-0.1683587 0,-0.2525381 0,-0.084179 0.05952,-0.1930143 0,-0.2525382 -0.05952,-0.059524 -0.193014,0.059524 -0.252538,0 -0.05879,-0.058792 0.05267,-0.3997293 0,-0.5050762 -0.05324,-0.1064795 -0.199298,-0.1460587 -0.252538,-0.2525382 -0.05267,-0.1053469 0.05879,-0.4462838 0,-0.5050762 -0.05952,-0.059524 -0.193014,0.059524 -0.252538,0 -0.05952,-0.059524 0.05952,-0.1930144 0,-0.2525382 -0.05952,-0.059524 -0.193015,0.059524 -0.252538,0 -0.05952,-0.059524 0.03765,-0.1772458 0,-0.2525381 -0.10648,-0.2129589 -0.398597,-0.29211743 -0.505077,-0.50507629 -0.03765,-0.0752923 0.05952,-0.19301432 0,-0.25253813 -0.05952,-0.0595238 -0.193014,0.0595238 -0.252538,0 -0.05952,-0.0595238 0.05952,-0.19301433 0,-0.25253814 -0.52251,-0.52251039 0.02043,0.79846506 -0.505076,-0.25253814 -0.03765,-0.07529232 0.03765,-0.17724581 0,-0.25253813 -0.156031,-0.31206195 -0.243821,-0.25253814 -0.505076,-0.25253814"
       transform="translate(0,952.36218)"
       id="path2832"
       style="fill:none;stroke:#000000;stroke-width:1px;stroke-linecap:butt;stroke-linejoin:miter;stroke-opacity:1" />
    <path
       d="m 92.681496,60.351513 c 0.422535,0.422535 0.08254,-0.422536 0.505076,0 0.522511,0.52251 -0.798465,-0.02043 0.252539,0.505076 0.105346,0.05267 0.446283,-0.05879 0.505076,0 0.05952,0.05952 -0.05952,0.193014 0,0.252538 0.05952,0.05952 0.193014,-0.05952 0.252538,0 0.133099,0.133099 0.1396,0.354492 0.252538,0.505076 0.142857,0.190476 0.336718,0.336718 0.505076,0.505077 0.08418,0.08418 0.153485,0.186502 0.252538,0.252538 0.156618,0.104411 0.354492,0.139599 0.505077,0.252538 0.190476,0.142857 0.306969,0.373005 0.505076,0.505076 0.07004,0.04669 0.182497,-0.04669 0.252538,0 0.198107,0.132072 0.306969,0.373005 0.505076,0.505076 0.296622,0.197748 0.741762,-0.499792 0.757615,-0.505076 0.112938,-0.03765 0.199298,0.146059 0.252538,0.252538 0.03765,0.07529 0,0.168359 0,0.252538 0,0.08418 0,0.168359 0,0.252538 0,0.08418 -0.03765,0.177246 0,0.252539 0.279188,0.558375 0.156736,0.07837 0.505076,0.252538 0.212959,0.106479 0.292118,0.398597 0.505077,0.505076 0.07529,0.03765 0.177245,-0.03765 0.252538,0 0.106479,0.05324 0.139599,0.214892 0.252538,0.252538 0.159719,0.05324 0.336717,0 0.505074,0 0.0842,0 0.17725,-0.03765 0.25254,0 0.10648,0.05324 0.14606,0.199299 0.25254,0.252538 0.10535,0.05267 0.44628,-0.05879 0.50507,0 0.0595,0.05952 0.0842,0.252538 0,0.252538 -0.19339,0 -0.50326,-0.755805 -0.50507,-0.757614 -0.1331,-0.133099 -0.33672,-0.168359 -0.50508,-0.252538"
       transform="translate(0,952.36218)"
       id="path2834"
       style="fill:none;stroke:#000000;stroke-width:1px;stroke-linecap:butt;stroke-linejoin:miter;stroke-opacity:1" />
    <path
       d="m 33.335034,16.914953 c 0.336718,-0.08418 1.255576,-0.497961 1.010153,-0.252538 -0.320546,0.320545 -0.85723,0.302345 -1.262691,0.505076 -1.051003,0.525502 0.269972,-0.01743 -0.252538,0.505076 -0.05952,0.05952 -0.193015,-0.05952 -0.252538,0 -0.05952,0.05952 0,0.168359 0,0.252539 0,0.08418 0,0.168358 0,0.252538 0,0.505076 0,1.010152 0,1.515229 0,0.08418 0.05952,0.193014 0,0.252538 -0.05952,0.05952 -0.193015,-0.05952 -0.252539,0 -0.05952,0.05952 0,0.168358 0,0.252538 0,0.420897 0,0.841794 0,1.262691 0,0.168358 0,0.336717 0,0.505076 0,0.08418 -0.05952,0.193014 0,0.252538 0.05952,0.05952 0.193015,-0.05952 0.252539,0 0.05952,0.05952 0,0.168359 0,0.252538 0.08418,0 0.177245,-0.03765 0.252538,0 0.106479,0.05324 0.146058,0.199298 0.252538,0.252538 0.07529,0.03765 0.168359,0 0.252538,0 0.08418,0 0.168359,0 0.252538,0 0.08418,0 0.193014,0.05952 0.252538,0 0.05952,-0.05952 -0.03765,-0.177246 0,-0.252538 0.05324,-0.106479 0.199299,-0.146059 0.252538,-0.252538 0.03765,-0.07529 -0.03765,-0.177246 0,-0.252538 0.05324,-0.10648 0.199299,-0.146059 0.252539,-0.252538 0.05267,-0.105347 -0.05879,-0.446284 0,-0.505077 0.05952,-0.05952 0.193014,0.05952 0.252538,0 0.05952,-0.05952 0,-0.168358 0,-0.252538 0,-0.168359 0,-0.336717 0,-0.505076 0,-0.08418 -0.05952,-0.193014 0,-0.252538 0.05952,-0.05952 0.193014,0.05952 0.252538,0 0.05952,-0.05952 0,-0.168359 0,-0.252538 0,-0.08418 0,-0.168359 0,-0.252538 0,-0.08418 0.03765,-0.177246 0,-0.252539 -0.05324,-0.106479 -0.199299,-0.146058 -0.252538,-0.252538 -0.03765,-0.07529 0,-0.168358 0,-0.252538 0,-0.08418 0,-0.168359 0,-0.252538 0,-0.08418 0.05952,-0.193014 0,-0.252538 -0.336718,-0.336718 -0.252538,0.420897 -0.252538,-0.252538"
       transform="translate(0,952.36218)"
       id="path2838"
       style="fill:none;stroke:#000000;stroke-width:1px;stroke-linecap:butt;stroke-linejoin:miter;stroke-opacity:1" />
    <path
       d="m 32.072343,12.621805 c 0.812908,0 -0.431109,0.05952 0.505077,-0.252538 0.159719,-0.05324 0.386028,0.119047 0.505076,0 0.119048,-0.119048 -0.04083,-0.341745 0,-0.505077 0.0051,-0.02046 0.494948,-0.979767 0.505076,-1.010152 0.02662,-0.07986 0,-0.168359 0,-0.252538 0,-0.08418 0,-0.168359 0,-0.252538 0,-0.252539 0,-0.5050768 0,-0.7576149 0,-0.4208969 0,-0.8417938 0,-1.2626907 0,-0.1683587 0,-0.3367175 0,-0.5050763 0,-0.084179 0.02662,-0.1726785 0,-0.2525381 -0.05952,-0.1785714 -0.193014,-0.3265048 -0.252538,-0.5050763 -0.02662,-0.079859 0,-0.1683587 0,-0.2525381 0,-0.1683588 0.04083,-0.3417443 0,-0.5050763 -0.04565,-0.1826107 -0.206885,-0.3224655 -0.252538,-0.5050763 -0.04083,-0.1633319 0,-0.3367175 0,-0.5050762 0,-0.084179 0.02662,-0.1726786 0,-0.2525382 -0.05952,-0.1785714 -0.193014,-0.3265048 -0.252538,-0.5050762 -0.02662,-0.07986 0,-0.1683588 0,-0.2525382 0,-0.1683587 0,-0.3367175 0,-0.5050762 0,-0.1683588 0.04083,-0.3417443 0,-0.5050763 C 32.800766,3.1611284 32.4607,2.7537185 32.57742,2.5202793 c 0.05324,-0.1064795 0.199298,-0.1460587 0.252538,-0.2525382 0.03765,-0.075292 0,-0.1683587 0,-0.2525381 0,-0.1683588 0,-0.3367175 0,-0.5050763 0,-0.084179 0,-0.1683587 0,-0.2525381 0,-0.084179 -0.08418,-0.2525381 0,-0.2525381 0.153874,0 -0.106361,0.3455347 0,0.5050762 0.132071,0.1981072 0.398597,0.2921174 0.505076,0.5050763 0.03765,0.075292 -0.214892,-0.075292 -0.252538,0 -0.07529,0.1505846 0,0.3367175 0,0.5050763 0,0.1683587 -0.05324,0.3453571 0,0.5050762 0.03765,0.1129385 0.168359,0.1683588 0.252538,0.2525382 0.08418,0.084179 0.186502,0.1534845 0.252538,0.2525381 0.01248,0.018727 0.495655,0.9975904 0.505076,1.0101526 0.142858,0.1904762 0.36222,0.3146 0.505077,0.5050762 0.765464,1.0206189 0.03999,0.1199596 0.252538,0.7576144 0.05952,0.1785715 0.206885,0.3224656 0.252538,0.5050763 0.04083,0.163332 -0.05324,0.3453572 0,0.5050763 0.03765,0.1129385 0.199298,0.1460587 0.252538,0.2525381 0.03765,0.075292 -0.03765,0.1772458 0,0.2525382 0.05324,0.1064794 0.199299,0.1460587 0.252538,0.2525381 0.03765,0.075292 0,0.1683588 0,0.2525381 0,0.1683588 0,0.3367176 0,0.5050763 0,0.084179 0,0.1683588 0,0.2525381 0,0.1683588 0.05324,0.3453572 0,0.5050763 -0.03765,0.1129385 -0.214892,0.1395997 -0.252538,0.2525382 -0.05324,0.1597191 0,0.3367175 0,0.5050762 0,0.2525378 0,0.5050768 0,0.7576148 0,0.08418 0.03765,0.177245 0,0.252538 -0.05324,0.106479 -0.199298,0.146058 -0.252538,0.252538 -0.03765,0.07529 0.03765,0.177246 0,0.252538 -0.312062,0.624124 -0.252538,-0.08717 -0.252538,0.505076"
       transform="translate(0,952.36218)"
       id="path2842"
       style="fill:none;stroke:#000000;stroke-width:1px;stroke-linecap:butt;stroke-linejoin:miter;stroke-opacity:1" />
  </g>
</svg>
